<svg width="50" height="50" viewBox="0 0 50 50" fill="none" xmlns="http://www.w3.org/2000/svg">
<circle cx="25" cy="25" r="25" fill="#006FCF"/>
<path d="M44.6897 9.83105H11.9463V39.9338H44.6897V9.83105Z" fill="white"/>
<path d="M11.9463 9.83105V40.1979H44.6897V39.1511H38.9321L36.8043 36.6621L34.5931 39.1511H18.2383V25.8979H12.8421L19.5876 10.6279H26.1512L27.7366 14.0908V10.6279H35.8864L37.2491 14.2577L38.5841 10.6279H44.6897V9.83105H11.9463ZM39.9751 12.7832L37.8332 18.4298L37.2632 19.9601L36.6791 18.4298L34.5238 12.7832H29.8093V23.9095H32.6464V16.6642L32.6322 15.2031L33.1887 16.6642L35.9006 23.9095H38.5983L41.3244 16.6642L41.8526 15.2173V23.9095H44.6897V12.7832H39.9751ZM21.1171 12.7832L16.1939 23.9095H19.4198L20.2826 21.7675H25.6789L26.5408 23.9095H29.8093L27.3615 18.3464L24.9137 12.7832H21.1171ZM22.4238 16.5523L22.9803 15.1622L23.5369 16.5523L24.6909 19.361H21.2698L22.4238 16.5523ZM40.1979 25.9121L36.846 29.5135L33.5083 25.9121H29.8093H20.5188V36.9958H29.8093V34.5902H23.3558V32.6568H29.6841V30.2653H23.3558V28.3178H29.8093V25.9121L34.9961 31.4744L29.8093 36.9958H33.3973L36.7768 33.3802L40.142 36.9958H43.8269L38.6259 31.4327L43.8269 25.9121H40.1979ZM41.5464 31.4193L44.6897 34.6177V28.2619L41.5464 31.4193Z" fill="#006FCF"/>
</svg>
