<svg width="40" height="40" viewBox="0 0 40 40" fill="none" xmlns="http://www.w3.org/2000/svg">
<circle cx="20" cy="20" r="20" fill="#555555"/>
<path d="M16.3333 33.0002C18.7253 33.0002 20.6667 31.0588 20.6667 28.6668V24.3335H16.3333C13.9413 24.3335 12 26.2748 12 28.6668C12 31.0588 13.9413 33.0002 16.3333 33.0002Z" fill="white" stroke="#999999"/>
<path d="M12 19.9998C12 17.6078 13.9413 15.6665 16.3333 15.6665H20.6667V24.3332H16.3333C13.9413 24.3332 12 22.3918 12 19.9998Z" fill="white" stroke="#999999"/>
<path d="M12 11.3333C12 8.94134 13.9413 7 16.3333 7H20.6667V15.6667H16.3333C13.9413 15.6667 12 13.7253 12 11.3333Z" fill="white" stroke="#999999"/>
<path d="M20.667 7H25.0003C27.3923 7 29.3337 8.94134 29.3337 11.3333C29.3337 13.7253 27.3923 15.6667 25.0003 15.6667H20.667V7Z" fill="white" stroke="#999999"/>
<path d="M29.3337 19.9998C29.3337 22.3918 27.3923 24.3332 25.0003 24.3332C22.6083 24.3332 20.667 22.3918 20.667 19.9998C20.667 17.6078 22.6083 15.6665 25.0003 15.6665C27.3923 15.6665 29.3337 17.6078 29.3337 19.9998Z" fill="white" stroke="#999999"/>
</svg>
