<svg width="40" height="41" viewBox="0 0 40 41" fill="none" xmlns="http://www.w3.org/2000/svg">
<circle cx="20" cy="20.1667" r="20" fill="url(#paint0_linear_83_125)"/>
<path d="M16.3333 33.1668C18.7253 33.1668 20.6667 31.2255 20.6667 28.8335V24.5001H16.3333C13.9413 24.5001 12 26.4415 12 28.8335C12 31.2255 13.9413 33.1668 16.3333 33.1668Z" fill="white" stroke="#14AE5C"/>
<path d="M12 20.1667C12 17.7747 13.9413 15.8334 16.3333 15.8334H20.6667V24.5H16.3333C13.9413 24.5 12 22.5587 12 20.1667Z" fill="white" stroke="#14AE5C"/>
<path d="M12 11.5001C12 9.10808 13.9413 7.16675 16.3333 7.16675H20.6667V15.8334H16.3333C13.9413 15.8334 12 13.8921 12 11.5001Z" fill="white" stroke="#14AE5C"/>
<path d="M20.667 7.16675H25.0003C27.3923 7.16675 29.3337 9.10808 29.3337 11.5001C29.3337 13.8921 27.3923 15.8334 25.0003 15.8334H20.667V7.16675Z" fill="white" stroke="#14AE5C"/>
<path d="M29.3337 20.1667C29.3337 22.5587 27.3923 24.5 25.0003 24.5C22.6083 24.5 20.667 22.5587 20.667 20.1667C20.667 17.7747 22.6083 15.8334 25.0003 15.8334C27.3923 15.8334 29.3337 17.7747 29.3337 20.1667Z" fill="white" stroke="#14AE5C"/>
<defs>
<linearGradient id="paint0_linear_83_125" x1="40" y1="20.1667" x2="0" y2="20.1667" gradientUnits="userSpaceOnUse">
<stop stop-color="#FF7262"/>
<stop offset="0.5" stop-color="#A259FF"/>
<stop offset="0.75" stop-color="#1ABCFE"/>
<stop offset="1" stop-color="#0ACF83"/>
</linearGradient>
</defs>
</svg>
