<svg width="40" height="40" viewBox="0 0 40 40" fill="none" xmlns="http://www.w3.org/2000/svg">
<circle cx="20" cy="20" r="20" fill="#555555"/>
<path d="M13 29.4289L15.29 28.0431C15.7317 28.8263 16.1336 29.4891 17.0975 29.4891C18.0215 29.4891 18.6041 29.1276 18.6041 27.7217V18.1606H21.4161V27.7615C21.4161 30.674 19.7088 31.9996 17.2181 31.9996C14.9686 31.9996 13.6628 30.8346 13 29.4286" fill="white"/>
<path d="M22.9434 29.1277L25.233 27.802C25.8357 28.7863 26.6191 29.5094 28.0049 29.5094C29.1701 29.5094 29.9131 28.9268 29.9131 28.1234C29.9131 27.1592 29.1498 26.8177 27.8643 26.2555L27.1615 25.954C25.1327 25.0905 23.7869 24.0058 23.7869 21.716C23.7869 19.607 25.3937 18 27.9046 18C29.6922 18 30.9777 18.6227 31.9016 20.2497L29.7122 21.6557C29.2301 20.792 28.708 20.4506 27.9046 20.4506C27.0811 20.4506 26.5588 20.9729 26.5588 21.6557C26.5588 22.4993 27.0811 22.8409 28.2861 23.3631L28.9891 23.6644C31.3793 24.6888 32.7251 25.7332 32.7251 28.0832C32.7251 30.6142 30.7366 32 28.0653 32C25.4541 32 23.7668 30.7547 22.9434 29.1277Z" fill="white"/>
</svg>
