<svg width="40" height="41" viewBox="0 0 40 41" fill="none" xmlns="http://www.w3.org/2000/svg">
<circle cx="20" cy="20.1667" r="20" fill="#F7DF1E"/>
<path d="M13 29.5958L15.29 28.21C15.7317 28.9932 16.1336 29.656 17.0975 29.656C18.0215 29.656 18.6041 29.2945 18.6041 27.8886V18.3275H21.4161V27.9284C21.4161 30.8409 19.7088 32.1665 17.2181 32.1665C14.9686 32.1665 13.6628 31.0015 13 29.5955" fill="black"/>
<path d="M22.9434 29.2944L25.233 27.9688C25.8357 28.9531 26.6191 29.6761 28.0049 29.6761C29.1701 29.6761 29.9131 29.0936 29.9131 28.2901C29.9131 27.326 29.1498 26.9845 27.8643 26.4223L27.1615 26.1208C25.1327 25.2572 23.7869 24.1726 23.7869 21.8827C23.7869 19.7737 25.3937 18.1667 27.9046 18.1667C29.6922 18.1667 30.9777 18.7895 31.9016 20.4165L29.7122 21.8224C29.2301 20.9588 28.708 20.6174 27.9046 20.6174C27.0811 20.6174 26.5588 21.1396 26.5588 21.8224C26.5588 22.6661 27.0811 23.0076 28.2861 23.5299L28.9891 23.8311C31.3793 24.8556 32.7251 25.9 32.7251 28.2499C32.7251 30.7809 30.7366 32.1667 28.0653 32.1667C25.4541 32.1667 23.7668 30.9215 22.9434 29.2944Z" fill="black"/>
</svg>
