<svg width="40" height="40" viewBox="0 0 40 40" fill="none" xmlns="http://www.w3.org/2000/svg">
<circle cx="20" cy="20" r="20" fill="#555555"/>
<path d="M20.5 32.9167C20.1429 32.9167 19.8095 32.8214 19.5 32.6548L16.3333 30.7738C15.8571 30.5119 16.0952 30.4167 16.2381 30.369C16.881 30.1548 17 30.1071 17.6667 29.7262C17.7381 29.6786 17.8333 29.7024 17.9048 29.75L20.3333 31.2024C20.4286 31.25 20.5476 31.25 20.619 31.2024L30.119 25.7024C30.2143 25.6548 30.2619 25.5595 30.2619 25.4405V14.4643C30.2619 14.3452 30.2143 14.25 30.119 14.2024L20.619 8.72619C20.5238 8.67857 20.4048 8.67857 20.3333 8.72619L10.8333 14.2024C10.7381 14.25 10.6905 14.369 10.6905 14.4643V25.4405C10.6905 25.5357 10.7381 25.6548 10.8333 25.7024L13.4286 27.2024C14.8333 27.9167 15.7143 27.0833 15.7143 26.25V15.4167C15.7143 15.2738 15.8333 15.131 16 15.131H17.2143C17.3571 15.131 17.5 15.25 17.5 15.4167V26.25C17.5 28.131 16.4762 29.2262 14.6905 29.2262C14.1429 29.2262 13.7143 29.2262 12.5 28.631L10 27.2024C9.38095 26.8452 9 26.1786 9 25.4643V14.4881C9 13.7738 9.38095 13.1071 10 12.75L19.5 7.25C20.0952 6.91667 20.9048 6.91667 21.5 7.25L31 12.75C31.619 13.1071 32 13.7738 32 14.4881V25.4643C32 26.1786 31.619 26.8452 31 27.2024L21.5 32.7024C21.1905 32.8452 20.8333 32.9167 20.5 32.9167ZM23.4286 25.369C19.2619 25.369 18.4048 23.4643 18.4048 21.8452C18.4048 21.7024 18.5238 21.5595 18.6905 21.5595H19.9286C20.0714 21.5595 20.1905 21.6548 20.1905 21.7976C20.381 23.0595 20.9286 23.6786 23.4524 23.6786C25.4524 23.6786 26.3095 23.2262 26.3095 22.1548C26.3095 21.5357 26.0714 21.0833 22.9524 20.7738C20.3571 20.5119 18.7381 19.9405 18.7381 17.869C18.7381 15.9405 20.3571 14.7976 23.0714 14.7976C26.119 14.7976 27.619 15.8452 27.8095 18.131C27.8095 18.2024 27.7857 18.2738 27.7381 18.3452C27.6905 18.3929 27.619 18.4405 27.5476 18.4405H26.3095C26.1905 18.4405 26.0714 18.3452 26.0476 18.2262C25.7619 16.9167 25.0238 16.4881 23.0714 16.4881C20.881 16.4881 20.619 17.25 20.619 17.8214C20.619 18.5119 20.9286 18.7262 23.881 19.1071C26.8095 19.4881 28.1905 20.0357 28.1905 22.0833C28.1667 24.1786 26.4524 25.369 23.4286 25.369Z" fill="white"/>
</svg>
