<svg width="40" height="41" viewBox="0 0 40 41" fill="none" xmlns="http://www.w3.org/2000/svg">
<circle cx="20" cy="20.1667" r="20" fill="#539E43"/>
<path d="M20.5 33.0834C20.1429 33.0834 19.8095 32.9882 19.5 32.8215L16.3333 30.9406C15.8571 30.6786 16.0952 30.5834 16.2381 30.5358C16.881 30.3215 17 30.2739 17.6667 29.8929C17.7381 29.8453 17.8333 29.8691 17.9048 29.9167L20.3333 31.3691C20.4286 31.4167 20.5476 31.4167 20.619 31.3691L30.119 25.8691C30.2143 25.8215 30.2619 25.7263 30.2619 25.6072V14.631C30.2619 14.512 30.2143 14.4167 30.119 14.3691L20.619 8.89294C20.5238 8.84532 20.4048 8.84532 20.3333 8.89294L10.8333 14.3691C10.7381 14.4167 10.6905 14.5358 10.6905 14.631V25.6072C10.6905 25.7025 10.7381 25.8215 10.8333 25.8691L13.4286 27.3691C14.8333 28.0834 15.7143 27.2501 15.7143 26.4167V15.5834C15.7143 15.4406 15.8333 15.2977 16 15.2977H17.2143C17.3571 15.2977 17.5 15.4167 17.5 15.5834V26.4167C17.5 28.2977 16.4762 29.3929 14.6905 29.3929C14.1429 29.3929 13.7143 29.3929 12.5 28.7977L10 27.3691C9.38095 27.012 9 26.3453 9 25.631V14.6548C9 13.9406 9.38095 13.2739 10 12.9167L19.5 7.41675C20.0952 7.08341 20.9048 7.08341 21.5 7.41675L31 12.9167C31.619 13.2739 32 13.9406 32 14.6548V25.631C32 26.3453 31.619 27.012 31 27.3691L21.5 32.8691C21.1905 33.012 20.8333 33.0834 20.5 33.0834ZM23.4286 25.5358C19.2619 25.5358 18.4048 23.631 18.4048 22.012C18.4048 21.8691 18.5238 21.7263 18.6905 21.7263H19.9286C20.0714 21.7263 20.1905 21.8215 20.1905 21.9644C20.381 23.2263 20.9286 23.8453 23.4524 23.8453C25.4524 23.8453 26.3095 23.3929 26.3095 22.3215C26.3095 21.7025 26.0714 21.2501 22.9524 20.9406C20.3571 20.6787 18.7381 20.1072 18.7381 18.0358C18.7381 16.1072 20.3571 14.9644 23.0714 14.9644C26.119 14.9644 27.619 16.012 27.8095 18.2977C27.8095 18.3691 27.7857 18.4406 27.7381 18.512C27.6905 18.5596 27.619 18.6072 27.5476 18.6072H26.3095C26.1905 18.6072 26.0714 18.512 26.0476 18.3929C25.7619 17.0834 25.0238 16.6548 23.0714 16.6548C20.881 16.6548 20.619 17.4167 20.619 17.9882C20.619 18.6787 20.9286 18.8929 23.881 19.2739C26.8095 19.6548 28.1905 20.2025 28.1905 22.2501C28.1667 24.3453 26.4524 25.5358 23.4286 25.5358Z" fill="white"/>
</svg>
