<svg width="40" height="41" viewBox="0 0 40 41" fill="none" xmlns="http://www.w3.org/2000/svg">
<circle cx="20" cy="20.1667" r="20" fill="#336791"/>
<path d="M31.9365 22.975C31.7923 22.5386 31.4144 22.2346 30.9257 22.1616C30.6953 22.1272 30.4314 22.1419 30.1191 22.2062C29.5748 22.3184 29.171 22.3611 28.8763 22.3694C29.9886 20.493 30.8932 18.3533 31.4139 16.339C32.2558 13.0822 31.8059 11.5985 31.2802 10.9273C29.8887 9.15102 27.8586 8.19671 25.4093 8.16745C24.1029 8.15152 22.9558 8.40925 22.3575 8.59454C21.8004 8.4964 21.2014 8.44156 20.5728 8.4314C19.3948 8.41264 18.3538 8.6692 17.4643 9.19654C16.9718 9.03023 16.1816 8.79571 15.2689 8.646C13.1222 8.2939 11.3922 8.56829 10.1267 9.46143C8.59439 10.5429 7.88399 12.4217 8.01539 15.046C8.05706 15.8791 8.5236 18.4141 9.25811 20.8183C9.68026 22.2001 10.1304 23.3476 10.5961 24.2292C11.2564 25.4793 11.963 26.2156 12.7562 26.4799C13.2008 26.6279 14.0086 26.7315 14.8583 26.0247C14.966 26.1549 15.1096 26.2844 15.3004 26.4046C15.5425 26.5572 15.8386 26.6819 16.1343 26.7558C17.2001 27.022 18.1985 26.9554 19.0501 26.5823C19.0554 26.7336 19.0594 26.8782 19.0629 27.0031C19.0685 27.2056 19.0741 27.4042 19.0815 27.5899C19.132 28.8456 19.2175 29.8219 19.4708 30.505C19.4847 30.5427 19.5035 30.5999 19.5232 30.6606C19.6496 31.0473 19.861 31.6945 20.3986 32.2015C20.9555 32.7265 21.629 32.8876 22.2459 32.8876C22.5552 32.8876 22.8504 32.847 23.1093 32.7916C24.0322 32.594 25.0803 32.2929 25.8385 31.2144C26.5552 30.1947 26.9037 28.659 26.9668 26.2391C26.9749 26.1708 26.9825 26.1054 26.9898 26.0431C26.9947 26.0011 26.9997 25.9582 27.0047 25.9153L27.1736 25.9301L27.2171 25.9331C28.1571 25.9759 29.3064 25.7767 30.0123 25.4491C30.57 25.1905 32.3573 24.2479 31.9365 22.975Z" fill="white"/>
<path d="M30.3298 23.2226C27.535 23.7986 27.3429 22.8532 27.3429 22.8532C30.2938 18.4786 31.5273 12.9257 30.4628 11.5667C27.5586 7.85948 22.5314 9.61274 22.4475 9.65826L22.4205 9.66309C21.8683 9.54857 21.2504 9.48035 20.5559 9.46903C19.2913 9.44832 18.332 9.80025 17.6041 10.3517C17.6041 10.3517 8.63608 6.66064 9.05317 14.994C9.1419 16.7668 11.5965 28.4082 14.5243 24.892C15.5944 23.6062 16.6283 22.5191 16.6283 22.5191C17.1418 22.8599 17.7566 23.0337 18.4011 22.9713L18.4512 22.9288C18.4356 23.0885 18.4427 23.2446 18.4712 23.4295C17.717 24.2714 17.9386 24.4192 16.4309 24.7293C14.9052 25.0434 15.8015 25.6027 16.3866 25.7488C17.096 25.9261 18.7372 26.1771 19.8462 24.6262L19.8019 24.8032C20.0975 25.0396 20.305 26.3414 20.2702 27.5214C20.2354 28.7015 20.2122 29.5116 20.4451 30.1444C20.6779 30.7773 20.91 32.2011 22.892 31.7768C24.5482 31.4222 25.4065 30.5033 25.5259 28.9705C25.6106 27.8808 25.8024 28.0419 25.8145 27.0676L25.9683 26.6064C26.1456 25.1292 25.9964 24.6527 27.0168 24.8743L27.2648 24.8961C28.0158 24.9302 28.9987 24.7754 29.5756 24.5075C30.8178 23.9316 31.5545 22.9699 30.3297 23.2226H30.3298Z" fill="white"/>
<path d="M18.129 15.7868C17.8772 15.7518 17.6491 15.7842 17.5337 15.8715C17.4687 15.9206 17.4487 15.9775 17.4433 16.0167C17.4288 16.1204 17.5016 16.2351 17.5462 16.2943C17.6727 16.4618 17.8575 16.5769 18.0404 16.6023C18.0669 16.6059 18.0932 16.6077 18.1195 16.6077C18.4245 16.6077 18.7017 16.3704 18.7262 16.1953C18.7567 15.976 18.438 15.8298 18.129 15.7868Z" fill="#336791"/>
<path d="M26.4721 15.7938C26.4481 15.6218 26.1418 15.5728 25.8512 15.6132C25.561 15.6536 25.2796 15.7844 25.3031 15.9567C25.322 16.0907 25.5641 16.3195 25.8508 16.3194C25.875 16.3194 25.8994 16.3178 25.924 16.3144C26.1154 16.2879 26.2558 16.1665 26.3224 16.0965C26.4241 15.9899 26.4828 15.871 26.4721 15.7938Z" fill="#336791"/>
<path d="M31.2587 23.1572C31.1521 22.8352 30.8092 22.7316 30.2393 22.8492C28.5472 23.1981 27.9413 22.9564 27.7423 22.81C29.0575 20.8082 30.1394 18.3886 30.7231 16.131C30.9996 15.0616 31.1524 14.0685 31.1648 13.2591C31.1786 12.3705 31.0272 11.7176 30.7148 11.3188C29.4553 9.71089 27.6068 8.84844 25.3692 8.82474C23.831 8.80748 22.5313 9.20082 22.2794 9.31139C21.7488 9.17956 21.1703 9.09862 20.5407 9.0883C19.3858 9.06965 18.3877 9.34586 17.5612 9.90884C17.2023 9.77539 16.2745 9.45721 15.14 9.27464C13.1785 8.95907 11.6199 9.19815 10.5076 9.98544C9.18033 10.9249 8.56761 12.6042 8.68634 14.9765C8.72629 15.7747 9.18144 18.2301 9.89983 20.5816C10.8454 23.6765 11.8732 25.4286 12.9548 25.789C13.0813 25.8311 13.2273 25.8607 13.3883 25.8607C13.7828 25.8607 14.2664 25.683 14.7697 25.0786C15.6056 24.0738 16.3861 23.2319 16.6738 22.926C17.0989 23.154 17.5659 23.2813 18.0437 23.2941C18.0445 23.3066 18.0458 23.3191 18.0469 23.3315C17.951 23.4451 17.8724 23.5446 17.8054 23.6296C17.4744 24.0494 17.4055 24.1367 16.3401 24.3559C16.0371 24.4184 15.2321 24.5841 15.2204 25.1478C15.2075 25.7637 16.1718 26.0224 16.2817 26.0498C16.6645 26.1456 17.0333 26.1928 17.3851 26.1928C18.2406 26.1927 18.9934 25.9119 19.5951 25.3684C19.5765 27.564 19.6682 29.7276 19.932 30.3869C20.1481 30.9265 20.6761 32.2454 22.3439 32.2453C22.5885 32.2453 22.8579 32.2168 23.1542 32.1534C24.8947 31.7805 25.6505 31.012 25.9429 29.3176C26.0994 28.4121 26.3679 26.2497 26.4941 25.0898C26.7606 25.1729 27.1038 25.2109 27.4747 25.2108C28.2483 25.2108 29.141 25.0466 29.7008 24.787C30.3296 24.4953 31.4645 23.7792 31.2587 23.1572ZM27.1138 15.3192C27.1081 15.6617 27.0609 15.9725 27.0109 16.297C26.9571 16.646 26.9014 17.0068 26.8874 17.4448C26.8736 17.8711 26.9269 18.3143 26.9784 18.7428C27.0826 19.6084 27.1894 20.4996 26.7758 21.379C26.7115 21.2649 26.6494 21.1405 26.5925 21.0027C26.5411 20.8782 26.4295 20.6782 26.275 20.4013C25.6736 19.3239 24.2654 16.8008 24.9863 15.7712C25.2009 15.4647 25.7459 15.1496 27.1138 15.3192ZM25.4558 9.51816C27.4606 9.5624 29.0465 10.3117 30.1693 11.7452C31.0305 12.8447 30.0822 17.8478 27.3369 22.1639C27.3098 22.1295 27.2822 22.0948 27.2536 22.0591C27.2422 22.0449 27.2306 22.0304 27.2189 22.0157C27.9283 20.8452 27.7896 19.6871 27.6661 18.6603C27.6154 18.2389 27.5675 17.8409 27.5797 17.4671C27.5923 17.0708 27.6447 16.731 27.6954 16.4024C27.7578 15.9974 27.8212 15.5784 27.8037 15.0844C27.8167 15.0326 27.822 14.9714 27.8152 14.8987C27.7705 14.425 27.2292 13.0075 26.1259 11.7243C25.5225 11.0225 24.6423 10.2371 23.4407 9.70739C23.9576 9.60037 24.6644 9.50057 25.4558 9.51816ZM14.2372 24.6361C13.6827 25.3021 13.2998 25.1745 13.1739 25.1326C12.3534 24.8592 11.4015 23.1268 10.5622 20.3796C9.83599 18.0025 9.41157 15.6122 9.37801 14.9419C9.27195 12.8221 9.78627 11.3448 10.9068 10.5509C12.7302 9.25888 15.7283 10.0322 16.9329 10.4244C16.9156 10.4415 16.8976 10.4574 16.8804 10.4748C14.9037 12.4694 14.9506 15.8772 14.9554 16.0855C14.9552 16.1659 14.9619 16.2797 14.9712 16.4362C15.0052 17.0093 15.0685 18.0761 14.8994 19.2842C14.7423 20.4068 15.0886 21.5056 15.8496 22.2989C15.9284 22.381 16.0106 22.4581 16.0955 22.5306C15.7568 22.893 15.0207 23.6944 14.2372 24.6361ZM16.3496 21.8201C15.7363 21.1808 15.4578 20.2915 15.5853 19.38C15.7639 18.1038 15.698 16.9923 15.6626 16.3952C15.6576 16.3117 15.6532 16.2385 15.6506 16.1807C15.9394 15.9249 17.2777 15.2084 18.2321 15.4269C18.6677 15.5266 18.933 15.8229 19.0433 16.3326C19.6143 18.9711 19.1189 20.0708 18.7208 20.9545C18.6388 21.1366 18.5613 21.3087 18.495 21.4868L18.4437 21.6244C18.3138 21.9724 18.193 22.2959 18.1181 22.6031C17.4662 22.6011 16.8319 22.3229 16.3496 21.8201ZM16.4497 25.3785C16.2593 25.331 16.0881 25.2485 15.9876 25.18C16.0715 25.1406 16.2209 25.0869 16.4799 25.0336C17.7332 24.7758 17.9268 24.5939 18.3495 24.0577C18.4464 23.9348 18.5563 23.7954 18.7084 23.6257L18.7085 23.6254C18.9352 23.372 19.0388 23.4149 19.2268 23.4928C19.3791 23.5558 19.5275 23.7466 19.5876 23.9565C19.6161 24.0556 19.6481 24.2439 19.5435 24.3902C18.6604 25.6254 17.3738 25.6096 16.4497 25.3785ZM23.009 31.4768C21.4757 31.8051 20.9329 31.0234 20.5751 30.1299C20.3442 29.553 20.2307 26.9517 20.3112 24.079C20.3123 24.0408 20.3069 24.0038 20.2963 23.9691C20.2871 23.9021 20.273 23.8344 20.2535 23.7661C20.1337 23.3482 19.8419 22.9985 19.4919 22.8536C19.3528 22.796 19.0975 22.6904 18.7908 22.7688C18.8562 22.4995 18.9697 22.1955 19.0926 21.8662L19.1443 21.7276C19.2024 21.5715 19.2752 21.4097 19.3523 21.2385C19.7689 20.3139 20.3395 19.0474 19.7202 16.1863C19.4883 15.1147 18.7138 14.5914 17.5396 14.7129C16.8357 14.7857 16.1917 15.0694 15.8705 15.2321C15.8015 15.2671 15.7383 15.3009 15.6793 15.3338C15.7689 14.254 16.1077 12.2362 17.3747 10.9595C18.1723 10.1557 19.2348 9.7588 20.5292 9.78017C23.0797 9.82191 24.7152 11.1296 25.6383 12.2193C26.4336 13.1584 26.8643 14.1042 27.0362 14.6144C25.7436 14.4831 24.8645 14.738 24.4188 15.3746C23.4492 16.7592 24.9492 19.4467 25.6701 20.7383C25.8023 20.9751 25.9164 21.1796 25.9523 21.2666C26.187 21.835 26.491 22.2144 26.7129 22.4915C26.7809 22.5764 26.8469 22.6587 26.897 22.7306C26.5056 22.8434 25.8023 23.1039 25.8664 24.4062C25.8147 25.0597 25.4471 28.1191 25.2605 29.2001C25.014 30.6281 24.488 31.1601 23.009 31.4768ZM29.4092 24.1594C29.0088 24.3451 28.3389 24.4844 27.7024 24.5142C26.9995 24.5472 26.6417 24.4356 26.5575 24.367C26.518 23.5554 26.8204 23.4706 27.1403 23.3809C27.1906 23.3667 27.2397 23.353 27.287 23.3364C27.3165 23.3604 27.3487 23.3841 27.384 23.4074C27.949 23.78 28.9567 23.8202 30.3793 23.5268C30.3846 23.5257 30.3898 23.5247 30.395 23.5236C30.2031 23.7029 29.8747 23.9434 29.4092 24.1594Z" fill="#336791"/>
</svg>
