<svg width="40" height="40" viewBox="0 0 40 40" fill="none" xmlns="http://www.w3.org/2000/svg">
<circle cx="20" cy="20" r="20" fill="#555555"/>
<path d="M31.9365 22.8083C31.7922 22.3719 31.4144 22.0678 30.9257 21.9948C30.6953 21.9605 30.4314 21.9751 30.1191 22.0395C29.5748 22.1517 29.171 22.1943 28.8763 22.2027C29.9886 20.3263 30.8932 18.1865 31.4139 16.1723C32.2558 12.9154 31.8059 11.4317 31.2802 10.7606C29.8887 8.98428 27.8586 8.02996 25.4093 8.0007C24.1029 7.98477 22.9558 8.2425 22.3575 8.42779C21.8004 8.32965 21.2014 8.27481 20.5728 8.26465C19.3948 8.24589 18.3538 8.50245 17.4643 9.02979C16.9718 8.86349 16.1816 8.62896 15.2689 8.47925C13.1222 8.12715 11.3922 8.40154 10.1267 9.29468C8.59439 10.3761 7.88399 12.255 8.01539 14.8792C8.05706 15.7124 8.5236 18.2473 9.25811 20.6515C9.68026 22.0333 10.1304 23.1809 10.5961 24.0625C11.2564 25.3126 11.963 26.0488 12.7562 26.3131C13.2008 26.4612 14.0086 26.5648 14.8583 25.8579C14.966 25.9881 15.1096 26.1176 15.3004 26.2379C15.5425 26.3905 15.8386 26.5151 16.1343 26.589C17.2001 26.8552 18.1985 26.7886 19.0501 26.4156C19.0554 26.5669 19.0594 26.7115 19.0629 26.8363C19.0685 27.0389 19.0741 27.2374 19.0815 27.4231C19.132 28.6788 19.2175 29.6552 19.4708 30.3383C19.4847 30.3759 19.5035 30.4332 19.5232 30.4938C19.6496 30.8805 19.861 31.5277 20.3986 32.0347C20.9555 32.5598 21.629 32.7209 22.2459 32.7208C22.5552 32.7208 22.8504 32.6803 23.1093 32.6248C24.0322 32.4273 25.0803 32.1262 25.8385 31.0476C26.5552 30.028 26.9037 28.4923 26.9668 26.0724C26.9749 26.004 26.9825 25.9387 26.9898 25.8764C26.9947 25.8344 26.9997 25.7914 27.0047 25.7486L27.1736 25.7634L27.2171 25.7663C28.1571 25.8091 29.3064 25.6099 30.0123 25.2824C30.57 25.0238 32.3573 24.0811 31.9365 22.8083Z" fill="white"/>
<path d="M30.3298 23.0561C27.535 23.6321 27.3429 22.6867 27.3429 22.6867C30.2938 18.3121 31.5273 12.7592 30.4628 11.4002C27.5586 7.69297 22.5314 9.44624 22.4475 9.49176L22.4205 9.49659C21.8683 9.38207 21.2504 9.31385 20.5559 9.30252C19.2913 9.28182 18.332 9.63375 17.6041 10.1852C17.6041 10.1852 8.63608 6.49414 9.05317 14.8275C9.1419 16.6003 11.5965 28.2417 14.5243 24.7255C15.5944 23.4397 16.6283 22.3526 16.6283 22.3526C17.1418 22.6934 17.7566 22.8672 18.4011 22.8048L18.4512 22.7623C18.4356 22.922 18.4427 23.0781 18.4712 23.263C17.717 24.1049 17.9386 24.2527 16.4309 24.5628C14.9052 24.8769 15.8015 25.4362 16.3866 25.5823C17.096 25.7596 18.7372 26.0106 19.8462 24.4597L19.8019 24.6367C20.0975 24.8731 20.305 26.1749 20.2702 27.3549C20.2354 28.535 20.2122 29.3451 20.4451 29.9779C20.6779 30.6108 20.91 32.0346 22.892 31.6103C24.5482 31.2557 25.4065 30.3368 25.5259 28.804C25.6106 27.7143 25.8024 27.8754 25.8145 26.9011L25.9683 26.4399C26.1456 24.9627 25.9964 24.4862 27.0168 24.7078L27.2648 24.7296C28.0158 24.7637 28.9987 24.6089 29.5756 24.341C30.8178 23.7651 31.5545 22.8034 30.3297 23.0561H30.3298Z" fill="white"/>
<path d="M18.129 15.6203C17.8772 15.5853 17.6491 15.6177 17.5337 15.705C17.4687 15.7541 17.4487 15.811 17.4433 15.8502C17.4288 15.9539 17.5016 16.0686 17.5462 16.1278C17.6727 16.2953 17.8575 16.4104 18.0404 16.4358C18.0669 16.4394 18.0932 16.4412 18.1195 16.4412C18.4245 16.4412 18.7017 16.2039 18.7262 16.0288C18.7567 15.8095 18.438 15.6633 18.129 15.6203Z" fill="#555555"/>
<path d="M26.4721 15.627C26.4481 15.4551 26.1418 15.4061 25.8512 15.4464C25.561 15.4868 25.2796 15.6177 25.3031 15.79C25.322 15.924 25.5641 16.1527 25.8508 16.1527C25.875 16.1527 25.8994 16.151 25.924 16.1476C26.1154 16.1211 26.2558 15.9997 26.3224 15.9297C26.4241 15.8232 26.4828 15.7043 26.4721 15.627Z" fill="#555555"/>
<path d="M31.2587 22.9902C31.1521 22.6682 30.8092 22.5646 30.2393 22.6822C28.5472 23.0311 27.9413 22.7894 27.7423 22.643C29.0575 20.6413 30.1394 18.2217 30.7231 15.964C30.9996 14.8946 31.1524 13.9015 31.1648 13.0921C31.1786 12.2035 31.0272 11.5506 30.7148 11.1518C29.4553 9.54393 27.6068 8.68148 25.3692 8.65778C23.831 8.64051 22.5313 9.03385 22.2794 9.14443C21.7488 9.01259 21.1703 8.93166 20.5407 8.92134C19.3858 8.90268 18.3877 9.1789 17.5612 9.74188C17.2023 9.60843 16.2745 9.29025 15.14 9.10768C13.1785 8.79211 11.6199 9.03119 10.5076 9.81848C9.18033 10.7579 8.56761 12.4372 8.68634 14.8095C8.72629 15.6078 9.18144 18.0631 9.89983 20.4146C10.8454 23.5095 11.8732 25.2616 12.9548 25.622C13.0813 25.6642 13.2273 25.6937 13.3882 25.6937C13.7828 25.6937 14.2664 25.516 14.7697 24.9116C15.6056 23.9069 16.3861 23.065 16.6738 22.759C17.0989 22.9871 17.5659 23.1144 18.0437 23.1271C18.0445 23.1396 18.0458 23.1521 18.0469 23.1645C17.951 23.2781 17.8724 23.3776 17.8054 23.4626C17.4744 23.8824 17.4055 23.9698 16.3401 24.189C16.0371 24.2514 15.2321 24.4172 15.2204 24.9809C15.2075 25.5967 16.1718 25.8554 16.2817 25.8828C16.6645 25.9786 17.0333 26.0258 17.3851 26.0258C18.2406 26.0258 18.9934 25.7449 19.5951 25.2014C19.5765 27.3971 19.6682 29.5607 19.932 30.2199C20.1481 30.7595 20.6761 32.0784 22.3439 32.0783C22.5885 32.0783 22.8579 32.0499 23.1542 31.9864C24.8947 31.6136 25.6505 30.845 25.9429 29.1507C26.0994 28.2452 26.3679 26.0827 26.4941 24.9229C26.7606 25.0059 27.1038 25.0439 27.4747 25.0439C28.2483 25.0439 29.141 24.8797 29.7008 24.6201C30.3296 24.3283 31.4645 23.6122 31.2587 22.9902ZM27.1138 15.1523C27.1081 15.4947 27.0609 15.8056 27.0109 16.1301C26.9571 16.4791 26.9014 16.8399 26.8874 17.2779C26.8736 17.7041 26.9269 18.1473 26.9784 18.5759C27.0826 19.4415 27.1894 20.3327 26.7758 21.2121C26.7115 21.098 26.6494 20.9735 26.5925 20.8357C26.5411 20.7112 26.4295 20.5112 26.275 20.2344C25.6736 19.1569 24.2654 16.6338 24.9863 15.6042C25.2009 15.2977 25.7459 14.9827 27.1138 15.1523ZM25.4557 9.3512C27.4606 9.39544 29.0465 10.1448 30.1693 11.5782C31.0305 12.6778 30.0822 17.6808 27.3369 21.997C27.3098 21.9625 27.2822 21.9278 27.2536 21.8922C27.2422 21.8779 27.2306 21.8634 27.2189 21.8488C27.9283 20.6782 27.7896 19.5201 27.6661 18.4933C27.6154 18.0719 27.5675 17.6739 27.5797 17.3001C27.5923 16.9038 27.6447 16.564 27.6954 16.2354C27.7578 15.8304 27.8212 15.4114 27.8037 14.9175C27.8167 14.8657 27.822 14.8044 27.8152 14.7318C27.7705 14.2581 27.2292 12.8405 26.1259 11.5573C25.5225 10.8556 24.6423 10.0702 23.4407 9.54043C23.9576 9.43341 24.6644 9.3336 25.4557 9.3512ZM14.2372 24.4692C13.6827 25.1352 13.2998 25.0076 13.1739 24.9657C12.3534 24.6922 11.4015 22.9598 10.5622 20.2126C9.83599 17.8355 9.41157 15.4452 9.37801 14.775C9.27195 12.6552 9.78627 11.1778 10.9068 10.3839C12.7302 9.09192 15.7283 9.86522 16.9329 10.2574C16.9156 10.2745 16.8976 10.2905 16.8804 10.3078C14.9037 12.3024 14.9506 15.7102 14.9554 15.9185C14.9552 15.9989 14.9619 16.1127 14.9712 16.2692C15.0052 16.8424 15.0685 17.9091 14.8994 19.1172C14.7423 20.2399 15.0886 21.3387 15.8496 22.1319C15.9284 22.214 16.0106 22.2911 16.0955 22.3637C15.7568 22.7261 15.0207 23.5275 14.2372 24.4692ZM16.3496 21.6531C15.7363 21.0138 15.4578 20.1245 15.5853 19.2131C15.7639 17.9368 15.698 16.8254 15.6626 16.2283C15.6576 16.1447 15.6532 16.0715 15.6506 16.0137C15.9394 15.7579 17.2777 15.0415 18.2321 15.26C18.6677 15.3596 18.933 15.6559 19.0433 16.1656C19.6143 18.8041 19.1189 19.9039 18.7208 20.7876C18.6388 20.9696 18.5613 21.1417 18.495 21.3198L18.4437 21.4574C18.3138 21.8054 18.193 22.1289 18.1181 22.4362C17.4662 22.4342 16.8319 22.1559 16.3496 21.6531ZM16.4497 25.2116C16.2593 25.164 16.0881 25.0815 15.9876 25.0131C16.0715 24.9736 16.2209 24.92 16.4799 24.8667C17.7332 24.6088 17.9268 24.4269 18.3495 23.8907C18.4464 23.7678 18.5563 23.6284 18.7084 23.4587L18.7085 23.4585C18.9352 23.205 19.0388 23.248 19.2268 23.3259C19.3791 23.3889 19.5275 23.5796 19.5876 23.7895C19.6161 23.8887 19.6481 24.0769 19.5435 24.2233C18.6604 25.4585 17.3738 25.4426 16.4497 25.2116ZM23.009 31.3099C21.4757 31.6381 20.9329 30.8565 20.5751 29.9629C20.3442 29.386 20.2307 26.7847 20.3112 23.912C20.3123 23.8738 20.3069 23.8369 20.2963 23.8022C20.2871 23.7352 20.273 23.6674 20.2535 23.5992C20.1337 23.1812 19.8419 22.8315 19.4919 22.6866C19.3528 22.629 19.0975 22.5234 18.7908 22.6018C18.8562 22.3325 18.9697 22.0285 19.0926 21.6992L19.1443 21.5607C19.2024 21.4045 19.2752 21.2428 19.3523 21.0716C19.7689 20.1469 20.3395 18.8804 19.7202 16.0193C19.4883 14.9477 18.7138 14.4244 17.5396 14.5459C16.8357 14.6187 16.1917 14.9025 15.8705 15.0652C15.8015 15.1001 15.7383 15.1339 15.6793 15.1668C15.7689 14.087 16.1077 12.0692 17.3747 10.7926C18.1723 9.98878 19.2348 9.59183 20.5292 9.61321C23.0797 9.65495 24.7152 10.9626 25.6383 12.0523C26.4336 12.9914 26.8643 13.9373 27.0362 14.4474C25.7436 14.3161 24.8645 14.5711 24.4188 15.2076C23.4492 16.5922 24.9492 19.2798 25.6701 20.5714C25.8023 20.8081 25.9164 21.0127 25.9523 21.0996C26.187 21.668 26.491 22.0475 26.7129 22.3245C26.7809 22.4094 26.8469 22.4917 26.897 22.5636C26.5056 22.6764 25.8023 22.9369 25.8664 24.2392C25.8147 24.8927 25.4471 27.9522 25.2605 29.0331C25.014 30.4611 24.488 30.9931 23.009 31.3099ZM29.4092 23.9925C29.0088 24.1781 28.3389 24.3174 27.7024 24.3473C26.9995 24.3802 26.6417 24.2686 26.5575 24.2C26.518 23.3885 26.8204 23.3037 27.1403 23.2139C27.1906 23.1997 27.2397 23.186 27.287 23.1695C27.3165 23.1934 27.3487 23.2172 27.384 23.2404C27.949 23.613 28.9567 23.6532 30.3793 23.3598C30.3846 23.3587 30.3898 23.3577 30.395 23.3567C30.2031 23.5359 29.8747 23.7765 29.4092 23.9925Z" fill="#555555"/>
</svg>
