<svg width="40" height="40" viewBox="0 0 40 40" fill="none" xmlns="http://www.w3.org/2000/svg">
<circle cx="20" cy="20" r="20" fill="#555555"/>
<mask id="path-2-inside-1_137_51" fill="white">
<path d="M29.0216 15.9719C28.7312 15.8732 28.4302 15.7798 28.1203 15.6915C28.1712 15.4862 28.218 15.2836 28.2595 15.0845C28.9418 11.8146 28.4957 9.18031 26.9724 8.313C25.5117 7.48136 23.1228 8.34847 20.7102 10.4214C20.4782 10.6208 20.2455 10.8318 20.013 11.053C19.858 10.9067 19.7033 10.7652 19.549 10.63C17.0205 8.41343 14.486 7.47934 12.9642 8.34916C11.5049 9.18321 11.0727 11.6597 11.6869 14.7586C11.7462 15.0579 11.8155 15.3636 11.8939 15.6744C11.5352 15.7749 11.189 15.8821 10.8576 15.9961C7.89321 17.0165 6 18.6157 6 20.2745C6 21.9877 8.03236 23.7061 11.12 24.748C11.3637 24.8303 11.6165 24.908 11.8771 24.9818C11.7925 25.318 11.7189 25.6473 11.6572 25.9686C11.0716 29.0138 11.5289 31.4317 12.9843 32.2605C14.4876 33.1164 17.0106 32.2366 19.4674 30.1164C19.6615 29.9488 19.8564 29.7711 20.0516 29.5848C20.3047 29.8254 20.5573 30.053 20.8086 30.2666C23.1882 32.2883 25.5385 33.1047 26.9926 32.2736C28.4944 31.4153 28.9825 28.8178 28.3488 25.6576C28.3004 25.4162 28.2441 25.1696 28.1809 24.9187C28.3581 24.867 28.532 24.8136 28.7016 24.7581C31.9115 23.7081 34 22.0106 34 20.2745C34 18.6097 32.0457 16.9997 29.0216 15.9719ZM28.3254 23.6371C28.1723 23.6872 28.0152 23.7355 27.8551 23.7824C27.5008 22.6748 27.0225 21.4971 26.4372 20.2802C26.9957 19.0924 27.4555 17.9297 27.8 16.8293C28.0864 16.9111 28.3644 16.9974 28.6323 17.0885C31.2233 17.9692 32.8039 19.2712 32.8039 20.2745C32.8039 21.3432 31.0969 22.7304 28.3254 23.6371ZM27.1754 25.8869C27.4556 27.2843 27.4956 28.5478 27.31 29.5354C27.1433 30.4229 26.8079 31.0146 26.3932 31.2516C25.5108 31.7559 23.6238 31.1004 21.5887 29.3714C21.3554 29.1732 21.1204 28.9615 20.8847 28.7376C21.6736 27.8856 22.4621 26.8953 23.2317 25.7954C24.5853 25.6768 25.8641 25.4829 27.0238 25.2182C27.081 25.4457 27.1317 25.6688 27.1754 25.8869ZM15.5458 31.1645C14.6837 31.4651 13.9971 31.4737 13.582 31.2374C12.6988 30.7345 12.3316 28.7931 12.8325 26.1889C12.8898 25.8906 12.9581 25.5843 13.0368 25.2711C14.1838 25.5215 15.4533 25.7017 16.8101 25.8103C17.5849 26.8866 18.3962 27.8759 19.2137 28.7421C19.0351 28.9124 18.8572 29.0745 18.6802 29.2272C17.5939 30.1647 16.5052 30.8299 15.5458 31.1645ZM11.5069 23.6306C10.1416 23.1698 9.01405 22.5711 8.24119 21.9176C7.54672 21.3305 7.1961 20.7475 7.1961 20.2745C7.1961 19.2679 8.71616 17.9839 11.2514 17.1113C11.559 17.0054 11.881 16.9056 12.2152 16.8118C12.5655 17.9371 13.0251 19.1136 13.5798 20.3032C13.018 21.5106 12.5518 22.7058 12.198 23.8442C11.9598 23.7766 11.729 23.7055 11.5069 23.6306ZM12.8608 14.5318C12.3346 11.8767 12.684 9.87382 13.5635 9.37123C14.5002 8.83581 16.5716 9.5992 18.7548 11.5131C18.8943 11.6354 19.0344 11.7634 19.1749 11.8959C18.3614 12.7584 17.5575 13.7402 16.7896 14.8102C15.4728 14.9307 14.2122 15.1242 13.0533 15.3835C12.9804 15.0941 12.9158 14.8098 12.8608 14.5318ZM24.9387 17.4763C24.6616 17.0038 24.3772 16.5425 24.0872 16.0938C24.9806 16.2053 25.8366 16.3533 26.6404 16.5344C26.3991 17.298 26.0983 18.0964 25.7442 18.9148C25.4902 18.4387 25.2216 17.9587 24.9387 17.4763ZM20.0134 12.7399C20.5651 13.33 21.1176 13.9889 21.6611 14.7038C21.1134 14.6782 20.559 14.665 20 14.665C19.4463 14.665 18.896 14.6779 18.3517 14.703C18.8957 13.9948 19.453 13.3368 20.0134 12.7399ZM15.0565 17.4844C14.7797 17.9582 14.516 18.4356 14.2661 18.9139C13.9177 18.0983 13.6197 17.2963 13.3763 16.5219C14.1752 16.3454 15.0271 16.2011 15.9148 16.0917C15.6207 16.5445 15.334 17.0093 15.0565 17.4844ZM15.9404 24.5415C15.0232 24.4405 14.1585 24.3036 13.3598 24.132C13.6071 23.3437 13.9117 22.5246 14.2674 21.6914C14.518 22.1694 14.7827 22.647 15.0612 23.1218C15.3448 23.6056 15.6387 24.0794 15.9404 24.5415ZM20.0465 27.8923C19.4795 27.2884 18.914 26.6204 18.3618 25.9018C18.8979 25.9226 19.4445 25.9332 20 25.9332C20.5707 25.9332 21.1349 25.9205 21.6902 25.8961C21.145 26.6276 20.5944 27.2967 20.0465 27.8923ZM25.7556 21.649C26.1299 22.4911 26.4454 23.306 26.6959 24.0808C25.884 24.2637 25.0075 24.4109 24.084 24.5204C24.3746 24.0656 24.6616 23.5964 24.9435 23.1137C25.2287 22.6254 25.4996 22.1363 25.7556 21.649ZM23.9074 22.5237C23.4697 23.273 23.0203 23.9883 22.5641 24.6634C21.7333 24.7221 20.8749 24.7523 20 24.7523C19.1287 24.7523 18.2811 24.7256 17.4649 24.6733C16.9903 23.9892 16.5312 23.2719 16.0963 22.5302C15.6626 21.7905 15.2634 21.0446 14.9017 20.3028C15.2633 19.5594 15.6615 18.8126 16.0928 18.0743L16.0927 18.0744C16.5251 17.3341 16.9802 16.6202 17.4504 15.9405C18.2831 15.8783 19.137 15.8459 20 15.8459C20.8668 15.8459 21.7219 15.8786 22.5543 15.9413C23.0173 16.616 23.4693 17.3276 23.9034 18.068C24.3425 18.8168 24.7458 19.5585 25.1105 20.2861C24.7469 21.0261 24.3445 21.7753 23.9074 22.5237ZM26.3749 9.3361C27.3125 9.86994 27.6771 12.0229 27.088 14.8461C27.0505 15.0263 27.0082 15.2098 26.9622 15.3957C25.8005 15.1311 24.5391 14.9342 23.2184 14.8118C22.449 13.7301 21.6517 12.7467 20.8515 11.8954C21.0666 11.691 21.2815 11.4962 21.4954 11.3123C23.5626 9.53617 25.4946 8.83493 26.3749 9.3361ZM20 17.806C21.3809 17.806 22.5003 18.9111 22.5003 20.2745C22.5003 21.6378 21.3809 22.743 20 22.743C18.6191 22.743 17.4997 21.6378 17.4997 20.2745C17.4997 18.9111 18.6191 17.806 20 17.806Z"/>
</mask>
<path d="M29.0216 15.9719C28.7312 15.8732 28.4302 15.7798 28.1203 15.6915C28.1712 15.4862 28.218 15.2836 28.2595 15.0845C28.9418 11.8146 28.4957 9.18031 26.9724 8.313C25.5117 7.48136 23.1228 8.34847 20.7102 10.4214C20.4782 10.6208 20.2455 10.8318 20.013 11.053C19.858 10.9067 19.7033 10.7652 19.549 10.63C17.0205 8.41343 14.486 7.47934 12.9642 8.34916C11.5049 9.18321 11.0727 11.6597 11.6869 14.7586C11.7462 15.0579 11.8155 15.3636 11.8939 15.6744C11.5352 15.7749 11.189 15.8821 10.8576 15.9961C7.89321 17.0165 6 18.6157 6 20.2745C6 21.9877 8.03236 23.7061 11.12 24.748C11.3637 24.8303 11.6165 24.908 11.8771 24.9818C11.7925 25.318 11.7189 25.6473 11.6572 25.9686C11.0716 29.0138 11.5289 31.4317 12.9843 32.2605C14.4876 33.1164 17.0106 32.2366 19.4674 30.1164C19.6615 29.9488 19.8564 29.7711 20.0516 29.5848C20.3047 29.8254 20.5573 30.053 20.8086 30.2666C23.1882 32.2883 25.5385 33.1047 26.9926 32.2736C28.4944 31.4153 28.9825 28.8178 28.3488 25.6576C28.3004 25.4162 28.2441 25.1696 28.1809 24.9187C28.3581 24.867 28.532 24.8136 28.7016 24.7581C31.9115 23.7081 34 22.0106 34 20.2745C34 18.6097 32.0457 16.9997 29.0216 15.9719ZM28.3254 23.6371C28.1723 23.6872 28.0152 23.7355 27.8551 23.7824C27.5008 22.6748 27.0225 21.4971 26.4372 20.2802C26.9957 19.0924 27.4555 17.9297 27.8 16.8293C28.0864 16.9111 28.3644 16.9974 28.6323 17.0885C31.2233 17.9692 32.8039 19.2712 32.8039 20.2745C32.8039 21.3432 31.0969 22.7304 28.3254 23.6371ZM27.1754 25.8869C27.4556 27.2843 27.4956 28.5478 27.31 29.5354C27.1433 30.4229 26.8079 31.0146 26.3932 31.2516C25.5108 31.7559 23.6238 31.1004 21.5887 29.3714C21.3554 29.1732 21.1204 28.9615 20.8847 28.7376C21.6736 27.8856 22.4621 26.8953 23.2317 25.7954C24.5853 25.6768 25.8641 25.4829 27.0238 25.2182C27.081 25.4457 27.1317 25.6688 27.1754 25.8869ZM15.5458 31.1645C14.6837 31.4651 13.9971 31.4737 13.582 31.2374C12.6988 30.7345 12.3316 28.7931 12.8325 26.1889C12.8898 25.8906 12.9581 25.5843 13.0368 25.2711C14.1838 25.5215 15.4533 25.7017 16.8101 25.8103C17.5849 26.8866 18.3962 27.8759 19.2137 28.7421C19.0351 28.9124 18.8572 29.0745 18.6802 29.2272C17.5939 30.1647 16.5052 30.8299 15.5458 31.1645ZM11.5069 23.6306C10.1416 23.1698 9.01405 22.5711 8.24119 21.9176C7.54672 21.3305 7.1961 20.7475 7.1961 20.2745C7.1961 19.2679 8.71616 17.9839 11.2514 17.1113C11.559 17.0054 11.881 16.9056 12.2152 16.8118C12.5655 17.9371 13.0251 19.1136 13.5798 20.3032C13.018 21.5106 12.5518 22.7058 12.198 23.8442C11.9598 23.7766 11.729 23.7055 11.5069 23.6306ZM12.8608 14.5318C12.3346 11.8767 12.684 9.87382 13.5635 9.37123C14.5002 8.83581 16.5716 9.5992 18.7548 11.5131C18.8943 11.6354 19.0344 11.7634 19.1749 11.8959C18.3614 12.7584 17.5575 13.7402 16.7896 14.8102C15.4728 14.9307 14.2122 15.1242 13.0533 15.3835C12.9804 15.0941 12.9158 14.8098 12.8608 14.5318ZM24.9387 17.4763C24.6616 17.0038 24.3772 16.5425 24.0872 16.0938C24.9806 16.2053 25.8366 16.3533 26.6404 16.5344C26.3991 17.298 26.0983 18.0964 25.7442 18.9148C25.4902 18.4387 25.2216 17.9587 24.9387 17.4763ZM20.0134 12.7399C20.5651 13.33 21.1176 13.9889 21.6611 14.7038C21.1134 14.6782 20.559 14.665 20 14.665C19.4463 14.665 18.896 14.6779 18.3517 14.703C18.8957 13.9948 19.453 13.3368 20.0134 12.7399ZM15.0565 17.4844C14.7797 17.9582 14.516 18.4356 14.2661 18.9139C13.9177 18.0983 13.6197 17.2963 13.3763 16.5219C14.1752 16.3454 15.0271 16.2011 15.9148 16.0917C15.6207 16.5445 15.334 17.0093 15.0565 17.4844ZM15.9404 24.5415C15.0232 24.4405 14.1585 24.3036 13.3598 24.132C13.6071 23.3437 13.9117 22.5246 14.2674 21.6914C14.518 22.1694 14.7827 22.647 15.0612 23.1218C15.3448 23.6056 15.6387 24.0794 15.9404 24.5415ZM20.0465 27.8923C19.4795 27.2884 18.914 26.6204 18.3618 25.9018C18.8979 25.9226 19.4445 25.9332 20 25.9332C20.5707 25.9332 21.1349 25.9205 21.6902 25.8961C21.145 26.6276 20.5944 27.2967 20.0465 27.8923ZM25.7556 21.649C26.1299 22.4911 26.4454 23.306 26.6959 24.0808C25.884 24.2637 25.0075 24.4109 24.084 24.5204C24.3746 24.0656 24.6616 23.5964 24.9435 23.1137C25.2287 22.6254 25.4996 22.1363 25.7556 21.649ZM23.9074 22.5237C23.4697 23.273 23.0203 23.9883 22.5641 24.6634C21.7333 24.7221 20.8749 24.7523 20 24.7523C19.1287 24.7523 18.2811 24.7256 17.4649 24.6733C16.9903 23.9892 16.5312 23.2719 16.0963 22.5302C15.6626 21.7905 15.2634 21.0446 14.9017 20.3028C15.2633 19.5594 15.6615 18.8126 16.0928 18.0743L16.0927 18.0744C16.5251 17.3341 16.9802 16.6202 17.4504 15.9405C18.2831 15.8783 19.137 15.8459 20 15.8459C20.8668 15.8459 21.7219 15.8786 22.5543 15.9413C23.0173 16.616 23.4693 17.3276 23.9034 18.068C24.3425 18.8168 24.7458 19.5585 25.1105 20.2861C24.7469 21.0261 24.3445 21.7753 23.9074 22.5237ZM26.3749 9.3361C27.3125 9.86994 27.6771 12.0229 27.088 14.8461C27.0505 15.0263 27.0082 15.2098 26.9622 15.3957C25.8005 15.1311 24.5391 14.9342 23.2184 14.8118C22.449 13.7301 21.6517 12.7467 20.8515 11.8954C21.0666 11.691 21.2815 11.4962 21.4954 11.3123C23.5626 9.53617 25.4946 8.83493 26.3749 9.3361ZM20 17.806C21.3809 17.806 22.5003 18.9111 22.5003 20.2745C22.5003 21.6378 21.3809 22.743 20 22.743C18.6191 22.743 17.4997 21.6378 17.4997 20.2745C17.4997 18.9111 18.6191 17.806 20 17.806Z" fill="white" stroke="white" stroke-width="2" mask="url(#path-2-inside-1_137_51)"/>
</svg>
