<svg width="40" height="41" viewBox="0 0 40 41" fill="none" xmlns="http://www.w3.org/2000/svg">
<circle cx="20" cy="20.1667" r="20" fill="#00D8FF"/>
<mask id="path-2-inside-1_83_100" fill="white">
<path d="M29.0216 16.1386C28.7312 16.0399 28.4302 15.9465 28.1203 15.8582C28.1712 15.653 28.218 15.4504 28.2595 15.2512C28.9418 11.9813 28.4957 9.34706 26.9724 8.47974C25.5117 7.6481 23.1228 8.51522 20.7102 10.5882C20.4782 10.7875 20.2455 10.9986 20.013 11.2198C19.858 11.0734 19.7033 10.932 19.549 10.7967C17.0205 8.58017 14.486 7.64609 12.9642 8.51591C11.5049 9.34996 11.0727 11.8264 11.6869 14.9253C11.7462 15.2247 11.8155 15.5303 11.8939 15.8411C11.5352 15.9417 11.189 16.0488 10.8576 16.1628C7.89321 17.1832 6 18.7824 6 20.4412C6 22.1545 8.03236 23.8728 11.12 24.9148C11.3637 24.997 11.6165 25.0748 11.8771 25.1486C11.7925 25.4847 11.7189 25.8141 11.6572 26.1354C11.0716 29.1805 11.5289 31.5985 12.9843 32.4272C14.4876 33.2831 17.0106 32.4034 19.4674 30.2832C19.6615 30.1156 19.8564 29.9378 20.0516 29.7515C20.3047 29.9921 20.5573 30.2198 20.8086 30.4333C23.1882 32.4551 25.5385 33.2715 26.9926 32.4404C28.4944 31.582 28.9825 28.9846 28.3488 25.8243C28.3004 25.583 28.2441 25.3364 28.1809 25.0854C28.3581 25.0337 28.532 24.9803 28.7016 24.9248C31.9115 23.8748 34 22.1773 34 20.4412C34 18.7764 32.0457 17.1665 29.0216 16.1386ZM28.3254 23.8039C28.1723 23.8539 28.0152 23.9023 27.8551 23.9492C27.5008 22.8416 27.0225 21.6638 26.4372 20.447C26.9957 19.2592 27.4555 18.0965 27.8 16.9961C28.0864 17.0779 28.3644 17.1642 28.6323 17.2553C31.2233 18.1359 32.8038 19.438 32.8038 20.4412C32.8038 21.5099 31.0969 22.8972 28.3254 23.8039ZM27.1754 26.0537C27.4556 27.4511 27.4956 28.7145 27.31 29.7022C27.1433 30.5897 26.8079 31.1814 26.3932 31.4184C25.5108 31.9226 23.6238 31.2672 21.5887 29.5381C21.3554 29.3399 21.1204 29.1283 20.8847 28.9043C21.6736 28.0524 22.4621 27.062 23.2317 25.9621C24.5853 25.8435 25.8641 25.6496 27.0238 25.385C27.081 25.6124 27.1317 25.8355 27.1754 26.0537ZM15.5458 31.3312C14.6837 31.6318 13.9971 31.6404 13.582 31.4041C12.6988 30.9012 12.3316 28.9598 12.8325 26.3556C12.8898 26.0574 12.9581 25.751 13.0368 25.4379C14.1838 25.6883 15.4533 25.8685 16.8101 25.9771C17.5849 27.0534 18.3962 28.0427 19.2137 28.9089C19.0351 29.0791 18.8572 29.2412 18.6802 29.394C17.5939 30.3315 16.5052 30.9967 15.5458 31.3312ZM11.5069 23.7973C10.1416 23.3366 9.01405 22.7378 8.24119 22.0844C7.54672 21.4972 7.1961 20.9143 7.1961 20.4412C7.1961 19.4346 8.71616 18.1507 11.2514 17.278C11.559 17.1721 11.881 17.0723 12.2152 16.9786C12.5655 18.1038 13.0251 19.2803 13.5798 20.47C13.018 21.6773 12.5518 22.8725 12.198 24.011C11.9598 23.9434 11.729 23.8722 11.5069 23.7973ZM12.8608 14.6986C12.3346 12.0435 12.684 10.0406 13.5635 9.53798C14.5002 9.00256 16.5716 9.76595 18.7548 11.6798C18.8943 11.8022 19.0344 11.9302 19.1749 12.0627C18.3614 12.9251 17.5575 13.907 16.7896 14.9769C15.4728 15.0974 14.2122 15.291 13.0533 15.5502C12.9804 15.2608 12.9158 14.9765 12.8608 14.6986ZM24.9387 17.643C24.6616 17.1705 24.3772 16.7092 24.0872 16.2605C24.9806 16.372 25.8366 16.52 26.6404 16.7012C26.3991 17.4647 26.0983 18.2631 25.7442 19.0816C25.4902 18.6055 25.2216 18.1255 24.9387 17.643ZM20.0134 12.9067C20.5651 13.4968 21.1176 14.1557 21.6611 14.8705C21.1134 14.845 20.559 14.8317 20 14.8317C19.4463 14.8317 18.896 14.8447 18.3517 14.8698C18.8957 14.1616 19.453 13.5036 20.0134 12.9067ZM15.0565 17.6512C14.7797 18.125 14.516 18.6024 14.2661 19.0807C13.9177 18.2651 13.6197 17.4631 13.3763 16.6887C14.1752 16.5122 15.0271 16.3678 15.9148 16.2584C15.6207 16.7113 15.334 17.1761 15.0565 17.6512ZM15.9404 24.7083C15.0232 24.6073 14.1585 24.4704 13.3598 24.2987C13.6071 23.5105 13.9117 22.6914 14.2674 21.8582C14.518 22.3361 14.7827 22.8137 15.0612 23.2886C15.3448 23.7723 15.6387 24.2462 15.9404 24.7083ZM20.0465 28.0591C19.4795 27.4552 18.914 26.7871 18.3618 26.0686C18.8979 26.0894 19.4445 26.1 20 26.1C20.5707 26.1 21.1349 26.0873 21.6902 26.0629C21.145 26.7944 20.5944 27.4634 20.0465 28.0591ZM25.7556 21.8157C26.1299 22.6579 26.4454 23.4728 26.6959 24.2476C25.884 24.4304 25.0075 24.5777 24.084 24.6871C24.3746 24.2324 24.6615 23.7631 24.9435 23.2805C25.2287 22.7921 25.4996 22.3031 25.7556 21.8157ZM23.9074 22.6905C23.4697 23.4397 23.0203 24.155 22.5641 24.8302C21.7333 24.8888 20.8749 24.919 20 24.919C19.1287 24.919 18.2811 24.8923 17.4649 24.84C16.9903 24.156 16.5312 23.4386 16.0963 22.6969C15.6626 21.9572 15.2634 21.2113 14.9017 20.4696C15.2633 19.7261 15.6615 18.9794 16.0928 18.241L16.0927 18.2412C16.5251 17.5009 16.9802 16.787 17.4504 16.1072C18.2831 16.0451 19.137 16.0127 19.9999 16.0127C20.8668 16.0127 21.7219 16.0453 22.5543 16.108C23.0173 16.7828 23.4693 17.4944 23.9034 18.2348C24.3425 18.9835 24.7458 19.7253 25.1105 20.4528C24.7469 21.1928 24.3445 21.9421 23.9074 22.6905ZM26.3749 9.50284C27.3125 10.0367 27.6771 12.1897 27.088 15.0129C27.0505 15.193 27.0081 15.3765 26.9622 15.5625C25.8005 15.2978 24.5391 15.1009 23.2184 14.9786C22.449 13.8969 21.6517 12.9135 20.8515 12.0621C21.0666 11.8578 21.2815 11.6629 21.4954 11.479C23.5626 9.70292 25.4946 9.00168 26.3749 9.50284ZM20 17.9727C21.3809 17.9727 22.5003 19.0779 22.5003 20.4412C22.5003 21.8046 21.3809 22.9098 20 22.9098C18.6191 22.9098 17.4997 21.8046 17.4997 20.4412C17.4997 19.0779 18.6191 17.9727 20 17.9727Z"/>
</mask>
<path d="M29.0216 16.1386C28.7312 16.0399 28.4302 15.9465 28.1203 15.8582C28.1712 15.653 28.218 15.4504 28.2595 15.2512C28.9418 11.9813 28.4957 9.34706 26.9724 8.47974C25.5117 7.6481 23.1228 8.51522 20.7102 10.5882C20.4782 10.7875 20.2455 10.9986 20.013 11.2198C19.858 11.0734 19.7033 10.932 19.549 10.7967C17.0205 8.58017 14.486 7.64609 12.9642 8.51591C11.5049 9.34996 11.0727 11.8264 11.6869 14.9253C11.7462 15.2247 11.8155 15.5303 11.8939 15.8411C11.5352 15.9417 11.189 16.0488 10.8576 16.1628C7.89321 17.1832 6 18.7824 6 20.4412C6 22.1545 8.03236 23.8728 11.12 24.9148C11.3637 24.997 11.6165 25.0748 11.8771 25.1486C11.7925 25.4847 11.7189 25.8141 11.6572 26.1354C11.0716 29.1805 11.5289 31.5985 12.9843 32.4272C14.4876 33.2831 17.0106 32.4034 19.4674 30.2832C19.6615 30.1156 19.8564 29.9378 20.0516 29.7515C20.3047 29.9921 20.5573 30.2198 20.8086 30.4333C23.1882 32.4551 25.5385 33.2715 26.9926 32.4404C28.4944 31.582 28.9825 28.9846 28.3488 25.8243C28.3004 25.583 28.2441 25.3364 28.1809 25.0854C28.3581 25.0337 28.532 24.9803 28.7016 24.9248C31.9115 23.8748 34 22.1773 34 20.4412C34 18.7764 32.0457 17.1665 29.0216 16.1386ZM28.3254 23.8039C28.1723 23.8539 28.0152 23.9023 27.8551 23.9492C27.5008 22.8416 27.0225 21.6638 26.4372 20.447C26.9957 19.2592 27.4555 18.0965 27.8 16.9961C28.0864 17.0779 28.3644 17.1642 28.6323 17.2553C31.2233 18.1359 32.8038 19.438 32.8038 20.4412C32.8038 21.5099 31.0969 22.8972 28.3254 23.8039ZM27.1754 26.0537C27.4556 27.4511 27.4956 28.7145 27.31 29.7022C27.1433 30.5897 26.8079 31.1814 26.3932 31.4184C25.5108 31.9226 23.6238 31.2672 21.5887 29.5381C21.3554 29.3399 21.1204 29.1283 20.8847 28.9043C21.6736 28.0524 22.4621 27.062 23.2317 25.9621C24.5853 25.8435 25.8641 25.6496 27.0238 25.385C27.081 25.6124 27.1317 25.8355 27.1754 26.0537ZM15.5458 31.3312C14.6837 31.6318 13.9971 31.6404 13.582 31.4041C12.6988 30.9012 12.3316 28.9598 12.8325 26.3556C12.8898 26.0574 12.9581 25.751 13.0368 25.4379C14.1838 25.6883 15.4533 25.8685 16.8101 25.9771C17.5849 27.0534 18.3962 28.0427 19.2137 28.9089C19.0351 29.0791 18.8572 29.2412 18.6802 29.394C17.5939 30.3315 16.5052 30.9967 15.5458 31.3312ZM11.5069 23.7973C10.1416 23.3366 9.01405 22.7378 8.24119 22.0844C7.54672 21.4972 7.1961 20.9143 7.1961 20.4412C7.1961 19.4346 8.71616 18.1507 11.2514 17.278C11.559 17.1721 11.881 17.0723 12.2152 16.9786C12.5655 18.1038 13.0251 19.2803 13.5798 20.47C13.018 21.6773 12.5518 22.8725 12.198 24.011C11.9598 23.9434 11.729 23.8722 11.5069 23.7973ZM12.8608 14.6986C12.3346 12.0435 12.684 10.0406 13.5635 9.53798C14.5002 9.00256 16.5716 9.76595 18.7548 11.6798C18.8943 11.8022 19.0344 11.9302 19.1749 12.0627C18.3614 12.9251 17.5575 13.907 16.7896 14.9769C15.4728 15.0974 14.2122 15.291 13.0533 15.5502C12.9804 15.2608 12.9158 14.9765 12.8608 14.6986ZM24.9387 17.643C24.6616 17.1705 24.3772 16.7092 24.0872 16.2605C24.9806 16.372 25.8366 16.52 26.6404 16.7012C26.3991 17.4647 26.0983 18.2631 25.7442 19.0816C25.4902 18.6055 25.2216 18.1255 24.9387 17.643ZM20.0134 12.9067C20.5651 13.4968 21.1176 14.1557 21.6611 14.8705C21.1134 14.845 20.559 14.8317 20 14.8317C19.4463 14.8317 18.896 14.8447 18.3517 14.8698C18.8957 14.1616 19.453 13.5036 20.0134 12.9067ZM15.0565 17.6512C14.7797 18.125 14.516 18.6024 14.2661 19.0807C13.9177 18.2651 13.6197 17.4631 13.3763 16.6887C14.1752 16.5122 15.0271 16.3678 15.9148 16.2584C15.6207 16.7113 15.334 17.1761 15.0565 17.6512ZM15.9404 24.7083C15.0232 24.6073 14.1585 24.4704 13.3598 24.2987C13.6071 23.5105 13.9117 22.6914 14.2674 21.8582C14.518 22.3361 14.7827 22.8137 15.0612 23.2886C15.3448 23.7723 15.6387 24.2462 15.9404 24.7083ZM20.0465 28.0591C19.4795 27.4552 18.914 26.7871 18.3618 26.0686C18.8979 26.0894 19.4445 26.1 20 26.1C20.5707 26.1 21.1349 26.0873 21.6902 26.0629C21.145 26.7944 20.5944 27.4634 20.0465 28.0591ZM25.7556 21.8157C26.1299 22.6579 26.4454 23.4728 26.6959 24.2476C25.884 24.4304 25.0075 24.5777 24.084 24.6871C24.3746 24.2324 24.6615 23.7631 24.9435 23.2805C25.2287 22.7921 25.4996 22.3031 25.7556 21.8157ZM23.9074 22.6905C23.4697 23.4397 23.0203 24.155 22.5641 24.8302C21.7333 24.8888 20.8749 24.919 20 24.919C19.1287 24.919 18.2811 24.8923 17.4649 24.84C16.9903 24.156 16.5312 23.4386 16.0963 22.6969C15.6626 21.9572 15.2634 21.2113 14.9017 20.4696C15.2633 19.7261 15.6615 18.9794 16.0928 18.241L16.0927 18.2412C16.5251 17.5009 16.9802 16.787 17.4504 16.1072C18.2831 16.0451 19.137 16.0127 19.9999 16.0127C20.8668 16.0127 21.7219 16.0453 22.5543 16.108C23.0173 16.7828 23.4693 17.4944 23.9034 18.2348C24.3425 18.9835 24.7458 19.7253 25.1105 20.4528C24.7469 21.1928 24.3445 21.9421 23.9074 22.6905ZM26.3749 9.50284C27.3125 10.0367 27.6771 12.1897 27.088 15.0129C27.0505 15.193 27.0081 15.3765 26.9622 15.5625C25.8005 15.2978 24.5391 15.1009 23.2184 14.9786C22.449 13.8969 21.6517 12.9135 20.8515 12.0621C21.0666 11.8578 21.2815 11.6629 21.4954 11.479C23.5626 9.70292 25.4946 9.00168 26.3749 9.50284ZM20 17.9727C21.3809 17.9727 22.5003 19.0779 22.5003 20.4412C22.5003 21.8046 21.3809 22.9098 20 22.9098C18.6191 22.9098 17.4997 21.8046 17.4997 20.4412C17.4997 19.0779 18.6191 17.9727 20 17.9727Z" fill="white" stroke="white" stroke-width="2" mask="url(#path-2-inside-1_83_100)"/>
</svg>
