<svg width="40" height="40" viewBox="0 0 40 40" fill="none" xmlns="http://www.w3.org/2000/svg">
<circle cx="20" cy="20" r="20" fill="#555555"/>
<g clip-path="url(#clip0_188_42)">
<path d="M29.0677 23.6667C29.1202 23.5575 29.1202 23.4533 29.177 23.3447C30.4643 18.2905 27.4024 12.3795 22.1354 9.26514C24.4447 12.3795 25.3583 16.0897 24.5533 19.4218C24.5015 19.6913 24.3923 20.0133 24.2837 20.2821C24.1378 20.1995 23.9926 20.1104 23.8532 20.0126C23.8532 20.0126 18.6416 16.7897 13.0526 11.1439C12.8916 10.9829 16.0627 15.6584 19.6076 19.3686C17.9422 18.3997 13.2136 15.0151 10.2559 12.2753C10.5779 12.8625 11.0645 13.454 11.5475 14.0463C14.0178 17.2167 17.245 21.0871 21.1126 24.0405C18.372 25.7101 14.5576 25.8151 10.6871 24.0405C9.72115 23.6143 8.91255 23.0745 7.99902 22.4312C9.61262 24.9576 12.139 27.2669 15.1491 28.5032C18.7508 30.0636 22.4035 29.9551 25.0356 28.5032H25.0923C25.1966 28.4507 25.3058 28.3939 25.4143 28.2897C26.7023 27.6421 29.2287 26.9464 30.6246 29.6331C31.0033 30.3856 31.6998 26.8932 29.0677 23.6667Z" fill="white"/>
</g>
<defs>
<clipPath id="clip0_188_42">
<rect width="23" height="23" fill="white" transform="translate(8 8)"/>
</clipPath>
</defs>
</svg>
