<svg width="40" height="41" viewBox="0 0 40 41" fill="none" xmlns="http://www.w3.org/2000/svg">
<circle cx="20" cy="20.1667" r="20" fill="#2298BD"/>
<path d="M19.5 11.1667C15.6333 11.1667 13.2167 13.0679 12.25 16.8702C13.7 14.9691 15.3917 14.2561 17.325 14.7314C18.4281 15.0026 19.2165 15.7895 20.0892 16.6606C21.5108 18.0796 23.1562 19.7219 26.75 19.7219C30.6167 19.7219 33.0333 17.8208 34 14.0185C32.55 15.9196 30.8583 16.6326 28.925 16.1573C27.8219 15.8861 27.0335 15.0992 26.1608 14.2281C24.7392 12.8091 23.0938 11.1667 19.5 11.1667ZM12.25 19.7219C8.38333 19.7219 5.96667 21.6231 5 25.4254C6.45 23.5242 8.14167 22.8113 10.075 23.2866C11.1781 23.5578 11.9665 24.3447 12.8392 25.2158C14.2608 26.6348 15.9062 28.2771 19.5 28.2771C23.3667 28.2771 25.7833 26.376 26.75 22.5737C25.3 24.4748 23.6083 25.1877 21.675 24.7125C20.5719 24.4413 19.7835 23.6544 18.9108 22.7833C17.4892 21.3643 15.8438 19.7219 12.25 19.7219Z" fill="white"/>
</svg>
