<svg width="40" height="40" viewBox="0 0 40 40" fill="none" xmlns="http://www.w3.org/2000/svg">
<circle cx="20" cy="20" r="20" fill="#555555"/>
<path d="M19.5 11C15.6333 11 13.2167 12.9012 12.25 16.7035C13.7 14.8023 15.3917 14.0894 17.325 14.5647C18.4281 14.8358 19.2165 15.6228 20.0892 16.4939C21.5108 17.9129 23.1562 19.5552 26.75 19.5552C30.6167 19.5552 33.0333 17.654 34 13.8517C32.55 15.7529 30.8583 16.4658 28.925 15.9905C27.8219 15.7193 27.0335 14.9324 26.1608 14.0613C24.7392 12.6423 23.0938 11 19.5 11ZM12.25 19.5552C8.38333 19.5552 5.96667 21.4563 5 25.2586C6.45 23.3575 8.14167 22.6446 10.075 23.1198C11.1781 23.391 11.9665 24.1779 12.8392 25.049C14.2608 26.468 15.9062 28.1104 19.5 28.1104C23.3667 28.1104 25.7833 26.2092 26.75 22.4069C25.3 24.3081 23.6083 25.021 21.675 24.5457C20.5719 24.2745 19.7835 23.4876 18.9108 22.6165C17.4892 21.1975 15.8438 19.5552 12.25 19.5552Z" fill="white"/>
</svg>
