<svg width="50" height="50" viewBox="0 0 50 50" fill="none" xmlns="http://www.w3.org/2000/svg">
<circle cx="25" cy="25" r="25" fill="#FAE935"/>
<path fill-rule="evenodd" clip-rule="evenodd" d="M15.1748 16.7065L34.8575 16.8273L34.7546 33.6045L15.0719 33.4837L15.1748 16.7065Z" fill="white"/>
<path d="M34.7422 33.5238L28.4177 36.137L32.3284 27.1206L34.7422 33.5238Z" fill="white"/>
<path d="M15.2578 33.6177L21.5823 36.2309L17.6716 27.2145L15.2578 33.6177Z" fill="white"/>
<path fill-rule="evenodd" clip-rule="evenodd" d="M19.5775 28.1401C19.814 27.7988 19.367 27.6931 19.2094 27.7195C19.2618 27.4831 19.5775 27.2726 19.814 27.4046C19.9984 27.299 20.1561 27.273 20.2349 27.5095C20.3137 27.7719 20.5502 27.7992 20.7607 27.7992C21.2076 27.7992 21.4181 27.4835 21.3917 27.1149C21.3917 26.9841 21.4705 26.6944 21.5757 26.6156C21.6281 26.5624 21.1288 26.5624 21.0236 26.1951C20.8131 26.3259 20.3137 26.3791 20.1561 26.1951C20.2349 26.1691 20.5502 26.0894 20.4714 25.8794C20.3661 25.8269 20.2873 25.8269 20.1561 25.9054C20.1821 25.7473 20.4454 25.6429 20.3926 25.5905C20.3926 25.4588 20.1821 25.5112 20.1033 25.5372C20.1821 25.4588 20.2349 25.3532 20.2873 25.2224C20.1821 25.0643 20.0244 25.0643 19.814 25.0907C19.8668 24.9327 20.1561 24.7758 20.1033 24.6438C20.0244 24.5654 19.9192 24.6178 19.814 24.6178C19.8668 24.6178 19.8668 24.6178 19.9192 24.5654C19.9456 24.5121 20.0244 24.4337 20.0769 24.3549C20.0769 24.2757 19.9192 24.2492 19.7876 24.2757C19.9456 24.0392 20.1029 23.9868 20.3922 23.8287C20.445 23.7495 20.3922 23.6182 20.3133 23.6182C20.1557 23.6707 20.024 23.5922 19.998 23.4078C19.9456 23.3818 19.9456 23.3285 19.9456 23.3021C20.0244 23.3021 20.1561 23.3281 20.1821 23.2497C20.2873 23.2237 20.2873 23.1713 20.1821 23.0917C20.1033 23.0917 19.998 23.1177 19.9192 23.0917C19.814 23.0393 19.9192 22.9344 19.7876 22.9344C19.4987 22.8812 19.4459 22.5131 19.6035 22.3558C19.6035 22.3026 19.8664 22.7231 19.9456 22.4343C19.9192 22.1978 19.7352 22.0661 19.5251 22.0137C19.7876 21.7513 20.1561 21.9081 20.2349 22.0137C20.3137 22.0661 20.3926 22.0137 20.4454 22.0137C20.4454 21.9877 20.5242 21.9353 20.4714 21.8557C20.4454 21.6976 20.3137 21.6976 20.1821 21.6452C20.445 21.4347 20.8395 21.5404 20.9707 21.8557C21.0496 21.9349 21.3124 21.9081 21.26 22.0922C21.26 22.2762 21.102 22.0922 21.102 22.934C21.1284 23.381 21.4177 23.9063 21.4965 23.8539C21.5489 23.7755 21.6277 23.6959 21.6277 23.5914C21.6277 23.5382 21.5753 23.5914 21.5489 23.5382C21.6277 23.2493 21.7066 23.0913 21.8378 22.8812H21.6537C21.7062 22.7231 21.8642 22.5663 21.969 22.4343C21.995 22.3818 21.785 22.3558 21.7062 22.3026C21.785 22.2242 22.0479 22.0137 21.995 21.9877C21.969 21.9085 21.9162 21.9085 21.8374 21.8297C21.9162 21.7513 22.1531 21.698 22.2055 21.4876C22.2055 21.4352 22.1267 21.3567 22.0743 21.3567H22.3636C22.5059 21.3412 22.6499 21.3592 22.7841 21.4091C22.8105 21.3567 22.7841 21.2511 22.7317 21.1727C22.9946 21.1987 23.0734 21.1727 23.0998 20.9622C23.1522 20.9622 23.1786 21.0406 23.2574 21.0406C23.5203 21.1199 23.7044 21.2511 23.8884 21.4351C24.0989 21.2771 24.3878 21.2771 24.6247 21.3303C24.7035 21.2771 24.7299 21.2771 24.8351 21.2771C24.6247 21.5404 25.072 21.5668 25.2825 21.4351C25.493 21.6976 25.493 21.9081 25.2825 22.1454C25.4137 22.2238 25.519 22.4603 25.5714 22.4343C25.8607 22.0661 26.4653 21.9349 26.3868 21.698C26.3076 21.4356 26.1495 21.4356 25.8871 21.4356C25.9395 21.3307 26.2292 21.2775 26.4657 21.2775V20.9886C26.9126 21.067 27.0967 21.5672 27.3591 21.6456C27.6224 21.698 27.9377 21.5408 28.1218 21.3307H28.1478C28.1218 21.8561 28.6475 21.4356 28.8056 21.5412C28.8316 21.9357 28.0169 22.0926 27.9905 22.277C27.9113 22.5135 28.0165 22.5667 28.069 22.6451C28.0165 22.6451 27.7801 22.6711 27.7801 22.8032C27.9109 23.0137 28.2794 22.8816 28.3578 22.7772C28.4371 22.5139 28.2794 22.4351 28.227 22.3827C28.3054 22.3567 28.3851 22.4611 28.5159 22.3567C28.5159 22.2774 28.4899 22.225 28.4375 22.1986C28.6479 22.277 28.7524 22.3567 29.0421 22.3034C29.1469 22.2774 29.0945 22.1462 29.0945 22.093C29.2525 22.1462 29.4102 22.277 29.5414 22.3563C29.6995 22.303 29.6731 22.1458 29.5946 21.9881C29.7519 21.9357 29.9095 22.3827 30.12 22.4611C30.1984 22.4611 30.2781 22.3827 30.2781 22.277C30.3305 22.277 30.3305 22.3563 30.3305 22.3563C30.5669 23.3814 30.9351 22.4347 31.0931 22.5667C31.0931 22.5667 31.0931 22.5927 31.0671 22.5927C31.0147 22.6711 30.9879 22.8552 30.9879 22.9608C31.1459 23.5918 30.5409 23.6967 30.5409 23.7487C30.5669 25.1423 29.1737 25.1423 28.3855 24.9583C28.5959 25.5104 29.1733 25.5104 29.2265 25.905C29.2525 26.0366 29.3049 26.4571 29.4106 26.536C29.621 26.694 29.9884 26.4835 30.1724 26.3787C30.4881 26.3787 30.4881 26.562 30.5405 26.6152C30.8562 26.6676 31.0927 26.4835 31.3556 26.4047C31.4612 26.4571 31.1975 26.746 31.3032 26.746C31.3816 26.746 31.3816 26.6936 31.4348 26.6936C31.4608 26.8517 31.3556 27.0093 31.3816 27.1141C31.3816 27.1401 31.4608 27.1934 31.5132 27.1934C31.5132 27.2718 31.3816 27.2194 31.3028 27.4038C31.3812 27.4822 31.5652 27.4298 31.5916 27.4298C31.5132 27.5871 31.2243 27.7711 31.2243 27.8504C31.2243 27.8764 31.3816 27.8764 31.4348 27.8764C31.3556 28.008 31.1451 28.0344 31.1451 28.1388C31.1451 28.1648 31.2243 28.2181 31.2243 28.2181C31.1451 28.3229 30.8562 28.4013 30.8822 28.507C30.9871 28.533 31.0663 28.5862 31.1447 28.6126C30.8558 28.8231 30.7242 28.8751 30.4353 28.8751C30.4353 28.9799 30.4085 29.0591 30.3297 29.164C30.2772 29.19 30.1716 29.322 30.0408 29.322C30.1192 29.0595 29.9875 28.8227 29.7775 28.8227C29.7515 28.8227 29.7515 28.8751 29.7515 28.9011C29.8307 29.1636 29.6991 29.4272 29.3309 29.348C29.1729 29.5585 28.7264 29.5585 28.4899 29.322L28.4375 29.2696C28.6479 29.2436 28.7524 29.2436 28.9368 29.164C28.9368 29.0591 28.9368 29.0331 28.8844 28.9535C28.6739 28.9535 28.4375 29.0327 28.2274 29.164C28.2274 28.8751 28.3855 28.507 28.6479 28.507C28.7264 28.2965 28.7528 28.3229 28.806 28.2445C28.6743 28.1652 28.4379 28.0864 28.2798 28.1388H28.2014C28.3855 27.7183 28.6744 27.6919 28.9372 27.7975C29.0165 27.7707 29.1477 27.6919 29.2269 27.7183C29.385 27.7183 29.385 27.9548 29.5158 28.034C29.6739 28.0864 29.8579 27.85 29.8579 27.6919C29.8579 27.3498 29.385 27.2714 29.0169 27.3498C28.7536 27.403 28.5171 27.3498 28.3066 27.1925C28.1197 27.0578 27.944 26.9081 27.7813 26.7448C27.7281 26.7448 27.7281 26.7716 27.7281 26.824C27.7021 26.9289 27.5708 27.1129 27.7281 27.271C27.8597 27.3494 28.1226 27.429 28.1226 27.6391C28.1226 27.7175 28.1226 27.8495 27.9918 27.8756C27.9125 28.0072 27.7285 28.0336 27.7021 28.2177C27.7021 28.4541 27.7281 28.5066 27.8601 28.717C27.7285 28.743 27.492 28.6646 27.3603 28.6122C27.2819 28.6646 27.1771 28.8747 27.1239 28.9795C26.993 29.0327 26.9666 28.717 26.9134 28.743C26.8874 28.743 26.7029 28.9535 26.7554 28.9795C26.6769 29.0327 26.5981 28.743 26.5981 28.6646C26.4401 28.743 26.3876 28.9011 26.3876 29.0327C26.3084 28.9795 26.256 28.8747 26.2296 28.7962H26.1772C26.0715 28.9535 25.9399 28.9795 25.7558 28.9535C25.677 28.9535 25.8087 28.7962 25.8087 28.743H25.7298C25.651 28.8747 25.2041 28.8747 25.2041 28.7962C25.3093 28.717 25.4409 28.5858 25.4145 28.4541C25.3621 28.3757 25.3093 28.3757 25.2833 28.4009C25.1252 28.5066 25.0464 28.6642 24.8624 28.8223C24.7047 28.8747 24.5735 28.8222 24.4942 28.7166C24.2574 28.7166 24.0473 28.7166 23.8368 28.8747H23.8104C23.8893 28.4541 24.0209 28.3753 24.2574 28.2961C24.2574 28.2177 24.2574 28.0856 24.205 28.0336C24.0473 27.928 23.8897 27.9544 23.7056 28.0336C23.6796 27.928 23.9161 27.4814 24.2578 27.6391C24.2842 27.6391 24.3366 27.5859 24.3366 27.5598C24.2578 27.2974 24.1001 27.2974 23.9161 27.3494C23.9161 27.1129 24.2842 26.824 24.5471 27.0081C24.5735 26.9821 24.6523 26.9289 24.7047 26.9289C24.9152 26.9028 24.9416 27.1129 25.0728 27.1921C25.1517 27.2181 25.3093 27.2706 25.4409 27.4026C25.5722 27.5859 25.6774 27.5859 25.9403 27.6391C26.0984 27.6391 26.256 27.6391 26.4401 27.5859C26.7025 27.5074 26.7025 27.1389 26.4661 27.1129C26.1772 27.0605 25.9399 27.1921 25.6774 27.1129C25.2833 27.0081 25.2041 26.9024 25.2041 26.4035C24.8624 26.5607 24.0997 26.824 23.9157 26.8504C23.8368 26.9821 23.6792 27.0085 23.5475 27.0085C23.4687 27.1133 23.6792 27.3498 23.7052 27.3498C23.6264 27.429 23.0742 27.6919 23.1534 27.7179C23.1534 27.7703 23.1794 27.7703 23.2323 27.7971C23.1798 27.8495 23.0218 27.8756 22.9954 27.928C22.9954 27.954 23.0218 28.0072 23.0742 28.0072C22.9426 28.0856 22.7849 28.0332 22.6537 28.1644C22.5748 28.2177 22.4432 28.2437 22.2856 28.2961C22.2331 28.3753 22.338 28.4541 22.2856 28.5065C21.6546 28.6646 21.5493 28.3225 21.3917 28.3757C21.3128 28.4009 21.2076 28.5065 21.1288 28.5862C21.1812 28.8227 20.9711 29.19 20.7347 29.19C20.6294 29.164 20.8131 29.0591 20.6819 28.9011C20.6819 28.8751 20.6294 28.8751 20.603 28.8227C20.4718 28.8227 20.5246 29.2432 20.2353 29.19C20.1825 29.164 20.1565 29.1115 20.1037 29.1115C19.7884 29.322 19.6567 29.4004 19.289 29.1115H19.2626C19.8672 28.9535 19.9464 28.3757 19.1314 28.5862H19.0786C19.1566 28.2457 19.367 28.1401 19.5775 28.1401ZM25.4405 23.539V23.4606C25.677 23.9075 26.1768 23.96 26.6237 23.8551C27.4124 23.7495 28.5163 23.303 29.2265 23.303C29.463 23.303 30.0416 23.4086 30.0416 23.7767C30.0416 24.0392 29.9624 24.1972 29.7783 24.3281C29.5418 24.4861 28.9372 24.5654 28.6744 24.5654C28.5163 24.5654 27.8593 24.5654 27.7277 24.2757C27.6228 24.2497 27.4652 24.1972 27.2807 24.1972C26.7021 24.1972 26.0711 24.4861 25.5718 24.4861C25.4405 24.4857 25.4141 23.7495 25.4405 23.539ZM26.7021 22.5139C26.9654 22.672 27.1227 22.9617 27.4124 23.0925C27.4648 23.1717 26.7814 23.3822 26.5441 23.3822C26.0971 23.3822 25.9663 23.1717 25.9663 22.9617C25.9667 22.6715 26.3872 22.3567 26.7021 22.5139ZM15.1865 21.2783H20.6814V17.2819H29.2265V21.2783H34.7474V29.8234H29.2265V35.5808L24.9936 37.1061L20.6819 35.5808V29.8234H15.1865V21.2783Z" fill="#D06332"/>
<path fill-rule="evenodd" clip-rule="evenodd" d="M15.1865 9.52625H34.7474V16.8873H15.1865V9.52625Z" fill="#E0EBF2"/>
<path fill-rule="evenodd" clip-rule="evenodd" d="M14.6602 9V32.7674C14.6602 33.8982 15.4224 34.1871 16.0798 34.3976L24.9926 37.6314L33.853 34.3976C34.51 34.1871 35.299 33.8198 35.299 32.7674V9H14.6602ZM15.1859 30.1382H20.3655V35.5019L16.0802 33.8982C15.6333 33.7401 15.1863 33.372 15.1863 32.7674L15.1859 30.1382ZM34.7468 30.1382H29.594V35.5019L33.853 33.8982C34.2999 33.7401 34.7464 33.372 34.7464 32.7674L34.7468 30.1382ZM29.594 17.2818H34.7468V20.9101H29.594V17.2818ZM15.1859 17.2818H20.3655V20.9101H15.1859V17.2818ZM19.5245 28.14C19.8134 27.7987 19.3404 27.6931 19.1564 27.7195C19.2616 27.483 19.5769 27.2725 19.8134 27.4046C19.9978 27.2729 20.1815 27.2729 20.2343 27.5094C20.3131 27.7719 20.5496 27.7991 20.7601 27.7991C21.1806 27.7991 21.4175 27.4834 21.3387 27.1149C21.3387 26.984 21.4175 26.7468 21.5491 26.6155C21.5751 26.5623 21.1018 26.5623 21.0234 26.195C20.8129 26.3258 20.2871 26.4055 20.1559 26.195C20.1819 26.169 20.55 26.0369 20.4712 25.9053C20.3135 25.8269 20.2871 25.9053 20.1559 25.9053C20.1559 25.7472 20.4452 25.6428 20.3924 25.5904C20.3135 25.4588 20.1819 25.5904 20.0771 25.5904C20.1559 25.4588 20.2351 25.3531 20.2351 25.2223C20.1823 25.0642 19.9982 25.0642 19.8142 25.0906C19.7882 24.9326 20.1563 24.7758 20.0771 24.6437C20.0247 24.6177 19.9194 24.6437 19.8142 24.6177C19.8142 24.6177 19.867 24.6177 19.867 24.5653C19.9458 24.5121 20.0247 24.4336 20.0247 24.3548C20.0247 24.2756 19.867 24.2756 19.7878 24.2756C19.9194 23.9867 20.1031 23.9867 20.3664 23.8286C20.3924 23.7494 20.3924 23.6706 20.3139 23.6706C20.1563 23.6706 20.0247 23.5922 19.9458 23.4081C19.9458 23.3821 19.9194 23.3289 19.9458 23.3025C20.0247 23.3025 20.1035 23.3025 20.1823 23.2501C20.2875 23.2241 20.2351 23.1716 20.1823 23.1184C20.1035 23.0924 19.9982 23.1716 19.9194 23.0924C19.7878 23.0924 19.867 22.9352 19.7354 22.9352C19.4461 22.8819 19.4461 22.4614 19.6037 22.3034C19.6037 22.3034 19.8666 22.6715 19.9194 22.435C19.9194 22.1985 19.7089 22.0669 19.4989 22.0145C19.7358 21.752 20.1035 21.9088 20.2351 22.0145C20.3139 22.0669 20.3664 22.0145 20.4456 22.0145C20.4456 21.9885 20.5244 21.9361 20.4716 21.8564C20.3928 21.6984 20.3139 21.6984 20.1823 21.646C20.3928 21.4355 20.8397 21.5411 21.0238 21.83C21.1026 21.9357 21.3131 21.9084 21.3131 22.0925C21.3131 22.2765 21.129 22.0925 21.129 22.9344C21.129 23.3813 21.4183 23.9067 21.4971 23.8542C21.5495 23.7758 21.5759 23.6962 21.6284 23.5918C21.6284 23.5918 21.5495 23.5918 21.5495 23.5385C21.5755 23.3021 21.7072 23.0916 21.8384 22.8815H21.6544C21.6544 22.7235 21.8384 22.5667 21.9697 22.4346C21.9697 22.3822 21.7592 22.3822 21.7068 22.303C21.7592 22.2245 21.9957 22.0141 21.9957 21.9881C21.9168 21.9088 21.8644 21.9088 21.838 21.83C21.8644 21.7516 22.1273 21.6984 22.2061 21.4879C22.2061 21.4355 22.0749 21.3571 22.0485 21.3571C22.0749 21.3311 22.2061 21.3571 22.3378 21.3571C22.6006 21.3311 22.7847 21.3571 22.7847 21.3571C22.8111 21.3311 22.7323 21.2514 22.7323 21.173C22.9428 21.199 23.074 21.173 23.1004 20.9625C23.1528 20.9625 23.1792 21.041 23.2581 21.041C23.4685 21.1202 23.705 21.2514 23.8891 21.4355C24.0995 21.2774 24.3884 21.2774 24.6253 21.2774C24.7305 21.2514 24.7833 21.2774 24.8358 21.2774C24.6253 21.5407 25.0726 21.5407 25.2831 21.4091C25.4936 21.698 25.4936 21.9084 25.2831 22.1453C25.4143 22.2237 25.5196 22.4602 25.572 22.4342C25.8613 22.0661 26.4659 21.9348 26.3874 21.698C26.3082 21.4355 26.0977 21.4355 25.8877 21.4355C25.9401 21.2774 26.1774 21.2774 26.4663 21.2774C26.4663 21.1726 26.4403 21.067 26.4663 20.9885C26.9132 21.067 27.0973 21.5671 27.3597 21.6195C27.623 21.6455 27.9119 21.4879 28.1224 21.3307H28.1484C28.1224 21.83 28.6481 21.4355 28.8062 21.5411C28.8322 21.9881 28.07 22.0925 27.9911 22.303C27.9119 22.5134 28.0696 22.5662 28.122 22.6451C28.0696 22.6711 27.7807 22.6711 27.8071 22.8031C27.9379 22.9612 28.28 22.8815 28.3064 22.7771C28.4381 22.5138 28.228 22.435 28.228 22.3826C28.2804 22.3566 28.3861 22.435 28.4905 22.3566C28.5165 22.2774 28.4381 22.2249 28.4381 22.1985C28.5961 22.2245 28.753 22.3566 29.0427 22.277C29.1475 22.2245 29.0427 22.1461 29.0951 22.0665C29.2531 22.0925 29.4108 22.277 29.542 22.3562C29.6737 22.303 29.6213 22.1457 29.5953 21.9357C29.7525 21.9088 29.9101 22.3826 30.1206 22.435C30.199 22.461 30.2787 22.3566 30.2787 22.277C30.3311 22.277 30.3311 22.303 30.3311 22.3562C30.6208 23.3813 30.9357 22.3822 31.0937 22.5667C31.1461 22.5667 31.0937 22.5927 31.0937 22.5927C31.0153 22.6711 30.9881 22.8551 31.0153 22.9608C31.1986 23.5918 30.5416 23.7486 30.5676 23.7486C30.6208 25.1422 29.1739 25.1691 28.4385 25.011C28.649 25.4579 29.1743 25.5104 29.2271 25.9045C29.2531 26.0361 29.3056 26.4042 29.4112 26.5355C29.6217 26.6671 29.989 26.4571 30.173 26.325C30.4887 26.3782 30.4887 26.5615 30.5411 26.6147C30.8568 26.6671 31.0933 26.4567 31.3822 26.3782C31.4614 26.4567 31.225 26.7455 31.3562 26.6931C31.3822 26.6931 31.3822 26.6671 31.4354 26.6931C31.4614 26.8512 31.3562 27.0088 31.3822 27.1137C31.4354 27.1397 31.4614 27.1397 31.5663 27.1929C31.5138 27.2713 31.4354 27.2189 31.3558 27.4034C31.3818 27.4294 31.5663 27.4294 31.6455 27.4294C31.5663 27.5866 31.2774 27.7707 31.225 27.8499C31.2774 27.8759 31.3822 27.8759 31.4354 27.8759C31.4354 28.0075 31.1981 28.0339 31.1457 28.1384C31.1981 28.1644 31.225 28.1644 31.2774 28.2176C31.1981 28.3224 30.8568 28.4541 30.9353 28.5065C30.9877 28.5325 31.0669 28.5857 31.1457 28.6121C30.8833 28.8226 30.7252 28.8746 30.4363 28.8746C30.4363 28.9794 30.4363 29.0587 30.3307 29.1635C30.2783 29.2427 30.1202 29.3215 29.9886 29.3215C30.0678 29.0591 29.9886 28.8222 29.7781 28.8222C29.7781 28.8746 29.7521 28.8746 29.7521 28.9006C29.8313 29.1631 29.6997 29.4268 29.3316 29.4C29.1735 29.6112 28.6746 29.6112 28.4381 29.3215V29.2431C28.6486 29.2431 28.753 29.2431 28.9374 29.1639C28.9374 29.0591 28.9374 29.0331 28.885 28.9798C28.6746 28.9538 28.4381 29.0591 28.228 29.1639C28.202 28.875 28.3861 28.5069 28.6486 28.5069C28.727 28.2444 28.7534 28.3228 28.7534 28.2444C28.6486 28.1652 28.4385 28.1388 28.2804 28.1388C28.228 28.1388 28.202 28.1648 28.1488 28.1388C28.3593 27.7182 28.675 27.6918 28.9374 27.7975C29.0167 27.7182 29.1479 27.6394 29.2271 27.6918C29.3852 27.6918 29.4112 27.9543 29.516 28.0339C29.6741 28.0864 29.8581 27.8499 29.8581 27.6918C29.8581 27.3497 29.306 27.2973 29.0171 27.3497C28.7538 27.4029 28.5173 27.3497 28.2808 27.1925C28.1228 27.0608 27.9387 26.9292 27.7815 26.7719C27.7283 26.7451 27.7283 26.7719 27.7283 26.8244C27.7023 26.9292 27.6234 27.1132 27.7283 27.2713C27.8599 27.3497 28.1228 27.4294 28.1488 27.6394C28.1228 27.7178 28.1228 27.8499 28.018 27.9283C27.9123 28.0075 27.7283 28.0864 27.7283 28.244C27.7023 28.4545 27.7283 28.5065 27.9123 28.717C27.7283 28.7962 27.4918 28.717 27.3602 28.6645C27.3341 28.6645 27.2029 28.901 27.1769 28.9794C27.0453 29.0327 26.9664 28.7169 26.9136 28.743C26.8876 28.7962 26.7556 28.9534 26.7556 29.0326C26.6771 29.0587 26.5983 28.743 26.5451 28.717C26.4667 28.7962 26.3879 28.901 26.3879 29.0326C26.3086 28.9794 26.2562 28.901 26.1774 28.8222C26.0717 28.953 25.8877 29.0327 25.73 28.9794C25.6776 28.9534 25.8089 28.8222 25.756 28.7962C25.756 28.743 25.73 28.7962 25.73 28.7962C25.6512 28.901 25.1519 28.901 25.1519 28.7962C25.2835 28.7169 25.4147 28.5857 25.3623 28.4541C25.3623 28.3756 25.3099 28.4008 25.2835 28.4008C25.1255 28.5065 25.0466 28.7165 24.8626 28.8222C24.7049 28.9006 24.5737 28.8746 24.4945 28.743C24.2576 28.7169 24.0475 28.717 23.837 28.901C23.837 28.875 23.8106 28.875 23.8106 28.875C23.8895 28.4545 24.0211 28.3756 24.2576 28.2964C24.2576 28.218 24.2576 28.1384 24.1788 28.0339C24.0475 27.9547 23.837 28.0079 23.7054 28.0864C23.6266 28.0079 23.8895 27.4294 24.2576 27.6394C24.284 27.6394 24.284 27.5862 24.3364 27.5602C24.2576 27.2977 24.0999 27.2977 23.9159 27.4029C23.8899 27.0608 24.284 26.8244 24.5469 26.9824C24.5733 26.9292 24.6521 26.9292 24.7045 26.9032C24.915 26.9032 24.9414 27.1137 25.0726 27.1929C25.1515 27.2189 25.3615 27.2713 25.4407 27.4034C25.572 27.5866 25.6772 27.5866 25.9401 27.6398C26.0982 27.6398 26.2558 27.6398 26.3879 27.5866C26.6767 27.5082 26.6767 27.1397 26.4663 27.1397C26.1774 27.1137 25.9401 27.1929 25.6776 27.1137C25.2835 27.0088 25.1519 26.9032 25.1519 26.4567C24.8626 26.5615 24.1003 26.8248 23.9159 26.8512C23.837 26.9828 23.7054 27.0092 23.5478 27.0616C23.4689 27.1141 23.7054 27.3505 23.7054 27.3505C23.7054 27.4298 23.1008 27.7186 23.1536 27.7186C23.1796 27.7711 23.2325 27.7711 23.2589 27.7979C23.2589 27.8763 23.022 27.8763 22.996 27.9287C23.0224 27.9547 23.0748 28.0079 23.1012 28.0079C22.996 28.1388 22.7855 28.0864 22.6543 28.2184C22.5755 28.2444 22.4438 28.2968 22.3386 28.3232C22.2333 28.3765 22.365 28.4549 22.3386 28.5073C21.6552 28.6653 21.5499 28.3765 21.3919 28.4017C21.3131 28.4017 21.2078 28.5073 21.129 28.5865C21.1814 28.823 20.9714 29.2435 20.6821 29.2435C20.6032 29.1643 20.7609 29.0595 20.6821 28.9014C20.6821 28.8754 20.6296 28.8754 20.6032 28.8754C20.472 28.8754 20.5248 29.2699 20.2355 29.1903C20.1827 29.1903 20.1567 29.1119 20.1039 29.1643C19.7886 29.3223 19.6045 29.4008 19.2628 29.1119C19.8674 28.9538 19.9466 28.3761 19.0788 28.5865C19.13 28.2456 19.34 28.14 19.5245 28.14ZM25.4399 23.5389C25.4399 23.4865 25.4399 23.4865 25.4923 23.4865C25.6764 23.9595 26.1762 23.9863 26.6231 23.9071C27.4642 23.7762 28.5157 23.3025 29.2259 23.3025C29.4624 23.3025 30.041 23.4081 30.041 23.7762C30.041 24.0387 29.9617 24.1968 29.7777 24.3276C29.5412 24.4856 28.9366 24.5649 28.6737 24.5649C28.5157 24.5649 27.9111 24.5117 27.727 24.2752C27.6222 24.1968 27.4646 24.1435 27.2801 24.1435C26.7015 24.1435 26.0705 24.4856 25.5712 24.4856C25.4399 24.4856 25.4135 23.7494 25.4399 23.5389ZM26.7015 22.5138C26.912 22.6719 27.096 22.9616 27.4118 23.1184C27.4118 23.1716 26.7808 23.3817 26.5435 23.3817C26.0965 23.3817 25.9657 23.1712 25.9657 22.9612C25.9661 22.7239 26.3866 22.3566 26.7015 22.5138ZM15.1859 21.2782H20.6808V17.2818H29.2259V21.2782H34.7468V29.8233H29.2259V35.5807L24.993 37.106L20.6812 35.5807V29.8233H15.1859V21.2782Z" fill="#0C0E0F"/>
<path fill-rule="evenodd" clip-rule="evenodd" d="M14.9766 36.0805C14.9766 36.0805 15.6864 35.7647 16.1861 35.9224L24.9413 39.077L33.4335 36.0272C34.301 35.7123 34.958 36.0272 34.958 36.1329V39.4723C34.6691 39.3143 34.0905 39.1042 33.4335 39.3667L24.9413 42.3116L16.5018 39.2874C15.8444 39.077 15.3447 39.3143 14.977 39.4455L14.9766 36.0805Z" fill="#E7EEF3"/>
<path fill-rule="evenodd" clip-rule="evenodd" d="M34.432 38.2891C34.1695 38.42 33.775 38.5516 33.5121 38.6304H33.4337C33.4861 38.4996 33.5121 38.3415 33.4861 38.2099C33.3544 37.9734 33.2756 37.6845 33.144 37.3948C33.118 37.2632 32.9859 37.2368 32.9075 37.1584H32.9335C33.196 37.0267 33.5645 36.9479 33.801 36.8163C33.8802 36.7903 33.959 36.7378 34.0643 36.7903C34.0903 36.8959 34.2215 36.9743 34.2215 37.106C34.0907 37.1844 34.011 37.0527 33.9326 37.0267C33.7746 36.9743 33.5645 37.0527 33.4064 37.1584C33.354 37.1584 33.4064 37.1844 33.4064 37.2368C33.4333 37.3424 33.4857 37.4741 33.5121 37.6049C33.6961 37.5525 33.8802 37.5265 33.9326 37.3424C33.9326 37.3164 33.9586 37.3164 34.011 37.3164C34.0903 37.3424 34.0643 37.4213 34.0903 37.4745C34.0903 37.5529 34.1687 37.6317 34.1687 37.6849C34.0638 37.7109 33.9582 37.5533 33.8538 37.6317C33.7746 37.6317 33.6957 37.685 33.6165 37.711C33.6433 37.9214 33.6957 38.1315 33.8006 38.2895C33.9586 38.3419 34.3003 38.2627 34.3791 37.9998C34.4316 37.9214 34.3791 37.8158 34.4584 37.7634C34.5108 37.711 34.5368 37.8158 34.5368 37.8418C34.5372 37.973 34.5896 38.2619 34.432 38.2891ZM32.697 38.9197C32.671 38.9197 32.539 38.9981 32.4073 38.9981C32.4073 38.9457 32.4606 38.9197 32.4606 38.8141C32.539 38.5516 32.2233 37.973 32.0924 37.6045C31.9608 37.5521 31.83 37.7101 31.8027 37.815C31.7243 37.841 31.7503 37.973 31.6719 37.999C31.5663 37.999 31.6459 37.8942 31.5927 37.815C31.5667 37.7626 31.5143 37.7101 31.5143 37.6309C31.5143 37.6049 32.4077 37.316 32.7498 37.184C32.8555 37.158 32.8555 37.3156 32.9339 37.342C32.9339 37.4204 33.0395 37.5261 32.9339 37.6045C32.8555 37.6045 32.8555 37.4737 32.7758 37.4737C32.671 37.3944 32.5394 37.4204 32.4077 37.4737C32.3293 37.4204 32.3817 37.5261 32.3817 37.5521C32.4874 37.8942 32.619 38.3407 32.7763 38.6296C32.8295 38.7088 32.9343 38.7088 32.9867 38.7877C32.9335 38.8145 32.8287 38.8145 32.697 38.9197ZM31.5663 39.235C31.1981 38.9985 30.7776 38.6564 30.4091 38.3675C30.4091 38.3415 30.3567 38.3415 30.3567 38.3675C30.5407 38.7097 30.5671 39.077 30.8044 39.3927C30.8568 39.4451 30.9877 39.4451 30.9353 39.5243C30.8569 39.5767 30.7772 39.5243 30.6988 39.6027C30.6204 39.5767 30.5407 39.682 30.4883 39.5767C30.62 39.2346 30.4091 38.9197 30.3303 38.5776C30.2779 38.4992 30.2519 38.3671 30.1986 38.2619C30.0414 38.2887 29.9622 38.446 29.9097 38.5776C29.8573 38.656 29.8313 38.5776 29.7781 38.5516C29.6997 38.4992 29.6209 38.42 29.5156 38.42C29.3829 38.4452 29.2572 38.4991 29.1475 38.578C29.1735 38.7361 29.2267 38.9201 29.3056 39.025C29.3056 39.0774 29.3316 39.0774 29.3848 39.0774C29.4632 39.025 29.6213 38.999 29.6737 38.8149H29.6997C29.7781 38.9205 29.8313 39.0254 29.8313 39.1046C29.7781 39.157 29.7521 39.0778 29.6997 39.1046C29.5949 39.1046 29.4632 39.157 29.3316 39.2094C29.4108 39.3935 29.4632 39.5775 29.542 39.7356C29.5953 39.814 29.7525 39.814 29.8317 39.7616C30.0682 39.6832 30.199 39.4459 30.199 39.2094H30.2783C30.3567 39.3151 30.3567 39.4727 30.4091 39.6039C30.4091 39.6564 30.4091 39.6832 30.3567 39.7356C30.0418 39.814 29.7781 39.8936 29.4632 40.0245C29.4108 40.0245 29.3316 40.0505 29.2527 40.1037C29.2267 40.0505 29.2267 40.1037 29.2267 40.0505C29.1735 40.0245 29.2267 40.0245 29.2267 39.9721C29.3316 39.7356 29.1735 39.4727 29.0427 39.1046C29.0167 38.9989 28.937 38.6568 28.753 38.6568C28.727 38.6568 28.727 38.7101 28.727 38.7101V38.7885C28.6746 38.7885 28.5961 38.7885 28.5689 38.8145C28.5689 38.8145 28.5165 38.8145 28.5165 38.8669C28.5165 39.025 28.5957 39.1566 28.6482 39.3147C28.753 39.5771 28.8062 39.9192 29.0427 40.1033C29.0951 40.1293 29.0427 40.1293 29.0167 40.1817C28.885 40.2341 28.727 40.2341 28.5961 40.3134C28.5169 40.2601 28.5961 40.1293 28.5961 40.0501C28.5961 39.9192 28.5693 39.7612 28.5169 39.6031C28.4385 39.4451 28.3861 39.2874 28.3064 39.077C28.2804 39.1562 28.2804 39.2874 28.228 39.3667C28.202 39.6555 28.202 39.9713 28.202 40.2601C28.202 40.3134 28.1488 40.3134 28.1228 40.3134C28.0704 40.3134 28.018 40.2601 28.018 40.2341C27.8075 40.0237 27.4658 39.5771 27.2029 39.3931C27.1769 39.3671 27.2029 39.4723 27.2029 39.5247C27.3337 39.8136 27.4134 40.1293 27.571 40.3922C27.6234 40.4706 27.6494 40.4978 27.7283 40.5502C27.7283 40.6027 27.7815 40.6026 27.7283 40.6026C27.6499 40.6287 27.571 40.6287 27.4918 40.6811C27.4134 40.6811 27.3337 40.7867 27.2553 40.7079C27.3602 40.4974 27.2813 40.2601 27.2029 40.0501C27.1237 39.8136 27.0449 39.6031 26.9924 39.3931L26.9664 39.3671C26.8348 39.4455 26.8872 39.5251 26.7824 39.656C26.7824 39.6828 26.7556 39.6828 26.7556 39.6828C26.7032 39.6035 26.7556 39.5247 26.7556 39.4455C26.7556 39.3147 26.8872 39.1566 26.9668 39.1042C27.1241 39.0774 27.2817 39.0774 27.4138 39.209C27.6243 39.3931 27.8083 39.656 28.0184 39.84H28.0708C28.0708 39.5775 28.1232 39.2354 28.1492 38.999C28.2024 38.9205 28.2284 38.7365 28.3597 38.7101C28.4389 38.6568 28.5177 38.6308 28.597 38.6568C28.6494 38.6308 28.7278 38.5784 28.7542 38.552C29.0963 38.4204 29.386 38.2895 29.7009 38.2099L29.7533 38.2623C29.7793 38.2891 29.7793 38.368 29.859 38.4204C29.859 38.342 29.9114 38.2623 29.9898 38.1839C30.1214 38.0523 30.3579 37.9998 30.542 38.1315C30.7784 38.2623 31.2782 38.7361 31.4627 38.7885C31.4367 38.578 31.3046 38.368 31.2262 38.1839C31.1994 38.0523 31.0945 37.895 30.9889 37.895C30.9365 37.895 30.9365 37.8418 30.9365 37.8158C31.0996 37.7599 31.2667 37.7162 31.4362 37.6849C31.4622 37.7109 31.383 37.8158 31.383 37.8954C31.4362 38.2103 31.5147 38.4468 31.6463 38.7365C31.6723 38.9205 31.7511 39.0254 31.8035 39.157C31.8296 39.235 31.6455 39.3142 31.5663 39.235ZM26.2558 39.8136C26.2298 39.8136 26.0717 39.6031 25.8877 39.6555C25.8089 39.6824 25.6512 39.7348 25.6512 39.8136C25.756 40.1033 25.8089 40.2341 25.8877 40.4978C25.9401 40.7083 26.0982 40.9972 26.2298 41.0492C26.2558 41.0492 26.2558 41.0752 26.2558 41.0752C26.1502 41.1544 25.9669 41.1544 25.8613 41.2068C25.8089 41.2328 25.7296 41.2853 25.6508 41.2853C25.5984 41.2068 25.7296 41.1544 25.7296 41.0748C25.7296 40.9439 25.6772 40.8383 25.572 40.497C25.5196 40.339 25.4143 39.9184 25.3615 39.8924C25.2039 39.8924 25.0458 39.9184 24.9934 40.1029C24.941 40.1289 24.9146 40.2337 24.9146 40.3134H24.7833C24.7305 40.1293 24.7305 39.9712 24.5729 39.8396C24.5465 39.8136 24.336 39.7612 24.2048 39.7348C24.0471 39.6824 24.0995 39.8928 24.0471 39.9712C24.0207 40.0497 23.8895 40.1817 24.0471 40.2601C24.1784 40.3134 24.284 40.3394 24.4676 40.3134C24.4941 40.3394 24.4941 40.3918 24.4941 40.4182C24.4676 40.4974 24.4676 40.6022 24.3888 40.6287C24.2836 40.6027 24.2836 40.4978 24.2048 40.4706C24.1259 40.4182 24.0471 40.3922 23.9679 40.3398H23.8891C23.8366 40.5502 23.705 40.7603 23.7574 40.9184C23.8098 40.9968 24.0467 41.0756 24.1255 41.1288C24.336 41.1548 24.5465 41.0756 24.6513 40.9448C24.7037 40.9188 24.7301 40.8655 24.7829 40.9448V40.9972C24.7041 41.1288 24.6249 41.3393 24.4672 41.3653C24.1255 41.2336 23.6258 41.0756 23.2581 40.9184C23.2317 40.8651 23.2581 40.8651 23.2581 40.8651C23.4685 40.8651 23.6258 40.3398 23.6786 40.2341C23.7046 39.9717 23.8098 39.8396 23.8098 39.6555C23.8098 39.5771 23.7046 39.5247 23.7046 39.4451C23.8362 39.4451 23.9675 39.5243 24.1251 39.5767C24.2832 39.6027 24.4668 39.6824 24.6245 39.7348C24.7297 39.7608 24.8614 39.8396 25.045 39.8132C25.4395 39.6824 25.8076 39.5243 26.1762 39.3927C26.2546 39.5243 26.3866 39.7608 26.3334 39.8132H26.2558V39.8136ZM22.9956 39.235C22.8643 39.235 22.8115 39.3931 22.7851 39.4723C22.6799 39.6031 22.6539 39.7348 22.6011 39.8928C22.5222 40.1033 22.4434 40.3398 22.2329 40.4182C22.1541 40.4706 22.0753 40.4706 21.9961 40.4706C21.7596 40.4706 21.3127 40.3134 21.2598 40.0237C21.207 39.8132 21.3387 39.6031 21.4175 39.3927C21.4699 39.2086 21.6279 38.9981 21.5491 38.7357C21.4967 38.7357 21.4967 38.7097 21.4967 38.6564C21.5491 38.6304 21.6279 38.6564 21.6279 38.6564C21.7596 38.7357 21.8648 38.7881 21.9961 38.8145C22.0485 38.8145 22.1541 38.8145 22.1277 38.9201C22.0489 38.9461 21.9172 38.9985 21.8384 39.1042C21.7072 39.3667 21.6279 39.6555 21.5495 39.9192C21.4971 40.0501 21.5755 40.1817 21.7072 40.2605C21.786 40.3398 21.9701 40.3398 22.0753 40.3398C22.3382 40.3138 22.4434 39.7612 22.5222 39.5771C22.5747 39.3931 22.6539 39.235 22.5222 39.1042C22.5222 39.0774 22.5222 39.025 22.5746 39.025C22.6799 39.0774 22.8639 39.1566 22.9952 39.209C23.022 39.2086 23.022 39.235 22.9956 39.235ZM21.3131 38.6564C21.0502 38.7881 20.9714 39.077 20.8921 39.3667C20.8133 39.5247 20.7345 39.6824 20.6292 39.8396C20.6292 39.8928 20.6292 39.9188 20.6028 39.9712C20.5504 39.9712 20.4716 39.9712 20.4452 39.9188C20.4452 39.9188 20.3924 39.8928 20.3924 39.8396C20.3254 39.6154 20.2728 39.3871 20.2347 39.1562C20.2347 38.9981 20.1819 38.7881 20.1559 38.63C20.1559 38.5776 20.1031 38.446 20.0771 38.446C19.9458 38.6564 19.9194 38.8141 19.8142 39.0246C19.7882 39.2086 19.7094 39.4451 19.7358 39.5243C19.7882 39.5767 19.8142 39.6027 19.7882 39.6551C19.7358 39.7344 19.7094 39.6551 19.6041 39.6027C19.4993 39.6027 19.4201 39.5767 19.3417 39.5243C19.3417 39.4719 19.3677 39.4451 19.4205 39.4451C19.5781 39.3667 19.6574 39.1038 19.7098 38.9457C19.7886 38.7353 19.8146 38.63 19.9202 38.4196C19.9466 38.3671 19.9466 38.2887 19.9202 38.2887C19.815 38.2619 19.7362 38.2887 19.6574 38.3671C19.6045 38.3671 19.6045 38.3671 19.6045 38.3411C19.6045 38.2619 19.7098 38.2619 19.7362 38.2095C19.8146 38.1311 19.9466 38.0787 20.1039 38.1311C20.1827 38.1311 20.2879 38.1835 20.3144 38.2891C20.472 38.6304 20.5248 38.9985 20.5508 39.3667C20.6032 39.3927 20.5508 39.4723 20.6032 39.5247C20.6821 39.3142 20.7613 39.1042 20.8401 38.9201C20.8401 38.7885 20.9454 38.578 20.8137 38.4204C20.8137 38.4204 20.8401 38.4204 20.8401 38.368C21.0242 38.4464 21.2082 38.4996 21.3399 38.5784C21.3915 38.6304 21.3391 38.6304 21.3131 38.6564ZM19.1308 39.4451C18.9991 39.3927 18.7887 39.3667 18.6314 39.3142C18.6314 39.2874 18.5526 39.235 18.5786 39.235C18.6314 39.209 18.6838 39.209 18.6838 39.209C18.8419 39.1042 18.7891 38.9201 18.7891 38.7361C18.6253 38.7034 18.4663 38.6503 18.3157 38.578C18.1845 38.7097 18.1053 38.9201 18.1317 39.0774C18.1053 39.1566 18.0264 39.1042 17.9736 39.0774C17.8948 39.025 17.8688 39.025 17.7631 38.999C17.7371 38.999 17.6579 38.9465 17.6579 38.9205C17.6839 38.8149 17.7367 38.9205 17.8684 38.8149C18.1313 38.5524 18.3941 38.1839 18.6306 37.8418C18.683 37.8158 18.499 37.8158 18.4201 37.8418C18.3413 37.8418 18.3149 37.921 18.2625 37.895V37.8418C18.4201 37.711 18.6306 37.6053 18.8411 37.6845C19.0515 37.763 19.0775 37.9734 19.0775 38.1839V39.209C19.0775 39.235 19.1304 39.3671 19.2092 39.3931C19.2096 39.4451 19.1568 39.4451 19.1308 39.4451ZM18.7887 38.578C18.6834 38.552 18.4998 38.4996 18.4205 38.42C18.473 38.2619 18.631 38.1311 18.7623 37.973C18.7887 38.0518 18.7887 38.5516 18.7887 38.578ZM18.0264 37.5525C17.9736 37.5525 17.8948 37.5265 17.8688 37.5525C17.7635 37.6309 17.6843 37.8414 17.6583 37.9994C17.5531 38.2619 17.4478 38.4464 17.3954 38.6564C17.3954 38.7357 17.4743 38.7881 17.4483 38.8669C17.3954 38.9201 17.3694 38.8669 17.3166 38.8669C17.2378 38.8145 17.0801 38.7885 17.0013 38.7097C16.9485 38.7097 16.9225 38.6564 16.9485 38.6564C17.0013 38.6304 17.2114 38.4992 17.2378 38.3675C17.3166 38.1311 17.3954 37.8946 17.4743 37.6313H17.4483C17.1065 37.8946 16.8437 38.1311 16.5808 38.42C16.5284 38.4992 16.502 38.446 16.4491 38.42C16.4491 38.2619 16.4491 38.1311 16.4231 37.763C16.4231 37.7105 16.4231 37.316 16.3707 37.2368C16.265 37.4268 16.1853 37.6301 16.1338 37.8414C16.055 37.9994 15.9762 38.2095 16.0814 38.3411C16.0814 38.3671 16.0814 38.3671 16.0554 38.3671C15.8974 38.3411 15.7137 38.2615 15.5557 38.2091V38.1831C15.7661 38.1307 15.8974 37.841 16.003 37.6309C16.0818 37.4204 16.2135 37.2364 16.2919 37.0263C16.2659 36.9739 16.1867 36.9479 16.1342 36.8955C16.003 36.8955 15.9766 36.9739 15.845 37.0263C15.819 36.9739 15.845 36.9479 15.845 36.9479C15.9766 36.7898 16.1342 36.7374 16.2919 36.7899C16.4235 36.8159 16.6336 36.8955 16.6336 37.0523C16.7124 37.342 16.7124 37.7101 16.7124 37.999V38.0514C17.0805 37.7626 17.317 37.4737 17.6587 37.342C17.8168 37.316 17.8956 37.342 17.974 37.3944C18.0268 37.3944 18.0528 37.4737 18.0528 37.5261C18.0528 37.5525 18.0528 37.5525 18.0264 37.5525Z" fill="#0C0E0F"/>
<path fill-rule="evenodd" clip-rule="evenodd" d="M15.1595 36.2377C15.1595 36.2377 15.6853 35.9489 16.185 36.1593L24.9402 39.3147L33.4324 36.2381C34.2999 35.9493 34.7989 36.2121 34.7989 36.2381V39.2091C34.51 39.025 34.0894 38.9202 33.4324 39.1567L24.9402 42.154L16.5007 39.0774C15.8433 38.8149 15.5016 39.025 15.1595 39.2091V36.2377ZM14.6602 36.0013C14.6602 35.9228 15.5016 35.4759 16.5007 35.8432L24.9402 38.7881L33.4324 35.8432C34.4307 35.4759 35.299 36.0013 35.299 36.0013V39.9193C35.0886 39.8137 34.2999 39.3147 33.4324 39.6036L24.9402 42.6009L16.5007 39.5776C15.6857 39.2879 14.9759 39.8141 14.6602 39.9197V36.0013Z" fill="#0C0E0F"/>
<path fill-rule="evenodd" clip-rule="evenodd" d="M15.2656 36.3693C15.2656 36.3693 15.713 36.1329 16.1859 36.2909L24.9411 39.4455L33.4333 36.3697C34.2211 36.1333 34.7213 36.2913 34.7213 36.3173V39.025C34.4316 38.8669 34.0643 38.7885 33.4333 39.025L24.9411 41.9699L16.5016 38.9466C15.8966 38.7361 15.6337 38.8673 15.2656 39.025V36.3693ZM15.3973 36.4478C15.3973 36.4478 15.7654 36.2373 16.1859 36.3953L24.9411 39.5767L33.4333 36.527C34.0903 36.2905 34.5897 36.3689 34.5897 36.3953V38.8141C34.3532 38.7093 33.9587 38.7093 33.4333 38.8665L24.9411 41.8639L16.5016 38.8141C15.923 38.63 15.7654 38.7093 15.3973 38.8665V36.4478ZM31.067 13.8639V15.4944L30.4364 15.0999V14.2852L31.067 13.8639Z" fill="#B2A43F"/>
<path fill-rule="evenodd" clip-rule="evenodd" d="M30.8821 14.2057V15.1788L30.4355 14.8891V14.4686L30.8821 14.2057Z" fill="#0C0E0F"/>
<path fill-rule="evenodd" clip-rule="evenodd" d="M30.8561 14.2321V15.1263L30.4355 14.8635V14.4685L30.8561 14.2321Z" fill="#FAE935"/>
<path fill-rule="evenodd" clip-rule="evenodd" d="M31.0661 10.7617V12.4442L30.4355 12.0237V11.1558L31.0661 10.7617Z" fill="#B2A43F"/>
<path fill-rule="evenodd" clip-rule="evenodd" d="M30.8821 11.1299V12.0502L30.4355 11.7873V11.3664L30.8821 11.1299Z" fill="#0C0E0F"/>
<path fill-rule="evenodd" clip-rule="evenodd" d="M30.8561 11.1559V12.0238L30.4355 11.7345V11.4188L30.8561 11.1559Z" fill="#FAE935"/>
<path fill-rule="evenodd" clip-rule="evenodd" d="M17.8682 24.3547L18.578 23.9866L18.2363 24.696L19.0513 24.9585L18.2363 25.2742L18.578 25.9848L17.8682 25.6427L17.6049 26.4054L17.316 25.6427L16.5273 25.9848L16.9479 25.2742L16.1328 24.9585L16.9479 24.696L16.5798 23.9866L17.316 24.3547L17.6049 23.5389L17.8682 24.3547ZM25.2297 18.7806L25.9663 18.4125L25.5978 19.1487L26.4392 19.4376L25.5978 19.7005L25.9663 20.4631L25.2297 20.0426L24.9932 20.8836L24.7039 20.0426L23.9148 20.4631L24.3354 19.7005L23.5207 19.4376L24.3354 19.1487L23.9677 18.4125L24.7039 18.7806L24.9932 18.0179L25.2297 18.7806ZM32.5908 24.3547L33.3274 23.9866L32.9329 24.696L33.7739 24.9585L32.9329 25.2742L33.3274 25.9848L32.5908 25.6427L32.3019 26.4054L32.0394 25.6427L31.2768 25.9848L31.6713 25.2742L30.8562 24.9585L31.6713 24.696L31.2768 23.9866L32.0394 24.3547L32.3019 23.5389L32.5908 24.3547ZM25.2297 31.2953L25.9663 30.8748L25.5978 31.6634L26.4392 31.8999L25.5978 32.1888L25.9663 32.9254L25.2297 32.5569L24.9932 33.3459L24.7039 32.5569L23.9148 32.9254L24.3354 32.1888L23.5207 31.8999L24.3354 31.6634L23.9677 30.8748L24.7039 31.2953L24.9932 30.4542L25.2297 31.2953Z" fill="#B2A43F"/>
<path fill-rule="evenodd" clip-rule="evenodd" d="M17.9472 24.1176L18.7883 23.7763L18.473 24.6438L19.3409 24.9587L18.473 25.3532L18.7883 26.195L17.9472 25.8269L17.6055 26.6944L17.2374 25.8269L16.3699 26.195L16.7116 25.3532L15.8438 24.9587L16.7116 24.6438L16.3699 23.7763L17.2374 24.1176L17.6055 23.2501L17.9472 24.1176ZM17.8684 24.3549L18.5518 24.0392L18.1837 24.7226L18.9723 24.9591L18.1837 25.2223L18.5518 25.9058L17.8684 25.5909L17.6055 26.3795L17.3162 25.5909L16.58 25.9582L17.0009 25.2223L16.2123 24.9591L17.0009 24.7226L16.6328 24.0392L17.3162 24.3549L17.6055 23.6186L17.8684 24.3549Z" fill="#0C0E0F"/>
<path fill-rule="evenodd" clip-rule="evenodd" d="M25.4137 18.3069L26.5441 17.8339L26.0971 18.9911L27.2543 19.438L26.0971 19.885L26.5441 20.9897L25.4137 20.542L24.9404 21.6992L24.4934 20.542L23.3631 20.9897L23.8364 19.885L22.6797 19.438L23.8364 18.9911L23.3895 17.8339L24.4939 18.3069L24.862 17.4658H25.0724L25.4137 18.3069ZM25.3609 18.4649L26.3336 18.0444L25.9663 19.0175L26.9914 19.438L25.9663 19.8062L26.3336 20.8313L25.3609 20.4367L24.9928 21.4099L24.5723 20.4367L23.5467 20.8313L23.9673 19.8062L23.021 19.438L23.9673 19.0175L23.5467 18.0444L24.5723 18.4649L24.914 17.5975H25.0452L25.3609 18.4649ZM32.7488 23.8286L33.8796 23.3817L33.4326 24.5116L34.589 24.9586L33.4326 25.4323L33.8796 26.5623L32.7488 26.1153L32.3019 27.2201L31.8289 26.1153L30.6982 26.5623L31.1975 25.4323L30.0412 24.9586L31.1975 24.5116L30.7246 23.3817L31.8294 23.8286L32.3023 22.7239L32.7488 23.8286ZM32.6964 23.9867L33.6955 23.5921L33.275 24.6173L34.3001 24.9586L33.275 25.3799L33.6955 26.379L32.6964 25.9845L32.3019 26.9304L31.9074 25.9573L30.8558 26.3786L31.3028 25.3795L30.3297 24.9582L31.3028 24.5644L30.8822 23.5913L31.9074 23.9859L32.3019 22.9607L32.6964 23.9867ZM25.4137 30.7428L26.5441 30.2958L26.0971 31.453L27.2543 31.8999L26.0971 32.3469L26.5441 33.504L25.4137 33.0571L24.9404 34.1611L24.4934 33.0571L23.3631 33.504L23.8364 32.3469L22.6797 31.8999L23.8364 31.453L23.3895 30.2958L24.4939 30.7428L24.9408 29.6388L25.4137 30.7428ZM25.3609 30.9272L26.3336 30.5067L25.9663 31.4798L26.9914 31.9003L25.9663 32.3209L26.3336 33.294L25.3609 32.8735L24.9928 33.8726L24.5723 32.8735L23.5467 33.294L23.9673 32.3209L23.021 31.9003L23.9673 31.4798L23.5467 30.5067L24.5723 30.9272L24.9928 29.9021L25.3609 30.9272Z" fill="#FAE935"/>
<path fill-rule="evenodd" clip-rule="evenodd" d="M25.3091 18.5702L26.1769 18.2021L25.8612 19.1228L26.7023 19.4377L25.8612 19.7798L26.1769 20.6208L25.3091 20.3051L24.9938 21.1734L24.6257 20.3051L23.7054 20.6208L24.0999 19.7798L23.2324 19.4377L24.0999 19.1228L23.7582 18.2021L24.6257 18.5702L24.9938 17.7291L25.3091 18.5702ZM25.2302 18.8331L25.9397 18.465L25.5719 19.2012L26.3342 19.4377L25.5719 19.7001L25.9397 20.3844L25.2302 20.0422L24.9934 20.8309L24.7041 20.0422L23.9678 20.4368L24.3888 19.7005L23.6001 19.4381L24.3888 19.2016L24.0207 18.4654L24.7045 18.8335L24.9938 18.0448L25.2302 18.8331ZM32.671 24.1175L33.512 23.7762L33.1439 24.6437L34.0114 24.9586L33.1439 25.3531L33.512 26.195L32.671 25.8269L32.3029 26.6943L31.9607 25.8269L31.0673 26.195L31.4354 25.3531L30.5671 24.9586L31.4354 24.6437L31.0933 23.7762L31.9607 24.1175L32.3029 23.25L32.671 24.1175ZM32.5913 24.3548L33.2756 24.0391L32.9074 24.7225L33.6961 24.959L32.9074 25.2223L33.2756 25.9057L32.5913 25.5908L32.3025 26.3794L32.04 25.5908L31.3037 25.9581L31.6719 25.2223L30.9356 24.959L31.6719 24.7225L31.3562 24.0391L32.0404 24.3548L32.3029 23.6186L32.5913 24.3548ZM25.3091 31.0325L26.1769 30.6644L25.8612 31.5318L26.7023 31.9L25.8612 32.2421L26.1769 33.0831L25.3091 32.7674L24.9938 33.6349L24.6257 32.7674L23.7054 33.1355L24.0999 32.2421L23.2324 31.9L24.0999 31.5318L23.7582 30.6644L24.6257 31.0325L24.9938 30.1906L25.3091 31.0325ZM25.2302 31.2954L25.9397 30.9533L25.5719 31.6635L26.3342 31.9L25.5719 32.1364L25.9397 32.8727L25.2302 32.5045L24.9934 33.2932L24.7041 32.5045L23.9678 32.8727L24.3888 32.1364L23.6001 31.9L24.3888 31.6635L24.0207 30.9533L24.7045 31.2954L24.9938 30.5067L25.2302 31.2954Z" fill="#0C0E0F"/>
<path fill-rule="evenodd" clip-rule="evenodd" d="M15.3447 21.4359H20.8392V17.4395H29.0946V21.4359H34.6416V29.6389H29.0946V35.4755L24.9933 36.9476L20.8392 35.4755V29.6389H15.3447V21.4359ZM15.5024 21.62H21.0233V17.5975H28.937V21.62H34.4315V29.4812H28.937V35.3443L24.9933 36.7379L21.0233 35.3443V29.4812H15.5024V21.62Z" fill="#FAE935"/>
<path fill-rule="evenodd" clip-rule="evenodd" d="M19.5248 28.14C19.8137 27.7987 19.3408 27.693 19.1567 27.7194C19.2619 27.483 19.5772 27.2725 19.8137 27.4046C19.9982 27.2729 20.1818 27.2729 20.2346 27.5094C20.3135 27.7719 20.5499 27.7991 20.7604 27.7991C21.1809 27.7991 21.4178 27.4834 21.339 27.1149C21.339 26.984 21.4178 26.7467 21.5495 26.6155C21.5755 26.5623 21.1021 26.5623 21.0237 26.195C20.8132 26.3258 20.2875 26.4054 20.1562 26.195C20.1822 26.169 20.5503 26.0369 20.4715 25.9053C20.3139 25.8269 20.2875 25.9053 20.1562 25.9053C20.1562 25.7472 20.4455 25.6428 20.3927 25.5904C20.3139 25.4587 20.1822 25.5904 20.0774 25.5904C20.1562 25.4587 20.2355 25.3531 20.2355 25.2223C20.1826 25.0642 19.9986 25.0642 19.8145 25.0906C19.7885 24.9326 20.1566 24.7757 20.0774 24.6437C20.025 24.6177 19.9198 24.6437 19.8145 24.6177C19.8145 24.6177 19.8673 24.6177 19.8673 24.5653C19.9462 24.512 20.025 24.4336 20.025 24.3548C20.025 24.2756 19.8673 24.2756 19.7881 24.2756C19.9198 23.9867 20.1034 23.9867 20.3667 23.8286C20.3927 23.7494 20.3927 23.6706 20.3143 23.6706C20.1566 23.6706 20.025 23.5922 19.9462 23.4081C19.9462 23.3821 19.9198 23.3289 19.9462 23.3025C20.025 23.3025 20.1038 23.3025 20.1826 23.25C20.2879 23.224 20.2355 23.1716 20.1826 23.1184C20.1038 23.0924 19.9986 23.1716 19.9198 23.0924C19.7881 23.0924 19.8673 22.9352 19.7357 22.9352C19.4464 22.8819 19.4464 22.4614 19.6041 22.3033C19.6041 22.3033 19.8669 22.6715 19.9198 22.435C19.9198 22.1985 19.7093 22.0669 19.4992 22.0145C19.7361 21.752 20.1038 21.9088 20.2355 22.0145C20.3143 22.0669 20.3667 22.0145 20.4459 22.0145C20.4459 21.9885 20.5247 21.936 20.4719 21.8564C20.3931 21.6984 20.3143 21.6984 20.1826 21.6459C20.3931 21.4355 20.84 21.5411 21.0241 21.83C21.1029 21.9356 21.3134 21.9084 21.3134 22.0925C21.3134 22.2765 21.1293 22.0925 21.1293 22.9343C21.1293 23.3813 21.4186 23.9066 21.4975 23.8542C21.5499 23.7758 21.5763 23.6962 21.6287 23.5917C21.6287 23.5917 21.5499 23.5918 21.5499 23.5385C21.5759 23.3021 21.7075 23.0916 21.8388 22.8815H21.6547C21.6547 22.7235 21.8388 22.5666 21.97 22.4346C21.97 22.3822 21.7595 22.3822 21.7071 22.3029C21.7595 22.2245 21.996 22.0141 21.996 21.988C21.9172 21.9088 21.8648 21.9088 21.8383 21.83C21.8648 21.7516 22.1276 21.6984 22.2065 21.4879C22.2065 21.4355 22.0752 21.3571 22.0488 21.3571C22.0752 21.331 22.2065 21.3571 22.3381 21.3571C22.601 21.331 22.785 21.3571 22.785 21.3571C22.8115 21.331 22.7326 21.2514 22.7326 21.173C22.9431 21.199 23.0743 21.173 23.1007 20.9625C23.1532 20.9625 23.1796 21.0409 23.2584 21.0409C23.4689 21.1202 23.7053 21.2514 23.8894 21.4355C24.0999 21.2774 24.3887 21.2774 24.6256 21.2774C24.7309 21.2514 24.7837 21.2774 24.8361 21.2774C24.6256 21.5407 25.073 21.5407 25.2834 21.4091C25.4939 21.6979 25.4939 21.9084 25.2834 22.1453C25.4147 22.2237 25.5199 22.4602 25.5723 22.4342C25.8616 22.0661 26.4662 21.9348 26.3878 21.6979C26.3086 21.4355 26.0981 21.4355 25.888 21.4355C25.9404 21.2774 26.1777 21.2774 26.4666 21.2774C26.4666 21.1726 26.4406 21.0669 26.4666 20.9885C26.9135 21.0669 27.0976 21.5671 27.3601 21.6195C27.6234 21.6455 27.9123 21.4879 28.1227 21.3306H28.1487C28.1227 21.83 28.6485 21.4355 28.8065 21.5411C28.8325 21.988 28.0703 22.0925 27.9915 22.3029C27.9123 22.5134 28.0699 22.5662 28.1223 22.6451C28.0699 22.6711 27.781 22.6711 27.8074 22.8031C27.9383 22.9612 28.2804 22.8815 28.3068 22.7771C28.4384 22.5138 28.2284 22.435 28.2284 22.3826C28.2808 22.3566 28.3864 22.435 28.4908 22.3566C28.5168 22.2773 28.4384 22.2249 28.4384 22.1985C28.5965 22.2245 28.7533 22.3566 29.043 22.2769C29.1478 22.2245 29.043 22.1461 29.0954 22.0665C29.2535 22.0925 29.4111 22.2769 29.5424 22.3562C29.674 22.3029 29.6216 22.1457 29.5956 21.9356C29.7528 21.9088 29.9105 22.3826 30.1209 22.435C30.1994 22.461 30.279 22.3566 30.279 22.2769C30.3314 22.2769 30.3314 22.3029 30.3314 22.3562C30.6211 23.3813 30.936 22.3822 31.0941 22.5666C31.1465 22.5666 31.0941 22.5926 31.0941 22.5926C31.0156 22.6711 30.9884 22.8551 31.0156 22.9608C31.1989 23.5918 30.5419 23.7486 30.5679 23.7486C30.6211 25.1422 29.1742 25.169 28.4388 25.011C28.6493 25.4579 29.1747 25.5103 29.2275 25.9045C29.2535 26.0361 29.3059 26.4042 29.4115 26.5355C29.622 26.6671 29.9893 26.457 30.1734 26.325C30.4891 26.3782 30.4891 26.5615 30.5415 26.6147C30.8572 26.6671 31.0937 26.4566 31.3825 26.3782C31.4618 26.4566 31.2253 26.7455 31.3565 26.6931C31.3825 26.6931 31.3825 26.6671 31.4358 26.6931C31.4618 26.8512 31.3565 27.0088 31.3825 27.1136C31.4358 27.1396 31.4618 27.1396 31.5666 27.1929C31.5142 27.2713 31.4358 27.2189 31.3561 27.4033C31.3821 27.4293 31.5666 27.4293 31.6458 27.4293C31.5666 27.5866 31.2777 27.7706 31.2253 27.8499C31.2777 27.8759 31.3825 27.8759 31.4358 27.8759C31.4358 28.0075 31.1985 28.0339 31.1461 28.1383C31.1985 28.1644 31.2253 28.1644 31.2777 28.2176C31.1985 28.3224 30.8572 28.454 30.9356 28.5065C30.988 28.5325 31.0672 28.5857 31.1461 28.6121C30.8836 28.8226 30.7255 28.8746 30.4367 28.8746C30.4367 28.9794 30.4367 29.0586 30.331 29.1635C30.2786 29.2427 30.1205 29.3215 29.9889 29.3215C30.0681 29.059 29.9889 28.8222 29.7784 28.8222C29.7784 28.8746 29.7524 28.8746 29.7524 28.9006C29.8317 29.1631 29.7 29.4268 29.3319 29.3999C29.1738 29.6112 28.6749 29.6112 28.4384 29.3215V29.2431C28.6489 29.2431 28.7533 29.2431 28.9378 29.1639C28.9378 29.059 28.9378 29.033 28.8854 28.9798C28.6749 28.9538 28.4384 29.059 28.2284 29.1639C28.2024 28.875 28.3864 28.5069 28.6489 28.5069C28.7273 28.2444 28.7537 28.3228 28.7537 28.2444C28.6489 28.1652 28.4388 28.1388 28.2808 28.1388C28.2284 28.1388 28.2024 28.1648 28.1491 28.1388C28.3596 27.7182 28.6753 27.6918 28.9378 27.7975C29.017 27.7182 29.1482 27.6394 29.2275 27.6918C29.3855 27.6918 29.4115 27.9543 29.5164 28.0339C29.6744 28.0863 29.8585 27.8499 29.8585 27.6918C29.8585 27.3497 29.3063 27.2973 29.0174 27.3497C28.7541 27.4029 28.5177 27.3497 28.2812 27.1925C28.1231 27.0608 27.9391 26.9292 27.7818 26.7719C27.7286 26.7451 27.7286 26.7719 27.7286 26.8243C27.7026 26.9292 27.6238 27.1132 27.7286 27.2713C27.8602 27.3497 28.1231 27.4293 28.1491 27.6394C28.1231 27.7178 28.1231 27.8499 28.0183 27.9283C27.9127 28.0075 27.7286 28.0863 27.7286 28.244C27.7026 28.4545 27.7286 28.5065 27.9127 28.7169C27.7286 28.7962 27.4921 28.7169 27.3605 28.6645C27.3345 28.6645 27.2032 28.901 27.1772 28.9794C27.0456 29.0326 26.9668 28.7169 26.914 28.7429C26.888 28.7962 26.7559 28.9534 26.7559 29.0326C26.6775 29.0586 26.5987 28.7429 26.5454 28.7169C26.467 28.7962 26.3882 28.901 26.3882 29.0326C26.309 28.9794 26.2565 28.901 26.1777 28.8222C26.0721 28.953 25.888 29.0326 25.7304 28.9794C25.678 28.9534 25.8092 28.8222 25.7564 28.7962C25.7564 28.7429 25.7304 28.7962 25.7304 28.7962C25.6516 28.901 25.1522 28.901 25.1522 28.7962C25.2838 28.7169 25.4151 28.5857 25.3627 28.454C25.3627 28.3756 25.3103 28.4008 25.2838 28.4008C25.1258 28.5065 25.047 28.7165 24.8629 28.8222C24.7053 28.9006 24.574 28.8746 24.4948 28.7429C24.2579 28.7169 24.0479 28.7169 23.8374 28.901C23.8374 28.875 23.811 28.875 23.811 28.875C23.8898 28.4545 24.0214 28.3756 24.2579 28.2964C24.2579 28.218 24.2579 28.1383 24.1791 28.0339C24.0479 27.9547 23.8374 28.0079 23.7057 28.0863C23.6269 28.0079 23.8898 27.4293 24.2579 27.6394C24.2843 27.6394 24.2843 27.5862 24.3367 27.5602C24.2579 27.2977 24.1003 27.2977 23.9162 27.4029C23.8902 27.0608 24.2843 26.8243 24.5472 26.9824C24.5736 26.9292 24.6524 26.9292 24.7049 26.9032C24.9153 26.9032 24.9417 27.1136 25.073 27.1929C25.1518 27.2189 25.3619 27.2713 25.4411 27.4033C25.5723 27.5866 25.6776 27.5866 25.9404 27.6398C26.0985 27.6398 26.2561 27.6398 26.3882 27.5866C26.6771 27.5082 26.6771 27.1396 26.4666 27.1396C26.1777 27.1136 25.9404 27.1929 25.678 27.1136C25.2838 27.0088 25.1522 26.9032 25.1522 26.4566C24.8629 26.5615 24.1007 26.8248 23.9162 26.8512C23.8374 26.9828 23.7057 27.0092 23.5481 27.0616C23.4693 27.114 23.7057 27.3505 23.7057 27.3505C23.7057 27.4297 23.1012 27.7186 23.154 27.7186C23.18 27.771 23.2328 27.771 23.2592 27.7979C23.2592 27.8763 23.0223 27.8763 22.9963 27.9287C23.0227 27.9547 23.0751 28.0079 23.1016 28.0079C22.9963 28.1388 22.7859 28.0863 22.6546 28.2184C22.5758 28.2444 22.4441 28.2968 22.3389 28.3232C22.2337 28.3764 22.3653 28.4549 22.3389 28.5073C21.6555 28.6653 21.5503 28.3764 21.3922 28.4016C21.3134 28.4016 21.2082 28.5073 21.1293 28.5865C21.1817 28.823 20.9717 29.2435 20.6824 29.2435C20.6036 29.1643 20.7612 29.0594 20.6824 28.9014C20.6824 28.8754 20.63 28.8754 20.6036 28.8754C20.4723 28.8754 20.5252 29.2699 20.2359 29.1903C20.183 29.1903 20.157 29.1119 20.1042 29.1643C19.7889 29.3223 19.6049 29.4007 19.2632 29.1119C19.8677 28.9538 19.947 28.376 19.0791 28.5865C19.1303 28.2456 19.3404 28.14 19.5248 28.14ZM25.4403 23.5389C25.4403 23.4865 25.4403 23.4865 25.4927 23.4865C25.6767 23.9595 26.1765 23.9863 26.6234 23.907C27.4645 23.7762 28.516 23.3025 29.2263 23.3025C29.4627 23.3025 30.0413 23.4081 30.0413 23.7762C30.0413 24.0387 29.9621 24.1967 29.778 24.3276C29.5416 24.4856 28.937 24.5649 28.6741 24.5649C28.516 24.5649 27.9114 24.5116 27.7274 24.2752C27.6226 24.1967 27.4649 24.1435 27.2804 24.1435C26.7019 24.1435 26.0709 24.4856 25.5715 24.4856C25.4403 24.4856 25.4139 23.7494 25.4403 23.5389ZM26.7019 22.5138C26.9123 22.6719 27.0964 22.9616 27.4121 23.1184C27.4121 23.1716 26.7811 23.3817 26.5438 23.3817C26.0969 23.3817 25.966 23.1712 25.966 22.9612C25.9664 22.7239 26.387 22.3566 26.7019 22.5138Z" fill="#B2A43F"/>
<path fill-rule="evenodd" clip-rule="evenodd" d="M28.8315 27.8776C28.8023 27.9466 28.7758 28.0169 28.7523 28.0881C28.6475 28.0096 28.5682 28.0096 28.3578 28.0356C28.385 27.93 28.6739 27.7195 28.8315 27.8776ZM28.6475 28.6138C28.6289 28.6471 28.6214 28.6855 28.6261 28.7233C28.6307 28.7611 28.6473 28.7965 28.6735 28.8243C28.7259 28.9027 28.4894 28.8767 28.3578 28.9551C28.3578 28.8767 28.4898 28.6138 28.6475 28.6138ZM28.9627 29.2448C29.016 29.2708 29.042 29.3232 29.0944 29.3496C29.042 29.4289 28.6739 29.4813 28.6475 29.3236C28.7523 29.3232 28.8839 29.3232 28.9627 29.2448ZM24.2833 28.4562C24.2833 28.5086 24.2833 28.5346 24.3357 28.6142H24.2833C24.0992 28.6142 24.0464 28.6666 23.9152 28.7191C23.9148 28.5878 24.1777 28.3774 24.2833 28.4562ZM24.2041 27.7195C24.2565 27.7719 24.2041 27.7195 24.2041 27.93H24.1252C24.02 27.8776 23.9148 27.8776 23.8364 27.93C23.8888 27.772 24.0988 27.7195 24.2041 27.7195ZM24.4669 27.1149C24.4145 27.1942 24.3881 27.273 24.3881 27.299C24.3881 27.3514 24.3353 27.299 24.3353 27.299C24.2565 27.273 24.1776 27.2206 24.0988 27.2206C24.1776 27.1149 24.3881 27.0101 24.4669 27.1149ZM23.1001 23.4082C23.1001 23.3822 23.1525 23.4082 23.1525 23.4082C23.1001 23.5922 23.0737 23.7495 23.0737 23.8551C23.0737 23.9075 23.1001 23.9075 23.1001 23.9075C23.1789 23.7767 23.3106 23.329 23.363 23.4606C23.4682 23.7495 23.1001 24.1968 23.0213 24.144C22.9949 24.1436 22.8896 23.6707 23.1001 23.4082ZM20.8386 21.8305H20.8122C20.7338 21.8305 20.681 21.9089 20.6017 21.8305C20.5493 21.7521 20.5233 21.6989 20.4705 21.6464C20.6021 21.62 20.7338 21.6988 20.8386 21.8305ZM19.7871 21.9885C19.9187 21.9361 20.1024 21.9885 20.1552 22.067C20.1552 22.093 20.0764 22.225 20.0235 22.1986C19.9187 21.9885 19.7083 22.0146 19.7871 21.9885ZM19.6558 22.5139C19.6558 22.5139 19.7083 22.5931 19.8135 22.672C19.8663 22.7244 19.8135 22.8036 19.8135 22.856C19.7083 22.8556 19.577 22.5667 19.6558 22.5139ZM19.7347 27.4831C19.7871 27.5091 19.7083 27.5879 19.6558 27.6411C19.6558 27.6935 19.5246 27.5879 19.3665 27.5879C19.4454 27.4831 19.603 27.4831 19.7347 27.4831ZM19.8135 28.9027C19.8663 28.8767 19.9451 29.0608 19.9187 29.0608C19.8135 29.1916 19.577 29.1656 19.4982 29.1132C19.603 29.0608 19.7083 28.9815 19.8135 28.9027ZM19.577 28.2457V28.4029C19.4458 28.3778 19.4194 28.3778 19.2617 28.4029C19.2877 28.2457 19.5246 28.2197 19.577 28.2457Z" fill="#00AAE8"/>
<path fill-rule="evenodd" clip-rule="evenodd" d="M25.229 13.4962H25.2818V15.2311H25.229V13.4962Z" fill="#0C0E0F"/>
<path fill-rule="evenodd" clip-rule="evenodd" d="M20.0762 15.7573V10.4725H20.3655V15.4672C21.8639 15.494 23.8886 15.1783 24.125 15.1783C24.6244 15.1259 24.9401 15.4148 24.9929 15.494C25.0453 15.4148 25.2822 15.1259 25.5711 15.1783C26.8331 15.2567 28.1475 15.494 29.6204 15.494V10.472H29.9617V15.7565H20.0762V15.7573Z" fill="#B2A43F"/>
<path fill-rule="evenodd" clip-rule="evenodd" d="M19.6025 16.2039V10.4725H19.9971V15.8358H30.0406V10.4725H30.4079V16.2039H19.6025Z" fill="#D06332"/>
<path fill-rule="evenodd" clip-rule="evenodd" d="M19.5245 14.0747V15.2571L18.499 14.6785L19.5245 14.0747ZM19.5245 10.9982V12.1813L18.499 11.5768L19.5245 10.9982Z" fill="#B2A43F"/>
<path fill-rule="evenodd" clip-rule="evenodd" d="M19.2086 14.4421C19.3402 14.4421 19.419 14.5738 19.419 14.6786C19.419 14.8103 19.3402 14.8891 19.2086 14.8891C19.0769 14.8891 18.9717 14.8107 18.9717 14.6786C18.9717 14.5742 19.0769 14.4421 19.2086 14.4421Z" fill="#0C0E0F"/>
<path fill-rule="evenodd" clip-rule="evenodd" d="M19.2085 14.4685C19.3402 14.4685 19.419 14.5741 19.419 14.679C19.419 14.8106 19.3402 14.8894 19.2085 14.8894C19.0769 14.8894 18.998 14.811 18.998 14.679C18.998 14.5741 19.0769 14.4685 19.2085 14.4685Z" fill="#FAE935"/>
<path fill-rule="evenodd" clip-rule="evenodd" d="M19.2086 11.3662C19.3402 11.3662 19.419 11.445 19.419 11.5767C19.419 11.7083 19.3402 11.8136 19.2086 11.8136C19.0769 11.8136 18.9717 11.7083 18.9717 11.5767C18.9717 11.445 19.0769 11.3662 19.2086 11.3662Z" fill="#0C0E0F"/>
<path fill-rule="evenodd" clip-rule="evenodd" d="M19.2085 11.3662C19.3402 11.3662 19.419 11.4979 19.419 11.5767C19.419 11.7083 19.3402 11.7871 19.2085 11.7871C19.0769 11.7871 18.998 11.7083 18.998 11.5767C18.998 11.4979 19.0769 11.3662 19.2085 11.3662Z" fill="#FAE935"/>
<path fill-rule="evenodd" clip-rule="evenodd" d="M25.361 21.5416C25.361 21.4883 25.3085 21.4359 25.2821 21.4099C25.0717 21.5416 24.6247 21.5416 24.8348 21.2783C24.7824 21.2783 24.7296 21.2523 24.6243 21.2783C24.3878 21.2783 24.0986 21.2783 23.8881 21.4363C23.704 21.2523 23.4676 21.1214 23.2571 21.0418C23.1783 21.0418 23.1519 20.9634 23.0994 20.9634C23.073 21.1738 22.9414 21.1998 22.7313 21.1738C22.7313 21.2523 22.8101 21.3319 22.7837 21.3579C22.7837 21.3579 22.5997 21.3319 22.3368 21.3579C22.2052 21.3579 22.0739 21.3319 22.0475 21.3579C22.0739 21.3579 22.2052 21.4363 22.2052 21.4887C22.1263 21.6992 21.8634 21.752 21.837 21.8308C21.8634 21.9093 21.9159 21.9093 21.9947 21.9889C21.9947 22.0149 21.7582 22.2254 21.7058 22.3038C21.7582 22.383 21.9687 22.383 21.9687 22.4354C21.837 22.5671 21.6534 22.7243 21.6534 22.8824H21.8374C21.7062 23.0928 21.5746 23.3029 21.5486 23.5394C21.5486 23.5926 21.6274 23.5926 21.6274 23.5926C21.575 23.6974 21.5486 23.7767 21.4961 23.8551C21.4173 23.9075 21.128 23.3821 21.128 22.9352C21.128 22.0933 21.3121 22.2774 21.3121 22.0933C21.3121 21.9093 21.1016 21.9361 21.0228 21.8308C20.8387 21.542 20.3918 21.4363 20.1813 21.6468C20.313 21.6992 20.3918 21.6992 20.4706 21.8573C20.5234 21.9365 20.4446 21.9889 20.4446 22.0153C20.3658 22.0153 20.313 22.0677 20.2342 22.0153C20.1025 21.9097 19.7348 21.7528 19.4979 22.0153C19.7084 22.0677 19.9184 22.1994 19.9184 22.4358C19.866 22.6723 19.6028 22.3042 19.6028 22.3042C19.4451 22.4623 19.4451 22.8828 19.7344 22.936C19.8656 22.936 19.7868 23.0932 19.9184 23.0932C19.9973 23.1725 20.1025 23.0932 20.1813 23.1193C20.2342 23.1725 20.2866 23.2249 20.1813 23.2509C20.1025 23.3033 20.0237 23.3033 19.9449 23.3033C19.9185 23.3293 19.9449 23.3825 19.9449 23.409C20.0237 23.593 20.1553 23.6714 20.313 23.6714C20.3918 23.6714 20.3918 23.7498 20.3654 23.8295C20.1025 23.9875 19.9185 23.9875 19.7868 24.2764C19.8656 24.2764 20.0237 24.2764 20.0237 24.3557C20.0237 24.4341 19.9449 24.5129 19.866 24.5661C19.866 24.6185 19.8132 24.6185 19.8132 24.6185C19.9185 24.6445 20.0237 24.6185 20.0761 24.6445C20.1549 24.7762 19.7868 24.9334 19.8132 25.0915C19.9977 25.0655 20.1813 25.0655 20.2342 25.2231C20.2342 25.3539 20.1553 25.4596 20.0761 25.5912C20.1813 25.5912 20.313 25.4596 20.3914 25.5912C20.4442 25.6437 20.1549 25.7485 20.1549 25.9061C20.2862 25.9061 20.3126 25.8277 20.4702 25.9061C20.549 26.0378 20.1809 26.1694 20.1549 26.1958C20.2862 26.4063 20.8119 26.3267 21.0224 26.1958C21.1012 26.5631 21.5746 26.5631 21.5482 26.6164C21.4165 26.7472 21.3377 26.9845 21.3377 27.1157C21.4165 27.4838 21.1796 27.7999 20.7591 27.7999C20.5486 27.7999 20.3122 27.7731 20.2333 27.5102C20.1805 27.2738 19.9965 27.2738 19.8124 27.4054C19.5759 27.2738 19.2606 27.4838 19.1554 27.7203C19.3395 27.6943 19.8124 27.7995 19.5235 28.1408C19.3395 28.1408 19.129 28.2465 19.0762 28.5886C19.944 28.3781 19.8648 28.9559 19.2602 29.1139C19.6019 29.4028 19.786 29.3244 20.1013 29.1663C20.1541 29.1139 20.1801 29.1924 20.2329 29.1924C20.5222 29.2716 20.4694 28.8775 20.6006 28.8775C20.6271 28.8775 20.6795 28.8775 20.6795 28.9035C20.7583 29.0615 20.6006 29.1659 20.6795 29.2456C20.9688 29.2456 21.1788 28.825 21.1264 28.5886C21.2052 28.5093 21.3105 28.4037 21.3893 28.4037C21.5473 28.3785 21.6522 28.667 22.336 28.5093C22.3624 28.4569 22.2308 28.3785 22.336 28.3253C22.4412 28.2993 22.5729 28.2469 22.6517 28.2205C22.7829 28.0888 22.9934 28.1412 23.0986 28.01C23.0722 28.01 23.0198 27.9568 22.9934 27.9308C23.0198 27.8783 23.2563 27.8783 23.2563 27.7999C23.2299 27.7731 23.1775 27.7731 23.151 27.7207C23.0986 27.7207 23.7028 27.4318 23.7028 27.3526C23.7028 27.3526 23.4663 27.1161 23.5452 27.0637C23.7028 27.0113 23.8345 26.9853 23.9133 26.8532C24.0973 26.8272 24.86 26.5635 25.1493 26.4587C25.1493 26.7476 25.2017 26.9056 25.3069 26.9849L25.3593 26.0906C25.2805 26.1166 25.2017 26.1698 25.0704 26.1962H25.044C25.1229 26.0906 25.2809 25.9589 25.3597 25.8017C25.044 25.9589 24.834 26.1698 24.387 26.3803C24.2818 26.3803 24.2818 26.4063 24.2818 26.3803C24.3342 26.1962 24.413 26.1698 24.4923 25.9065C24.4659 25.9065 24.4134 25.9589 24.387 25.9589C23.9137 26.3011 23.6772 26.6168 23.2567 26.4851C23.3091 26.5635 23.4407 26.7476 23.6772 26.8272C23.5456 26.9321 23.1514 26.9056 22.941 26.7748C22.941 26.9853 23.2567 27.1161 23.3619 27.1421C23.1515 27.2738 22.7309 27.1421 22.5205 27.0637V27.1161C22.6781 27.3526 23.1514 27.4058 23.3879 27.4058C23.0198 27.5891 22.6781 27.6423 22.3364 27.4318C22.284 27.5626 22.6521 27.7999 22.7833 27.8523C22.7833 27.9308 22.284 27.8784 22.0471 27.6419C21.9683 27.7727 22.3364 28.01 22.4152 28.0364C22.2048 28.2205 21.653 27.9572 21.7582 28.0104C21.7058 28.0104 21.7058 27.9572 21.7058 28.0104C21.7582 28.1676 21.9163 28.2469 22.0739 28.2993C21.7846 28.5098 21.5482 28.2469 21.4165 28.1676C21.3377 28.1416 21.0484 28.4573 21.022 28.4573V28.7462C20.9696 28.8255 20.8903 29.0359 20.8115 29.0359C20.7591 28.9827 20.8379 28.7994 20.7331 28.7202C20.391 28.5894 20.4438 28.9567 20.2858 29.0359C20.1017 29.1668 19.8652 28.8255 19.8652 28.7995C19.8652 28.7462 19.9176 28.6154 20.0229 28.7202C20.1545 28.7202 20.1545 28.6154 20.1545 28.6154C20.1545 28.5098 20.1017 28.4041 19.944 28.4041C19.9176 28.4573 19.9176 28.589 19.8124 28.5358C19.6548 28.4041 19.6548 28.0888 19.734 28.0888C19.8652 28.0364 19.8652 28.2205 20.0229 28.1672C20.1017 28.0888 20.1017 27.8783 20.0229 27.8523C19.9176 27.7999 19.8124 27.9308 19.734 27.8523C19.7864 27.6419 19.918 27.4842 19.9969 27.4842C20.1545 27.4842 20.1017 27.7207 20.3122 27.8523C20.601 28.0104 20.9696 28.0104 21.1272 27.9308C21.8635 27.5887 21.5482 27.0633 21.837 26.9317C22.3364 26.6952 22.1263 26.4587 22.284 26.3271C22.3364 26.3803 22.3364 26.6168 22.4944 26.6168C22.5209 26.4063 22.5733 26.1962 22.7837 26.3011C22.8626 26.4067 22.9942 26.5375 23.0994 26.6168V26.1962C23.3099 26.4067 23.6248 26.3803 23.6248 26.3011C23.546 26.2486 23.3883 26.0386 23.4407 25.9862C23.5984 26.091 23.9141 25.9862 23.8877 25.9069C23.8353 25.8809 23.8089 25.8285 23.8089 25.8021C23.8353 25.7229 24.0457 25.7229 24.0981 25.7229C24.0981 25.592 23.9141 25.3548 24.1242 25.1443C24.203 25.2235 24.2558 25.3024 24.4134 25.3548L24.4659 25.3024C24.4134 25.1715 24.387 25.0135 24.4659 24.9342C24.834 24.9342 25.0709 24.9342 25.3597 24.8558V23.2521C25.3073 23.2521 25.2285 23.2261 25.2021 23.0416C25.1497 22.8836 24.9916 22.7792 24.7816 22.7259C24.8604 22.6475 24.834 22.5155 24.834 22.4635C24.9392 22.4375 25.0709 22.4375 25.1497 22.4635C25.2813 22.5951 25.2021 22.8056 25.3601 23.1205V22.225C25.3601 22.199 25.3077 22.199 25.2813 22.1465C25.3073 22.0933 25.3601 22.0673 25.3601 22.0149V21.5416H25.361ZM25.361 27.299C25.2821 27.2729 25.1505 27.2205 25.0721 27.1941C24.9404 27.1149 24.914 26.9044 24.704 26.9044C24.6515 26.9304 24.5727 26.9304 24.5463 26.9837C24.2834 26.8256 23.8889 27.0621 23.9153 27.4042C24.0994 27.2985 24.257 27.2985 24.3358 27.5614C24.2834 27.5874 24.2834 27.6407 24.257 27.6407C23.8889 27.4302 23.626 28.0088 23.7048 28.0876C23.8365 28.0092 24.0465 27.956 24.1782 28.0352C24.257 28.14 24.257 28.2192 24.257 28.2977C24.0201 28.3769 23.8889 28.4557 23.8101 28.8762C23.8101 28.8762 23.8365 28.8762 23.8365 28.9022C24.047 28.7182 24.257 28.7182 24.4939 28.7442C24.5727 28.8758 24.7044 28.9022 24.862 28.8234C25.0461 28.7178 25.1249 28.5077 25.2829 28.4021C25.3089 28.4021 25.3618 28.3769 25.3618 28.4553C25.4142 28.587 25.2829 28.7178 25.1513 28.7974C25.1513 28.8234 25.2301 28.8758 25.3618 28.8758V28.2448C25.1513 28.2448 24.9937 28.3765 24.8624 28.5869C24.7836 28.613 24.7048 28.6654 24.6255 28.6654C24.4943 28.613 24.3362 28.2973 24.5467 28.2184C24.5731 28.1652 24.6255 28.2444 24.7044 28.2184C24.7374 28.2036 24.7641 28.1775 24.7795 28.1447C24.795 28.112 24.7983 28.0748 24.7888 28.0399C24.7793 28.0049 24.7576 27.9745 24.7277 27.9542C24.6978 27.9338 24.6615 27.9248 24.6255 27.9287C24.5467 27.9287 24.4679 28.1392 24.3891 28.008C24.3362 27.8763 24.3891 27.5602 24.5731 27.5866C24.6255 27.6398 24.6519 27.7183 24.7044 27.7183C24.9148 27.7183 24.862 27.5078 24.8356 27.4294C24.7304 27.4034 24.5731 27.4818 24.5467 27.4034C24.4943 27.2717 24.6255 27.0613 24.7308 27.0613C24.9148 27.0613 24.8624 27.2717 25.0461 27.2977C25.1249 27.3501 25.2829 27.3501 25.3618 27.4294V27.299H25.361ZM20.0765 22.6715C20.1817 22.5931 20.287 22.8031 20.3134 22.6455C20.3922 22.3566 20.1029 22.4614 20.1029 22.3566C20.13 22.2804 20.1798 22.2142 20.2456 22.1672C20.3114 22.1201 20.3901 22.0943 20.471 22.0933C20.6023 22.0933 20.3922 22.3566 20.6815 22.3566C20.9708 22.1461 20.6291 22.0933 20.6291 22.0669C20.6291 21.9089 21.05 21.9361 21.1024 22.0145C21.1288 22.0669 21.1288 22.0929 21.1024 22.1461C21.05 22.2246 20.9712 22.3566 20.9448 22.461C20.9448 22.8816 20.8131 23.4601 20.9708 23.7758C21.0496 23.9067 21.1813 23.9067 21.2601 23.9863C21.3913 24.0647 21.6546 24.6957 21.6546 24.7221C21.5494 24.8538 21.4706 24.9326 21.3917 25.0118C21.3917 25.0643 21.4706 25.0903 21.5498 25.0903C21.6286 25.0903 21.3393 25.4324 21.1817 25.4584C21.1817 25.4584 21.1292 25.4584 21.1817 25.5108C21.2605 25.6424 21.4185 25.59 21.5762 25.6424C21.4974 25.8265 21.4185 25.8265 21.3397 26.037C21.3921 26.1154 21.7867 25.9845 21.8655 26.037C21.8655 26.4051 21.2081 26.4051 21.1293 25.9845H21.1028C20.7351 26.247 20.4718 26.1686 20.4458 26.1686C20.84 25.9573 20.7611 25.8789 20.9716 25.5368C20.8928 25.4584 20.6299 25.7473 20.4723 25.6684C20.5511 25.6424 20.6035 25.5368 20.6827 25.3795C20.7615 25.1691 20.9456 25.0899 20.9456 25.0899C20.8404 25.0114 20.3934 25.3523 20.3934 25.3523C20.5251 24.9318 20.7355 24.8794 20.7615 24.6429H20.7355C20.4462 24.9318 20.2362 24.9578 20.0253 24.9578C20.0777 24.8006 20.7355 24.6953 20.7355 24.3268C20.7355 24.2484 20.6303 24.406 20.5251 24.4324C20.3146 24.4849 20.183 24.5109 20.157 24.4849C20.2882 24.2744 20.3934 24.2744 20.5511 24.1167V24.0643C20.3806 24.116 20.2034 24.1424 20.0253 24.1427L20.0777 24.1167C20.2882 23.9587 20.5511 23.9859 20.5511 23.7486C20.5531 23.7075 20.5445 23.6666 20.5261 23.6297C20.5078 23.5929 20.4803 23.5613 20.4462 23.5382C20.3146 23.5382 20.0781 23.4857 20.0781 23.3809C20.315 23.4069 20.5255 23.3017 20.4462 23.0912C20.3674 22.934 20.1834 22.9604 20.0253 23.0128C19.866 22.882 20.0241 22.6715 20.0765 22.6715ZM19.656 22.5139C19.656 22.5139 19.7084 22.5931 19.8136 22.6719C19.8664 22.7243 19.8136 22.8036 19.8136 22.856C19.7084 22.8556 19.5772 22.5667 19.656 22.5139ZM19.7872 21.9885C19.9189 21.9361 20.1025 21.9885 20.1553 22.0669C20.1553 22.0929 20.0765 22.225 20.0237 22.1986C19.9189 21.9885 19.7084 22.0145 19.7872 21.9885ZM20.8387 21.8304H20.8123C20.7339 21.8304 20.6811 21.9089 20.6019 21.8304C20.5494 21.752 20.5234 21.6988 20.4706 21.6464C20.6023 21.62 20.7339 21.6988 20.8387 21.8304ZM19.5772 28.2457V28.4029C19.4459 28.3777 19.4195 28.3777 19.2619 28.4029C19.2879 28.2456 19.5247 28.2196 19.5772 28.2457ZM19.7348 27.483C19.7872 27.509 19.7084 27.5878 19.656 27.6411C19.656 27.6935 19.5247 27.5878 19.3667 27.5878C19.4455 27.483 19.6032 27.483 19.7348 27.483ZM19.8136 28.9027C19.8664 28.8767 19.9453 29.0607 19.9189 29.0607C19.8136 29.1915 19.5772 29.1655 19.4983 29.1131C19.6032 29.0607 19.7084 28.9815 19.8136 28.9027ZM22.3376 24.4333C22.3376 24.6173 22.3376 24.8802 22.1536 25.1427C21.9955 25.38 21.575 25.4324 21.4173 25.4584C21.8643 25.1699 22.0483 24.8014 22.3376 24.4333ZM22.5741 24.1436C22.5888 24.0989 22.6169 24.0599 22.6545 24.0318C22.6922 24.0037 22.7376 23.9878 22.7846 23.9863C22.7846 24.1171 22.8898 24.2488 22.8634 24.3276C22.7317 24.5117 22.5741 25.0638 22.5741 25.3007C22.5217 25.5372 22.0747 25.9849 21.575 25.9053C22.7846 25.1699 22.2324 24.6173 22.5741 24.1436ZM22.6005 23.3817C22.6793 23.4601 22.7321 23.5922 22.811 23.6706C22.7846 23.6966 22.7846 23.749 22.7846 23.7763C22.7846 23.8547 22.6793 23.8287 22.6533 23.8547C22.206 24.0651 22.3376 24.6173 21.7066 24.9322C22.1271 24.5121 22.0483 23.7494 22.6005 23.3817ZM22.5741 22.5931C22.5217 22.7771 22.5217 22.7771 22.4428 22.882C22.1271 23.0136 22.206 23.3289 21.7854 23.4081C21.7594 23.4081 21.7066 23.4606 21.7066 23.4081C21.7594 22.9612 22.206 22.6715 22.5741 22.5931ZM22.4428 23.0396C22.4953 23.118 22.5217 23.2237 22.5741 23.3021C22.206 23.5386 22.1536 23.9067 21.7854 23.8283C21.7854 23.8283 21.7066 23.8283 21.7594 23.7758C22.2324 23.3817 22.1536 23.1717 22.4428 23.0396ZM22.4953 22.3034C22.5217 22.3034 22.5741 22.3826 22.6005 22.3826C22.6533 22.435 22.6005 22.461 22.6005 22.461C22.4953 22.5927 22.2852 22.5667 21.9695 22.6451C21.9695 22.6711 21.9171 22.6711 21.9171 22.6451C22.0483 22.4614 22.364 22.3566 22.4953 22.3034ZM21.9959 22.1986C22.1276 22.0929 22.2852 22.0669 22.4433 22.0145V22.1986C22.2852 22.1986 22.154 22.2246 21.9699 22.2246C21.8643 22.225 21.9959 22.1986 21.9959 22.1986ZM22.5741 21.752C22.4953 21.778 22.4953 21.8569 22.4428 21.9093C22.3376 21.9093 22.1536 21.8569 22.0747 21.7784C22.364 21.5416 22.6005 21.6988 22.5741 21.752ZM22.9422 21.6988C22.8898 21.752 22.8634 21.6204 22.6533 21.6988C22.6533 21.6988 22.5745 21.6988 22.5217 21.6204C22.4953 21.542 22.4428 21.568 22.3376 21.4363C22.6005 21.4359 22.811 21.4359 22.9422 21.6988ZM22.5741 25.5372C22.5741 25.6688 22.6001 25.8269 22.6529 25.9849C22.5741 26.0374 22.5213 26.0374 22.4424 26.1954C22.416 26.2478 22.2844 25.8797 22.3636 25.7217C22.4428 25.6688 22.4953 25.5904 22.5741 25.5372ZM22.6793 21.8304C22.811 21.778 22.9422 21.778 23.021 21.9361C23.1527 21.9361 23.3627 21.9885 23.468 22.0145C23.5468 22.0669 23.5992 22.1461 23.5992 22.225C23.5468 22.3566 23.5468 22.383 23.5204 22.4614C23.3887 22.4354 23.021 22.0669 23.021 22.0669C22.9946 22.0669 22.9946 22.225 22.7317 22.225C22.6005 22.1986 22.5741 21.9361 22.6793 21.8304ZM22.7846 22.5139C22.811 22.4354 22.7846 22.3566 22.8634 22.3566C22.8894 22.3034 22.9422 22.2774 22.9946 22.225C23.021 22.225 23.0734 22.3034 23.0998 22.3566C23.0734 22.4614 22.9946 22.5671 22.9946 22.6715C23.021 22.6715 23.021 22.7239 23.0734 22.7239C23.1523 22.6715 23.2575 22.5931 23.2575 22.5134H23.3099C23.3623 22.5134 23.3623 22.5134 23.3887 22.5667C23.3887 22.5927 23.3627 22.6451 23.3099 22.7239C23.2575 22.8031 23.1523 22.8556 23.0994 22.882C23.073 22.9352 22.9942 22.882 23.0206 22.9612C23.0206 23.0136 23.073 23.092 23.0994 23.1184C23.1519 23.1717 23.1783 23.0924 23.2571 23.1184C23.2307 23.1717 23.2307 23.2241 23.1783 23.2501C23.1523 23.2501 23.073 23.2501 23.0206 23.2241C22.9942 23.2241 22.9418 23.1717 22.9418 23.1184C22.9418 23.04 22.9418 23.0136 22.8894 22.9612C22.8634 22.9612 22.8106 22.9352 22.7841 22.9612C22.7841 22.9612 22.7317 23.0136 22.7317 23.0396C22.7317 23.092 22.7841 23.092 22.8106 23.118C22.8894 23.1713 22.8894 23.2237 22.8894 23.2497C22.9418 23.3021 23.0734 23.3281 22.9946 23.3813C22.9946 23.4073 22.9422 23.4597 22.9422 23.4862C22.8898 23.4862 22.8898 23.4601 22.8634 23.4077C22.7846 23.3021 22.6793 23.1713 22.6005 23.0132C22.6533 22.8556 22.7321 22.6715 22.7846 22.5139ZM22.6793 25.1699C22.6793 25.0118 22.7846 24.5653 22.9422 24.3548V24.4073C23.0738 24.4073 23.0738 24.3548 23.1791 24.2756C23.1791 25.0118 22.7846 24.8802 22.995 26.3262C22.6793 26.0894 22.6533 25.5112 22.6793 25.1699ZM22.8898 21.2783C23.1791 21.4099 23.3891 21.6464 23.3631 21.8304H23.1003C23.0214 21.6464 22.8898 21.4883 22.8898 21.2783ZM23.1003 23.4081C23.1003 23.3821 23.1527 23.4081 23.1527 23.4081C23.1003 23.5922 23.0738 23.7494 23.0738 23.8551C23.0738 23.9075 23.1003 23.9075 23.1003 23.9075C23.1791 23.7767 23.3107 23.3289 23.3631 23.4606C23.4684 23.7494 23.1003 24.1968 23.0214 24.144C22.995 24.1436 22.8898 23.6706 23.1003 23.4081ZM23.2579 24.1968C23.3103 24.1436 23.3891 24.0387 23.442 23.9863C23.6788 24.5649 23.1003 25.3527 23.5996 25.8789C23.3631 25.9049 23.2579 25.59 23.2315 25.6684C23.2315 25.8265 23.3103 25.9841 23.3631 26.1682C23.0738 26.115 23.0214 25.7204 23.0738 25.2739C23.1003 24.8538 23.3103 24.6173 23.2579 24.1968ZM23.4684 22.5931H23.5208C23.5468 22.6455 23.3891 22.8036 23.5208 23.0136C23.5468 23.092 23.5996 23.092 23.5208 23.1717C23.5208 23.1717 23.4684 23.2241 23.4684 23.1717L23.3895 23.0136C23.3107 22.9612 23.2319 23.0396 23.1007 23.0396V22.9612C23.3103 22.9352 23.3891 22.7771 23.4684 22.5931ZM23.2579 21.1994C23.5208 21.3311 23.6784 21.4359 23.7573 21.62C23.7048 21.7516 23.6784 21.8304 23.6784 21.9881C23.6256 21.9881 23.6256 21.9089 23.468 21.8564C23.3891 21.62 23.3631 21.4359 23.2579 21.1994ZM23.3631 23.1717C23.3631 23.0924 23.3891 23.2501 23.4684 23.2501C23.5472 23.3025 23.5472 23.2241 23.6788 23.1717C23.6788 23.1717 23.6788 23.1184 23.626 23.0924C23.5472 22.9616 23.5472 22.8036 23.626 22.6455H23.7048C23.8101 22.7239 23.6788 22.882 23.7573 22.9352C23.8097 22.9612 23.8361 23.0136 23.8889 23.0136C24.0201 22.9612 23.9149 22.8031 23.9677 22.7771C24.0465 22.6715 24.1254 22.5931 24.2046 22.5931C24.2046 22.6455 24.2046 22.6715 24.257 22.7239C24.257 22.7771 24.3887 22.8031 24.2834 22.8556C24.2046 22.9612 24.1782 23.118 24.1254 23.2501C24.0994 23.4081 23.7573 23.539 23.4684 23.697C23.442 23.671 23.4684 23.5922 23.442 23.4606C23.5208 23.4081 23.5996 23.4606 23.6788 23.4081C23.7048 23.3821 23.8365 23.4081 23.8893 23.3289C23.8893 23.3029 23.8369 23.2241 23.7577 23.2505C23.7577 23.2505 23.7053 23.2505 23.7053 23.3029C23.6792 23.3821 23.39 23.3289 23.3111 23.3029C23.3103 23.2501 23.3631 23.2241 23.3631 23.1717ZM23.5208 23.8287C23.5996 23.8287 23.6784 23.7763 23.7573 23.7494C23.8889 23.9075 23.8889 24.4073 23.8889 24.5653C23.8365 24.9326 23.8101 25.0907 23.8889 25.5376C23.6784 25.3804 23.626 25.2751 23.5472 25.0647C23.5212 24.6965 23.6788 24.3284 23.5212 23.9871C23.5208 23.9595 23.442 23.8547 23.5208 23.8287ZM23.9149 22.1986C24.099 22.1461 24.2566 22.277 24.283 22.435C24.283 22.435 24.3354 22.435 24.3883 22.3826C24.4671 22.3826 24.5459 22.3826 24.6247 22.461C24.6511 22.5134 24.6511 22.5667 24.6247 22.5927C24.5723 22.6711 24.4143 22.8031 24.283 22.6711C24.283 22.5927 24.3354 22.513 24.2566 22.513C24.125 22.4606 23.8097 22.5923 23.6256 22.513C23.6256 22.3826 23.7573 22.1986 23.9149 22.1986ZM24.3354 21.3575C24.4143 21.3575 24.4935 21.3575 24.5723 21.4099C24.5459 21.4099 24.5459 21.4359 24.4935 21.4359C24.283 21.62 24.1254 21.8304 23.9677 22.0145L23.7573 21.9885C23.8097 21.778 23.9149 21.4099 24.3354 21.3575ZM24.2042 27.7195C24.2566 27.7719 24.2042 27.7195 24.2042 27.93H24.1254C24.0201 27.8775 23.9149 27.8775 23.8365 27.93C23.8889 27.7719 24.099 27.7195 24.2042 27.7195ZM24.099 23.5922C24.2042 23.7763 24.2042 24.0391 24.2566 24.2756C24.3354 24.5653 24.2566 24.8018 24.2042 25.0643C23.9149 24.8018 24.0465 24.4073 23.9673 24.0651C23.9149 23.9595 23.8885 23.8287 23.8361 23.697C23.8097 23.697 24.0201 23.6182 24.099 23.5922ZM24.2834 28.4561C24.2834 28.5085 24.2834 28.5345 24.3358 28.6142H24.2834C24.0994 28.6142 24.0465 28.6666 23.9153 28.719C23.9149 28.5878 24.1778 28.3773 24.2834 28.4561ZM24.4671 27.1149C24.4147 27.1941 24.3883 27.2729 24.3883 27.299C24.3883 27.3514 24.3354 27.299 24.3354 27.299C24.2566 27.2729 24.1778 27.2205 24.099 27.2205C24.1778 27.1149 24.3883 27.0101 24.4671 27.1149ZM24.6511 21.62C24.8616 21.5676 25.0721 21.646 25.2297 21.62H25.2821C25.2033 21.7516 25.0453 21.6984 24.8612 21.7516C24.5459 21.7776 24.4667 21.8564 24.2566 22.0929C24.1778 22.0929 24.1778 22.0669 24.125 22.0669C24.257 21.752 24.3883 21.6988 24.6511 21.62ZM24.2042 23.4606C24.2566 23.4081 24.283 23.3025 24.283 23.3025C24.4671 23.4866 24.5723 23.7763 24.6247 24.1176C24.6511 24.4857 24.8352 24.6437 24.7828 24.6437C24.6511 24.6177 24.5459 24.5121 24.4671 24.4073C24.3883 24.2492 24.3883 23.9867 24.1778 23.4866C24.1778 23.4606 24.1778 23.4866 24.2042 23.4606ZM24.2834 22.1461C24.704 21.7516 24.9144 21.8304 25.2825 21.7516L25.3085 21.7776C25.2825 21.9085 25.2033 22.0665 25.0721 22.0665C24.8616 22.0925 24.704 22.0665 24.4935 22.2246C24.4671 22.2246 24.4671 22.1986 24.3883 22.2246C24.3883 22.225 24.257 22.1461 24.2834 22.1461ZM24.4147 23.0136C24.4671 22.9612 24.4935 23.0136 24.5463 23.0396C24.9408 23.3817 24.704 24.0647 25.1509 24.4857C25.2033 24.5117 24.914 24.4333 24.8352 24.3548C24.6247 23.9867 24.704 23.6706 24.3883 23.2241C24.3354 23.1717 24.4147 23.0136 24.4147 23.0136ZM24.73 22.8031C24.8616 22.8556 25.0453 22.9348 25.0721 23.092C25.2297 23.539 25.1509 23.7763 25.3085 24.4068C25.0457 24.4068 24.9932 23.6966 24.8616 23.3817C24.7828 23.2237 24.6511 23.0396 24.4935 22.9348C24.704 22.8556 24.73 22.8031 24.73 22.8031ZM25.3085 22.3034C25.3085 22.3566 25.3085 22.3566 25.2825 22.3566C25.0721 22.435 24.9932 22.3034 24.8352 22.3826C24.7828 22.435 24.7828 22.3566 24.704 22.3566C24.6515 22.2774 24.6251 22.2774 24.6251 22.2774C24.8616 22.1461 25.0453 22.0929 25.3085 22.3034Z" fill="#0C0E0F"/>
<path fill-rule="evenodd" clip-rule="evenodd" d="M25.361 21.5415C25.4398 21.752 25.4398 21.8564 25.361 22.0145V21.5415ZM25.361 22.2249C25.4398 22.3566 25.5187 22.4614 25.5715 22.4354C25.8608 22.0673 26.4654 21.936 26.3869 21.6992C26.3077 21.4367 26.0972 21.4367 25.8872 21.4367C25.9396 21.2786 26.1769 21.2786 26.4658 21.2786C26.4658 21.1738 26.4398 21.0682 26.4658 20.9897C26.9127 21.0682 27.0968 21.5683 27.3592 21.6207C27.6225 21.6467 27.9114 21.4891 28.1219 21.3319H28.1479C28.1219 21.8312 28.6476 21.4367 28.8057 21.5423C28.8317 21.9893 28.0695 22.0937 27.9906 22.3042C27.9114 22.5146 28.0691 22.5674 28.1215 22.6463C28.0691 22.6723 27.7802 22.6723 27.8066 22.8043C27.9374 22.9624 28.2795 22.8827 28.3059 22.7783C28.4376 22.515 28.2275 22.4362 28.2275 22.3838C28.2799 22.3578 28.3856 22.4362 28.49 22.3578C28.516 22.2786 28.4376 22.2261 28.4376 22.1997C28.5956 22.2257 28.7525 22.3578 29.0422 22.2782C29.147 22.2257 29.0422 22.1473 29.0946 22.0677C29.2526 22.0937 29.4103 22.2782 29.5415 22.3574C29.6732 22.3042 29.6207 22.1469 29.5947 21.9369C29.752 21.91 29.9096 22.3838 30.1201 22.4362C30.1985 22.4622 30.2782 22.3578 30.2782 22.2782C30.3306 22.2782 30.3306 22.3042 30.3306 22.3574C30.6203 23.3825 30.9352 22.3834 31.0932 22.5679C31.1456 22.5679 31.0932 22.5939 31.0932 22.5939C31.0148 22.6723 30.9876 22.8563 31.0148 22.962C31.198 23.593 30.541 23.7498 30.567 23.7498C30.6203 25.1434 29.1734 25.1703 28.438 25.0122C28.6485 25.4591 29.1738 25.5116 29.2266 25.9057C29.2526 26.0373 29.305 26.4054 29.4107 26.5367C29.6212 26.6683 29.9885 26.4583 30.1725 26.3262C30.4882 26.3794 30.4882 26.5627 30.5406 26.6159C30.8563 26.6683 31.0928 26.4579 31.3817 26.3794C31.4609 26.4579 31.2244 26.7467 31.3557 26.6943C31.3817 26.6943 31.3817 26.6683 31.4349 26.6943C31.4609 26.8524 31.3557 27.01 31.3817 27.1149C31.4349 27.1409 31.4609 27.1409 31.5657 27.1941C31.5133 27.2725 31.4349 27.2201 31.3553 27.4046C31.3813 27.4306 31.5657 27.4306 31.645 27.4306C31.5657 27.5878 31.2769 27.7719 31.2244 27.8511C31.2769 27.8771 31.3817 27.8771 31.4349 27.8771C31.4349 28.0087 31.1976 28.0351 31.1452 28.1396C31.1976 28.1656 31.2244 28.1656 31.2769 28.2188C31.1976 28.3236 30.8563 28.4553 30.9348 28.5077C30.9872 28.5337 31.0664 28.5869 31.1452 28.6133C30.8827 28.8238 30.7247 28.8758 30.4358 28.8758C30.4358 28.9806 30.4358 29.0599 30.3302 29.1647C30.2777 29.2439 30.1197 29.3227 29.9881 29.3227C30.0673 29.0603 29.9881 28.8234 29.7776 28.8234C29.7776 28.8758 29.7516 28.8758 29.7516 28.9018C29.8308 29.1643 29.6992 29.428 29.331 29.4011C29.173 29.6124 28.674 29.6124 28.4376 29.3227V29.2443C28.648 29.2443 28.7525 29.2443 28.9369 29.1651C28.9369 29.0603 28.9369 29.0343 28.8845 28.981C28.674 28.955 28.4376 29.0603 28.2275 29.1651C28.2015 28.8762 28.3856 28.5081 28.648 28.5081C28.7265 28.2456 28.7529 28.324 28.7529 28.2456C28.648 28.1664 28.438 28.14 28.2799 28.14C28.2275 28.14 28.2015 28.166 28.1483 28.14C28.3588 27.7194 28.6745 27.693 28.9369 27.7987C29.0162 27.7194 29.1474 27.6406 29.2266 27.693C29.3847 27.693 29.4107 27.9555 29.5155 28.0351C29.6736 28.0876 29.8576 27.8511 29.8576 27.693C29.8576 27.3509 29.3055 27.2985 29.0166 27.3509C28.7533 27.4041 28.5168 27.3509 28.2803 27.1937C28.1223 27.062 27.9382 26.9304 27.781 26.7731C27.7278 26.7463 27.7278 26.7731 27.7278 26.8256C27.7018 26.9304 27.6229 27.1144 27.7278 27.2725C27.8594 27.3509 28.1223 27.4306 28.1483 27.6406C28.1223 27.719 28.1223 27.8511 28.0175 27.9295C27.9118 28.0087 27.7278 28.0876 27.7278 28.2452C27.7018 28.4557 27.7278 28.5077 27.9118 28.7181C27.7278 28.7974 27.4913 28.7181 27.3596 28.6657C27.3336 28.6657 27.2024 28.9022 27.1764 28.9806C27.0448 29.0339 26.9659 28.7181 26.9131 28.7442C26.8871 28.7974 26.7551 28.9546 26.7551 29.0338C26.6766 29.0599 26.5978 28.7441 26.5446 28.7181C26.4662 28.7974 26.3873 28.9022 26.3873 29.0338C26.3081 28.9806 26.2557 28.9022 26.1769 28.8234C26.0712 28.9542 25.8872 29.0339 25.7295 28.9806C25.6771 28.9546 25.8084 28.8234 25.7555 28.7974C25.7555 28.7442 25.7295 28.7974 25.7295 28.7974C25.6771 28.8758 25.5191 28.8758 25.3614 28.8758V28.2448C25.5191 28.2188 25.6767 28.2972 25.8608 28.402C25.9392 28.5077 25.9392 28.6653 25.8868 28.7974C25.8868 28.8234 25.8079 28.8758 25.8608 28.9022C26.2289 28.7974 26.0972 28.4024 26.1765 28.3236C26.2289 28.2976 26.2289 28.3236 26.2289 28.3236C26.2289 28.5077 26.1765 28.7181 26.3073 28.8234C26.3865 28.5869 26.5178 28.3236 26.6754 28.1392C26.7014 28.1392 26.7014 28.1392 26.7014 28.1652C26.7014 28.1392 26.5966 28.5865 26.7538 28.7173C26.8331 28.5333 26.9651 28.1652 27.1752 28.0339C27.0959 28.218 26.9911 28.5069 27.1219 28.7433C27.28 28.5069 27.1752 28.1648 27.4901 27.9283V27.9543C27.3584 28.244 27.2536 28.5861 27.7005 28.6645V28.6121C27.3584 28.2964 27.7265 27.9279 27.8586 27.8759C27.911 27.8499 27.911 27.7178 27.911 27.6918C27.8586 27.5862 27.7802 27.5078 27.7269 27.4813C27.5697 27.4289 27.4645 27.3497 27.4121 27.1925C27.3588 26.982 27.4645 26.7447 27.4905 26.5606C27.5429 26.4822 27.28 26.2458 27.0959 26.0353C26.9911 26.3242 26.623 26.3242 26.5438 26.0353C26.1765 26.2458 26.2289 26.3242 25.966 26.5606C25.966 26.6139 25.8604 26.5606 25.8604 26.5346C25.9388 26.3774 26.0184 26.1933 26.0708 26.0353C26.0968 25.9561 25.966 26.0877 25.8079 26.1669C25.6763 26.2454 25.4926 26.2978 25.4926 26.3242C25.4138 26.6663 25.4927 26.8503 25.8868 26.9288C26.2289 26.982 26.5438 26.8503 26.7811 27.008C27.2016 27.2969 26.9119 27.7174 26.3333 27.7966C26.0708 27.8491 25.5187 27.8751 25.4398 27.5069C25.4398 27.4809 25.4134 27.4285 25.361 27.4285V27.2969C25.4134 27.3493 25.4398 27.3493 25.4398 27.4025C25.5711 27.5858 25.6763 27.5858 25.9392 27.639C26.0972 27.639 26.2549 27.639 26.3869 27.5858C26.6758 27.5073 26.6758 27.1388 26.4654 27.1388C26.1765 27.1128 25.9392 27.1921 25.6767 27.1128C25.5191 27.0604 25.4138 27.008 25.3086 26.982L25.361 26.0877C25.8604 25.8252 26.2289 25.6672 26.7542 25.3783C26.7811 25.3783 26.8859 25.3515 26.9655 25.3783C27.5701 26.1933 27.859 26.8503 28.9629 27.0084C29.3843 27.1132 29.8572 26.9292 30.0413 27.4029C30.1721 27.6918 29.9096 28.1648 29.5415 28.1648C29.4631 28.218 29.3843 28.0863 29.331 28.0075C29.305 27.9283 29.305 27.797 29.173 27.7702C29.0422 27.797 28.9625 27.9283 28.9365 28.0335C28.8317 28.2176 29.0946 28.1643 29.147 28.244C29.305 28.4545 29.0162 28.6121 28.8845 28.4545C28.7265 28.376 28.7265 28.7966 28.8321 28.8226C28.9629 28.875 29.0426 28.7433 29.0946 28.7169C29.3311 28.6121 29.4627 29.0326 29.147 28.9534C29.0422 28.9794 29.0946 29.1115 29.147 29.1899C29.2262 29.3215 29.5151 29.3215 29.5947 29.1639C29.6207 29.059 29.5415 28.9798 29.5415 28.9014C29.6996 28.5069 30.3302 28.7433 30.5406 28.7966C30.5666 28.7966 30.7771 28.7433 30.8827 28.6649C30.6987 28.6125 30.409 28.4545 30.3566 28.376C30.7247 28.4012 30.8563 28.376 30.9876 28.2968C30.8043 28.2968 30.6203 28.2444 30.4362 28.1388C30.7251 28.1388 30.9356 28.1648 31.198 27.9547C30.9356 27.9547 30.541 28.0079 30.4362 27.7975C30.567 27.7975 30.7775 27.8759 30.9356 27.8499C31.0672 27.7975 31.3561 27.6918 31.2777 27.5866C31.0672 27.6398 31.0152 27.5082 30.5414 27.5866C30.5414 27.4818 31.146 27.4818 31.0936 27.4033C30.988 27.4033 30.6467 27.3501 30.5414 27.2977V27.2717C30.8571 27.2717 31.1984 27.14 31.2777 26.9036C31.0936 26.9828 30.5674 27.114 30.489 27.0092C30.8836 26.9832 31.2777 26.5355 31.1984 26.5355C30.988 26.6671 30.7255 26.6935 30.489 26.6935C30.4366 26.6935 30.4366 26.6935 30.4098 26.6675C30.4098 26.6151 30.4098 26.5619 30.3574 26.5619C30.1733 26.4046 29.7788 26.9832 29.3059 26.6675C29.0954 26.457 29.0954 26.1946 28.9637 25.9573C28.864 25.768 28.7303 25.5987 28.5692 25.4579C28.3067 25.2999 28.1223 25.0634 27.9382 24.8009C27.9122 24.6429 27.5709 24.2748 27.3336 24.3272C27.1764 24.354 27.0447 24.354 26.8867 24.4064C26.2557 24.5645 25.8876 24.7745 25.3618 24.8533V23.2496C25.4142 23.2496 25.4142 23.2236 25.4142 23.2236C25.4142 23.1712 25.3618 23.1712 25.3618 23.118V22.2249H25.361ZM25.361 25.8004C25.361 25.8004 25.4134 25.8004 25.4134 25.7472C25.4138 25.7476 25.361 25.7476 25.361 25.8004ZM25.5715 28.4028C25.5979 28.4028 25.6767 28.4561 25.7291 28.5085C25.8608 28.5877 25.4927 28.8242 25.361 28.745C25.4402 28.6661 25.5191 28.5345 25.5715 28.4028ZM25.8079 22.3826C26.0708 22.1461 26.5178 22.0145 26.5178 21.778C26.5438 21.4883 26.0972 21.4099 26.1497 21.4099C26.2553 21.3315 26.5974 21.4359 26.6758 21.6203C26.6758 21.6463 26.7018 21.3579 26.6234 21.1998C27.0439 21.4103 27.0439 21.752 26.9123 21.9885C26.9123 22.0145 26.9655 22.0669 26.9655 22.0145C27.1228 21.6988 27.5433 21.752 27.8066 21.6199C27.859 21.6199 27.859 21.6459 27.859 21.6459C27.8066 21.6984 27.7806 21.7776 27.7273 21.83C27.7273 21.856 27.7806 21.856 27.7806 21.856C28.3059 21.856 28.648 21.6455 28.648 21.6455C28.648 21.6979 28.5688 21.908 27.7806 22.0925C27.6225 22.3558 27.9378 22.5662 27.859 22.5922C27.6485 22.5922 27.5433 22.513 27.5701 22.3025C27.5433 22.2765 27.5433 22.2765 27.4909 22.2765C27.2804 22.5662 27.7013 22.9607 27.9378 23.0392C27.9378 23.0916 27.9118 23.0916 27.807 23.0916C26.9919 22.9343 27.176 22.2241 26.4398 22.3029C26.2293 22.3562 25.8612 22.5926 25.8088 22.8815C25.7559 23.118 25.8876 23.4077 26.1501 23.4601C26.6762 23.6182 27.1232 23.3817 27.6489 23.1712C27.8594 23.2236 28.1219 23.2236 28.2275 23.092C28.2799 23.092 28.0695 23.0136 28.017 22.9612H28.0695C28.3583 22.9352 28.5164 22.8031 28.49 22.4614C28.648 22.4614 28.8321 22.7771 28.9369 22.8035C29.0162 22.8559 28.8061 22.4614 28.7529 22.383C29.0162 22.4354 29.2266 22.5138 29.3315 22.8035C29.4107 22.8035 29.2266 22.2773 29.3055 22.3037C29.7 22.5142 29.6736 22.8823 29.7 22.8035C29.8316 22.6719 29.7524 22.5138 29.8316 22.383C30.0421 22.5138 30.2522 22.6719 30.1729 22.9352V22.9612C30.2522 22.9352 30.331 22.7771 30.357 22.6715C30.4886 22.8031 30.5674 23.0136 30.4886 23.2236L30.4362 23.2496C30.4886 23.3021 30.541 23.3021 30.567 23.2496C30.7775 23.1712 30.6987 22.9347 30.8567 22.8551C30.9876 23.2496 30.8827 23.5385 30.409 23.6702C30.409 23.8542 30.3566 24.0647 30.3306 24.2748C30.1989 24.5645 29.9625 24.7217 29.6996 24.8533C29.305 24.9582 28.438 24.9582 28.1219 24.7217C28.0695 24.6957 28.017 24.6169 27.991 24.5645C28.5164 24.7217 29.91 24.8009 30.1725 24.0647C30.3566 23.4861 29.8312 23.1712 29.4631 23.118C28.5956 23.0396 27.8594 23.4077 26.8863 23.6966C26.3341 23.8546 25.5191 23.8282 25.4931 23.118C25.4926 22.8555 25.5715 22.5666 25.8079 22.3826ZM28.6476 28.6137C28.6291 28.647 28.6216 28.6854 28.6263 28.7232C28.6309 28.761 28.6475 28.7964 28.6736 28.8242C28.7261 28.9026 28.4896 28.8766 28.3579 28.955C28.3579 28.8766 28.49 28.6137 28.6476 28.6137ZM28.8317 27.8775C28.8024 27.9465 28.776 28.0168 28.7525 28.088C28.6476 28.0095 28.5684 28.0095 28.3579 28.0355C28.3852 27.9299 28.674 27.7194 28.8317 27.8775ZM28.9629 29.2447C29.0162 29.2707 29.0422 29.3231 29.0946 29.3495C29.0422 29.4288 28.674 29.4812 28.6476 29.3235C28.7525 29.3231 28.8841 29.3231 28.9629 29.2447ZM29.9881 28.7978C29.962 28.7446 30.1985 28.7978 30.2513 28.8238C30.2773 28.8762 30.3298 29.0343 30.1721 29.1127C30.1721 28.955 30.1721 28.9026 29.9881 28.7978ZM25.4402 23.5389C25.4402 23.4865 25.4402 23.4865 25.4926 23.4865C25.6767 23.9595 26.1765 23.9863 26.6234 23.907C27.4645 23.7762 28.516 23.3025 29.2262 23.3025C29.4627 23.3025 30.0413 23.4081 30.0413 23.7762C30.0413 24.0387 29.962 24.1967 29.778 24.3276C29.5415 24.4856 28.9369 24.5649 28.674 24.5649C28.516 24.5649 27.9114 24.5116 27.7273 24.2752C27.6225 24.1967 27.4649 24.1435 27.2804 24.1435C26.7018 24.1435 26.0708 24.4856 25.5715 24.4856C25.4402 24.4856 25.4138 23.7494 25.4402 23.5389ZM26.7018 22.5138C26.9123 22.6719 27.0964 22.9616 27.4121 23.1184C27.4121 23.1716 26.7811 23.3817 26.5438 23.3817C26.0968 23.3817 25.966 23.1712 25.966 22.9612C25.9664 22.7239 26.3869 22.3566 26.7018 22.5138Z" fill="#0C0E0F"/>
<path fill-rule="evenodd" clip-rule="evenodd" d="M18.0522 23.8287L19.1566 23.3818L18.7096 24.5117L19.8664 24.9587L18.7096 25.4324L19.1566 26.5624L18.0522 26.1154L17.6053 27.2202L17.1059 26.1154L15.9756 26.5624L16.4489 25.4324L15.4238 25.0119V24.9327L16.4489 24.5121L16.002 23.3822L17.1059 23.8291L17.6053 22.7244L18.0522 23.8287ZM17.973 23.9868L18.9985 23.5922L18.5776 24.6174L19.6027 24.9587L18.5776 25.38L18.9985 26.3791L17.973 25.9846L17.6049 26.9305L17.2108 25.9574L16.1853 26.3787L16.5798 25.3796L15.6331 24.9583L16.5798 24.5645L16.1853 23.5914L17.2108 23.986L17.6049 22.9608L17.973 23.9868Z" fill="#FAE935"/>
</svg>
