<svg width="50" height="50" viewBox="0 0 50 50" fill="none" xmlns="http://www.w3.org/2000/svg">
<circle cx="25" cy="25" r="25" fill="#DA1710"/>
<path d="M19.5387 31.1662L15.8641 19.7399C15.3356 18.0034 14.4547 17.5 13.0957 17.5H6.25C6.77853 17.7265 7.13088 19.1107 7.13088 19.1107L10.453 30.5873C10.8306 32.0219 12.0386 32.7769 13.3725 32.7769H20.6209C20.1175 32.7014 19.5387 31.1662 19.5387 31.1662Z" fill="white"/>
<path d="M30.4611 31.1662L34.1356 19.7399C34.6893 18.0034 35.5702 17.5 36.9041 17.5H43.7498C43.2213 17.7265 42.8437 19.1107 42.8437 19.1107L39.5719 30.5873C39.1944 32.0219 37.9863 32.7769 36.6524 32.7769H29.3789C29.9074 32.7014 30.4611 31.1662 30.4611 31.1662Z" fill="white"/>
<path d="M29.0518 17.6006H20.998V32.8021H29.0518V17.6006Z" fill="white"/>
</svg>
